<svg version="1" xmlns="http://www.w3.org/2000/svg" width="933.333" height="933.333" viewBox="0 0 700.000000 700.000000"><path d="M340.8 1.5c-15.2 4.1-24 15.9-25.8 34.2-1.6 17-5.4 25-17.5 36.8-9 8.9-26.6 19.7-42 26-2.2.9-4.9 2-6 2.5-1.1.5-5.4 2.1-9.5 3.6-19.4 6.8-28.8 17.5-29.5 33.7-.8 21 15.5 37.3 36.2 36.3 12.3-.6 45.5-14.2 68.1-27.8 7.4-4.4 23.9-16.1 25.2-17.8.3-.3 2.6-2.5 5.2-4.9l4.7-4.3 8.8 7.7c19.3 16.9 47.1 32.3 77.8 43.1 3.9 1.4 7.9 2.7 9 3 15.4 3.7 30.4-1.9 38.4-14.5 9.1-14.4 7-32.6-5.2-44.2-4.9-4.8-6.3-5.5-28-13.9-36.2-14.2-58.5-32.7-64.1-53.5-.3-1.1-1-6.4-1.6-11.8-1.2-11.8-4.1-18.7-10.7-25.3-3.9-4-10.8-8.1-15.3-9.1s-14.1-.9-18.2.2zM168 210.9c-9.2 2.1-16.1 6.7-21.5 14.5-6.9 10.1-8.1 23.7-2.9 34.4 5.1 10.5 19.1 21.9 37.6 30.7 7.6 3.6 23 9.3 27.3 10.1.6.1 5.7 1.3 11.5 2.7 5.8 1.4 12.5 2.8 15 3.2 2.5.4 5.9.9 7.5 1.2 1.7.3 4 .7 5.2.8 1.2.2 3.4.6 5 .9 2.8.5 8.7 1.1 19.8 2.1 3.3.3 7.6.7 9.5 1 21.8 2.7 111 2.7 136 0 2.5-.3 7.4-.7 11-1 3.6-.3 7.6-.7 9-1 1.4-.2 4.9-.7 7.9-1 3-.4 6.3-.9 7.5-1.1 1.2-.2 6.2-1.1 11.2-1.9 5.1-.8 10.2-1.9 11.5-2.4 1.3-.5 2.7-.9 3.2-.9 1.1-.1 6.9-1.3 9-1.9 1.7-.5 1.8 3.7 1.4 105.9-.3 58.4-.7 107.9-1 109.8-.3 1.9-.8 5.7-1.1 8.4-1.2 9.1-3.8 20.1-7.3 30.6-10.5 31.6-30.5 52.1-62 63.6-8.6 3.1-24 6.8-33.7 8-2.3.3-5.2.8-6.6 1-4.6 1-44.4 1.2-52 .3-18.9-2.1-28.1-4-41.4-8.4-48.1-16.1-71.1-53-74.1-118.5-.7-16.4-1.4-20.7-4-26.6-8.5-19.3-34.4-26.1-51.8-13.7-5.5 4-11.4 12.6-13.2 19.1-1.3 5.2-1.4 29.6-.1 40.2.4 2.5.8 6.7 1.1 9.5 2.5 24.2 12.3 56.9 22.6 75.7 2.1 3.9 3.9 7.3 3.9 7.5 0 .9 9.5 14 14.6 20.3 23.9 29.3 55.8 48.4 97.5 58.3 23.4 5.6 39.4 7.2 70.4 7.1 12.1 0 24.9-.4 28.5-.7 3.6-.4 8.8-1 11.5-1.3 5.8-.6 6.2-.7 17.4-2.9 35.5-6.9 65.6-20.8 88.6-40.9 7.7-6.7 7.4-6.4 16-16.1 20-22.4 35.1-55.5 41.5-91 2-11.2 2.4-14.3 3.9-29.5.5-4.7.9-68.6 1-142 .1-140.7.2-138.2-4.3-146.8-2.2-4.3-9.4-11.5-13.6-13.7-10.6-5.5-23.3-5.5-33.5-.1-2.2 1.1-4.2 2.3-4.5 2.6-6.4 6.9-24.1 15.2-37.1 17.5-1.6.3-5.7 1.2-9.1 2-3.5.7-8.1 1.6-10.3 2-2.3.3-5.2.7-6.5 1-3.6.7-8.7 1.3-17 2.1-4.1.3-8.3.8-9.3 1-13.3 2.5-115.1 2.4-129.7-.1-2.4-.4-11.3-1.4-19-2-1.9-.2-5.1-.6-7-.9-1.9-.4-6.2-1.1-9.5-1.7-22.2-3.7-38.9-9.6-49.5-17.5-4.1-3.1-9.4-6.5-11.8-7.5-4.9-2.1-15.1-3.1-20.2-2z"/></svg>