<svg version="1" xmlns="http://www.w3.org/2000/svg" width="480" height="480" viewBox="0 0 360.000000 360.000000"><path d="M96.8 95.4l-79.4 79.4.1 24.5v24.6L97 283.5c43.7 32.9 80.1 60 80.9 60.3.8.3 38.1-17.8 83-40.3l81.6-40.7V160.5c0-56.3-.2-102.6-.5-102.9-.3-.2-1.7-.7-3-.9-1.4-.3-4.5-1-7-1.7s-5.2-1.3-6-1.5l-16-4-16-4c-.8-.2-5.3-1.3-10-2.5s-9.3-2.4-10.2-2.6c-1-.2-2.7-.6-3.8-.9-1.1-.3-2.9-.7-4.1-1-1.1-.2-2.9-.7-3.9-1-1-.3-2.7-.7-3.7-1-1-.2-7.4-1.7-14.3-3.5s-13.2-3.3-14-3.5c-.8-.2-5.3-1.3-10-2.5s-9.2-2.3-10-2.5c-.8-.2-3.5-.8-6-1.5s-5.2-1.3-6-1.5c-1.8-.4-17.9-4.4-20.1-5.1-1.2-.3-25.7 23.6-81.1 79zm99.5-48.3c6.7 1.7 12.9 3.2 13.7 3.4.8.2 9.8 2.4 20 5 10.2 2.5 19.3 4.8 20.3 5 1 .2 2.7.7 3.7 1 1 .3 2.7.7 3.7.9 1 .2 5.6 1.4 10.3 2.6 4.7 1.2 9.3 2.4 10.3 2.6 1 .2 2.7.6 3.7.9 1 .3 2.7.7 3.7.9 1 .2 5.6 1.4 10.3 2.6 4.7 1.2 9.4 2.4 10.5 2.6 1.1.2 3.9.9 6.3 1.6l4.2 1.3-20.6 36c-11.3 19.8-21.6 37.8-22.8 40-1.3 2.2-8.7 15.2-16.6 29-7.9 13.7-15.5 27.1-16.9 29.6-13.3 23.4-13.5 23.7-15.5 23.4-1.2-.2-6.4-.9-11.6-1.5-9.8-1.1-12.7-1.5-19.5-2.4-5.9-.8-28.3-3.6-33.5-4.2-2.5-.3-5.6-.7-7-.9-1.4-.3-5.2-.7-8.5-1-3.3-.4-7.1-.8-8.5-1-4.1-.6-9.9-1.4-23-3-6.9-.9-14.1-1.8-16-2-1.9-.2-9.1-1.1-16-2-6.9-.9-14.1-1.8-16-2-15.2-1.9-20.6-2.8-21.5-3.5-.7-.5-1-6-1-13.8l.1-13 70.4-70.6c38.8-38.8 70.6-70.5 70.8-70.6.2 0 5.8 1.4 12.5 3.1zm121.2 128c0 39.1-.3 71.3-.6 71.5-.4.2-6-.3-12.5-1.1-6.6-.9-13.7-1.8-15.9-2-2.2-.3-5.6-.7-7.5-1-1.9-.3-5.3-.7-7.5-.9-7.4-.9-16-2-16.5-2.1-.3-.1-4-.5-8.2-.9-4.3-.5-7.8-1.2-7.8-1.7s16.9-30.4 37.5-66.5 37.5-66.1 37.5-66.7c0-.6.3-.7.7-.3.4.4.7 32.7.8 71.7zM83 230.5c7.4.9 14.6 1.8 16 2l16 2c2.5.3 6.1.7 8 1 1.9.3 5.3.7 7.5.9 2.2.3 7.6 1 12 1.5 4.4.6 10.3 1.3 13 1.6 2.8.3 6.1.8 7.5 1 1.4.2 8.8 1.1 16.5 2 7.7 1 14.7 1.8 15.5 2 .8.2 4.7.6 8.5 1.1 3.9.4 7.3.9 7.8 1 .4.1 2.3.2 4.2.3 1.9 0 3.5.6 3.5 1.1 0 .6-5.4 10.5-12.1 22.1-6.6 11.6-13 22.8-14.1 24.8-3.3 5.9-11.1 19.6-11.4 19.9-.2.4-112.1-83.2-114.4-85.5-1.3-1.3-1.3-1.5.5-1 1.1.3 8.1 1.3 15.5 2.2zm160 20c3.6.4 7.6.8 9 1 5.5.8 11.1 1.5 23.3 3 15.2 1.9 21.1 2.7 21.4 2.9.1.1-21.2 10.9-47.4 23.9-26.1 13.1-47.3 23.4-47.1 22.9.1-.5 7.3-13.1 15.8-28 11.1-19.4 15.9-27 17-26.8.8.3 4.4.7 8 1.1z"/></svg>