<svg width="60" height="60" viewBox="0 0 310 310" version="1.1" style="fill-rule:evenodd;clip-rule:evenodd;stroke-linecap:round;stroke-linejoin:round;">
<path d="M135.715,267.024c0.716,0.491 1.528,0.865 2.148,1.474c2.534,2.486 2.88,6.756 0.93,9.596c-0.491,0.716 -1.216,1.24 -1.824,1.859l-7.817,5.583l0.639,1.357l0.236,2.594c-0.222,0.84 -0.302,1.73 -0.666,2.518c-0.74,1.601 -2.02,2.89 -3.615,3.64c-0.786,0.37 -1.676,0.455 -2.514,0.683l-11.204,1.019c-2.259,-0.19 -3.009,0.045 -4.96,-1.311c-4.158,-2.891 -3.916,-10.591 1.088,-12.945c2.049,-0.964 6.464,-1.042 8.054,-1.186l-0.22,-0.792c0.176,-2.26 -0.063,-3.009 1.281,-4.968c0.492,-0.716 1.217,-1.239 1.825,-1.859l9.154,-6.539c2.338,-1.116 2.365,-1.124 4.943,-1.374c0.841,0.217 1.681,0.434 2.522,0.651Zm22.366,11.528c2.057,0.951 2.843,0.987 4.212,2.929c1.981,2.808 1.66,7.124 -0.807,9.608c-1.675,1.685 -2.455,1.589 -4.643,2.183l-11.204,1.019c-2.258,-0.19 -3.009,0.045 -4.959,-1.311c-3.517,-2.445 -4.195,-8.268 -1.041,-11.443c1.674,-1.686 2.455,-1.59 4.642,-2.184l11.204,-1.019c0.865,0.073 1.731,0.146 2.596,0.218Zm33.611,-3.055c2.058,0.951 2.843,0.987 4.213,2.928c2.046,2.901 1.62,7.163 -0.808,9.608c-1.674,1.685 -2.455,1.59 -4.642,2.184l-11.204,1.018c-2.259,-0.19 -3.009,0.045 -4.96,-1.311c-3.55,-2.468 -4.17,-8.292 -1.04,-11.443c1.674,-1.686 2.454,-1.59 4.642,-2.184l11.204,-1.019c0.865,0.073 1.73,0.146 2.595,0.219Zm33.612,-3.056c2.057,0.951 2.843,0.987 4.212,2.928c1.981,2.809 1.659,7.124 -0.808,9.608c-1.674,1.686 -2.454,1.59 -4.642,2.184l-11.204,1.019c-2.259,-0.19 -3.009,0.045 -4.96,-1.311c-3.517,-2.445 -4.194,-8.268 -1.04,-11.444c1.674,-1.685 2.455,-1.589 4.642,-2.184l11.204,-1.018c0.865,0.073 1.73,0.145 2.596,0.218Zm-114.548,-21.505c0.706,0.506 1.511,0.896 2.118,1.517c1.662,1.697 1.556,2.476 2.119,4.672l0.863,11.217c-0.171,1.742 -0.377,3.54 -1.38,4.941c-1.788,2.498 -4.655,3.705 -8.444,2.647l0.315,0.45c0.587,2.189 1.062,2.816 0.447,5.111c-0.889,3.319 -4.411,5.835 -7.898,5.53c-2.367,-0.207 -2.793,-0.868 -4.65,-2.168l-7.955,-7.955c-1.3,-1.857 -1.961,-2.283 -2.168,-4.65c-0.442,-5.055 5.597,-9.803 10.641,-7.451c2.127,0.992 5.375,4.736 6.413,5.774l-0.277,-1.079l-0.863,-11.217l0.255,-2.592c0.375,-0.783 0.62,-1.643 1.125,-2.349c1.027,-1.434 2.525,-2.46 4.233,-2.898c1.669,-0.429 3.42,0.03 5.106,0.5Zm168.875,-12.49c0.785,0.369 1.647,0.608 2.357,1.109c1.441,1.016 2.478,2.507 2.928,4.212c0.222,0.84 0.146,1.731 0.218,2.596l-1.018,11.204c-0.228,0.837 -0.313,1.728 -0.683,2.513c-1.13,2.403 -3.584,4.06 -6.158,4.281c-0.846,0.073 -1.692,-0.154 -2.538,-0.231l2.438,2.438c1.3,1.857 1.961,2.283 2.168,4.65c0.441,5.044 -5.629,9.788 -10.641,7.451c-1.701,-0.793 -3.187,-2.548 -4.449,-3.809l0.219,2.405c-0.222,0.839 -0.301,1.73 -0.666,2.518c-0.739,1.601 -2.019,2.889 -3.615,3.64c-0.785,0.37 -1.676,0.455 -2.514,0.683l-11.203,1.018c-2.259,-0.19 -3.01,0.045 -4.96,-1.311c-3.505,-2.436 -4.178,-8.284 -1.041,-11.443c1.675,-1.686 2.455,-1.59 4.643,-2.184l11.203,-1.019l2.447,0.206l-0.153,-0.153c-1.3,-1.857 -1.961,-2.283 -2.168,-4.65c-0.372,-4.252 3.69,-8.513 8.125,-8.125c2.367,0.207 2.793,0.868 4.65,2.168l0.174,0.175l-0.217,-2.58l1.019,-11.203c0.227,-0.838 0.313,-1.728 0.683,-2.514c0.75,-1.596 2.039,-2.876 3.64,-3.615c1.563,-0.723 3.369,-0.589 5.112,-0.43Zm-116.452,8.961c0.716,0.491 1.528,0.866 2.147,1.474c2.534,2.486 2.88,6.756 0.931,9.597c-0.492,0.715 -1.217,1.239 -1.825,1.859l-9.154,6.539c-2.046,0.977 -2.575,1.559 -4.943,1.374c-4.256,-0.332 -7.791,-5.039 -6.679,-9.351c0.593,-2.3 1.315,-2.612 2.903,-4.229l9.155,-6.539c2.337,-1.117 2.364,-1.125 4.943,-1.375c0.84,0.217 1.681,0.434 2.522,0.651Zm-92.28,-6.475l2.134,1.494l7.955,7.955c1.3,1.857 1.961,2.283 2.168,4.65c0.373,4.267 -3.667,8.515 -8.125,8.125c-2.367,-0.207 -2.793,-0.868 -4.65,-2.168l-7.955,-7.955c-1.3,-1.857 -1.961,-2.283 -2.168,-4.65c-0.299,-3.423 2.149,-6.992 5.531,-7.898c1.664,-0.446 3.42,-0.006 5.11,0.447Zm172.322,-7.678l2.134,1.494l7.955,7.955c1.3,1.857 1.961,2.283 2.168,4.65c0.386,4.41 -3.757,8.507 -8.125,8.125c-2.367,-0.207 -2.793,-0.868 -4.65,-2.168l-7.955,-7.955c-1.004,-1.434 -2.018,-2.933 -2.168,-4.65c-0.231,-2.645 1.053,-5.315 3.17,-6.797c1.946,-1.362 2.697,-1.13 4.955,-1.328c0.839,0.225 1.678,0.45 2.516,0.674Zm-52.579,-5.464c1.443,0.991 2.919,2.039 3.662,3.594c1.145,2.396 0.878,5.346 -0.584,7.477c-0.491,0.716 -1.216,1.239 -1.824,1.859l-9.155,6.539c-2.045,0.977 -2.574,1.559 -4.943,1.374c-4.255,-0.332 -7.79,-5.039 -6.678,-9.35c0.593,-2.301 1.315,-2.612 2.903,-4.23l9.154,-6.539c2.338,-1.117 2.364,-1.124 4.943,-1.374c0.841,0.216 1.681,0.433 2.522,0.65Zm-82.474,-10.504c0.706,0.505 1.51,0.896 2.118,1.516c1.662,1.697 1.555,2.477 2.119,4.672l0.863,11.217c-0.222,2.256 0.003,3.01 -1.38,4.941c-2.485,3.471 -8.342,4.063 -11.457,0.882c-1.662,-1.698 -1.556,-2.477 -2.119,-4.672l-0.863,-11.217c0.171,-1.742 0.377,-3.541 1.38,-4.942c1.026,-1.433 2.525,-2.459 4.233,-2.898c1.668,-0.428 3.42,0.03 5.106,0.501Zm-61.134,-0.218l2.134,1.494l7.955,7.955c1.3,1.856 1.961,2.283 2.168,4.649c0.372,4.253 -3.689,8.513 -8.125,8.125c-2.366,-0.207 -2.793,-0.868 -4.649,-2.168l-7.955,-7.955c-1.526,-2.179 -2.599,-4.792 -1.942,-7.244c0.457,-1.703 1.499,-3.191 2.943,-4.203c1.946,-1.362 2.697,-1.13 4.956,-1.328c0.838,0.225 1.677,0.45 2.515,0.675Zm148.458,-31.543l2.133,1.494l7.955,7.955l0.401,0.573l-0.088,-1.153c0.221,-2.256 -0.003,-3.009 1.38,-4.941c2.947,-4.117 10.643,-3.768 12.928,1.268c0.912,2.011 0.921,6.078 1.049,7.739c0,0 3.628,0.08 5.642,2.132c1.86,1.895 2.565,4.773 1.873,7.263c-0.576,2.072 -2.969,4.934 -3.969,6.334l4.649,4.65c1.3,1.856 1.961,2.283 2.168,4.649c0.442,5.045 -5.629,9.788 -10.641,7.451c-2.207,-1.029 -5.866,-5.227 -6.783,-6.143l-3.984,2.846c-2.046,0.977 -2.575,1.559 -4.943,1.374c-3.792,-0.296 -7.112,-3.794 -6.802,-7.766l-7.722,-0.594c-2.195,-0.564 -2.974,-0.457 -4.672,-2.119c-3.626,-3.551 -2.13,-11.086 3.23,-12.583c1.872,-0.522 4.456,-0.111 6.251,0.027l-0.573,-0.401l-7.955,-7.955l-1.494,-2.133c-0.225,-0.839 -0.599,-1.651 -0.674,-2.516c-0.31,-3.537 2.202,-7.007 5.53,-7.898c1.664,-0.446 3.42,-0.006 5.111,0.447Zm87.194,19.309c0.786,0.37 1.648,0.609 2.357,1.109c1.441,1.017 2.478,2.508 2.929,4.213c0.222,0.839 0.145,1.73 0.218,2.595l-1.019,11.204c-0.594,2.188 -0.498,2.968 -2.184,4.642c-3.038,3.019 -8.888,2.635 -11.443,-1.04c-1.356,-1.951 -1.121,-2.701 -1.311,-4.96l1.019,-11.204c0.227,-0.838 0.313,-1.728 0.682,-2.513c0.751,-1.596 2.04,-2.876 3.64,-3.616c1.564,-0.722 3.369,-0.588 5.112,-0.43Zm-113.231,-0.86c2.196,0.564 2.975,0.458 4.672,2.12c3.06,2.996 2.758,8.851 -0.881,11.456c-1.932,1.383 -2.685,1.159 -4.941,1.38l-11.217,-0.863c-2.196,-0.563 -2.975,-0.457 -4.672,-2.119c-3.163,-3.097 -2.685,-8.904 0.881,-11.457c1.931,-1.383 2.685,-1.158 4.941,-1.379c3.739,0.287 7.478,0.575 11.217,0.862Zm-33.651,-2.588c2.196,0.564 2.975,0.457 4.673,2.119c3.049,2.987 2.739,8.865 -0.882,11.457c-1.931,1.383 -2.685,1.158 -4.941,1.38l-11.217,-0.863c-2.196,-0.564 -2.975,-0.457 -4.672,-2.119c-3.089,-3.026 -2.73,-8.872 0.881,-11.457c1.932,-1.383 2.686,-1.159 4.942,-1.38c3.738,0.288 7.477,0.575 11.216,0.863Zm-111.061,-39.178c2.408,1.132 4.637,2.867 5.286,5.321c0.468,1.773 0.104,3.85 -0.056,5.605l0.074,-0.103c1.617,-1.588 1.929,-2.31 4.23,-2.903c4.133,-1.066 9.003,2.24 9.35,6.679c0.185,2.368 -0.397,2.897 -1.374,4.943l-6.539,9.154c-1.524,1.495 -1.448,1.638 -3.391,2.522l2.53,0.194c0.841,0.216 1.732,0.289 2.523,0.648c4.784,2.17 5.707,9.75 1.267,12.928c-0.956,0.685 -2.086,1.1 -3.314,1.221l-0.13,1.479c-0.367,0.787 -0.602,1.65 -1.1,2.361c-2.037,2.908 -6.191,3.951 -9.314,2.495c-0.787,-0.367 -1.422,-0.996 -2.133,-1.494l-7.955,-7.955c-1.3,-1.857 -1.961,-2.283 -2.168,-4.649c-0.31,-3.537 2.202,-7.007 5.53,-7.898c2.046,-0.549 2.344,-0.295 4.019,0.154l1.558,-0.152l2.202,0.169l-1.58,-1.129c-1.179,-1.717 -1.348,-1.659 -1.868,-3.676c0,0 -2.909,0.099 -4.953,-1.344c-1.441,-1.016 -2.478,-2.507 -2.929,-4.212c-0.222,-0.839 -0.145,-1.73 -0.218,-2.596l1.018,-11.203c0.228,-0.838 0.314,-1.728 0.683,-2.514c0.751,-1.596 2.04,-2.876 3.64,-3.615c1.564,-0.723 3.369,-0.589 5.112,-0.43Zm80.836,21.427c0.706,0.506 1.511,0.896 2.118,1.517c1.662,1.697 1.556,2.476 2.119,4.672l0.863,11.217c-0.253,2.578 -0.26,2.605 -1.38,4.941l-0.314,0.307l-0.142,1.851l-1.076,2.372c-0.607,0.621 -1.116,1.356 -1.822,1.861c-1.932,1.383 -2.686,1.159 -4.942,1.38l-11.217,-0.863c-2.195,-0.563 -2.974,-0.457 -4.672,-2.119c-3.626,-3.551 -2.13,-11.085 3.231,-12.582c2.007,-0.561 5.315,-0.045 7.077,0.091l-0.562,-7.306c0.085,-0.864 0.021,-1.756 0.255,-2.592c0.714,-2.558 2.855,-4.605 5.358,-5.248c1.669,-0.428 3.42,0.03 5.106,0.501Zm-37.076,12.574c2.196,0.564 2.975,0.457 4.672,2.119c3.05,2.987 2.739,8.865 -0.881,11.457c-1.932,1.383 -2.685,1.158 -4.941,1.38l-11.217,-0.863c-2.196,-0.564 -2.975,-0.457 -4.672,-2.119c-3.061,-2.997 -2.758,-8.852 0.881,-11.457c1.932,-1.383 2.685,-1.159 4.941,-1.38c3.739,0.288 7.478,0.575 11.217,0.863Zm137.918,8.37l-1.842,1.842l-0.72,0.335l1.769,0.455l2.17,1.5l-0.395,-0.577c-0.51,-1.99 -0.605,-1.977 -0.763,-4.026c-0.073,0.157 -0.146,0.314 -0.219,0.471Zm79.321,-33.356c0.786,0.37 1.647,0.608 2.357,1.109c1.441,1.016 2.478,2.508 2.928,4.212c0.222,0.84 0.146,1.731 0.218,2.596l-1.018,11.204c-0.594,2.187 -0.498,2.968 -2.184,4.642c-3.029,3.008 -8.902,2.616 -11.443,-1.04c-1.356,-1.951 -1.122,-2.701 -1.311,-4.96l1.018,-11.204c0.228,-0.838 0.313,-1.728 0.683,-2.514c0.75,-1.595 2.039,-2.875 3.64,-3.615c1.563,-0.723 3.369,-0.588 5.112,-0.43Zm-41.353,0.392c0.707,0.504 1.511,0.894 2.12,1.514c1.86,1.895 2.565,4.772 1.873,7.262c-0.233,0.837 -0.749,1.567 -1.123,2.35l-6.539,9.155c-1.618,1.588 -1.93,2.31 -4.23,2.903c-4.148,1.07 -9.002,-2.217 -9.35,-6.679c-0.185,-2.368 0.397,-2.897 1.374,-4.943l6.539,-9.154c0.619,-0.608 1.143,-1.333 1.859,-1.825c1.958,-1.344 2.708,-1.105 4.967,-1.281c0.837,0.233 1.673,0.465 2.51,0.698Zm-72.762,-9.955l2.134,1.494l7.954,7.955c1.301,1.857 1.962,2.283 2.169,4.65c0.373,4.266 -3.667,8.515 -8.125,8.125c-2.367,-0.207 -2.793,-0.868 -4.65,-2.169l-7.955,-7.954c-1.004,-1.434 -2.018,-2.934 -2.168,-4.65c-0.232,-2.646 1.053,-5.315 3.169,-6.797c1.946,-1.363 2.698,-1.131 4.956,-1.328c0.839,0.224 1.677,0.449 2.516,0.674Zm42.396,-8.255c0.706,0.505 1.51,0.896 2.118,1.516c1.662,1.697 1.555,2.477 2.119,4.672l0.863,11.217c-0.221,2.256 0.003,3.01 -1.38,4.941c-2.485,3.471 -8.341,4.063 -11.457,0.882c-1.662,-1.698 -1.555,-2.477 -2.119,-4.672l-0.863,-11.217c0.085,-0.864 0.021,-1.756 0.255,-2.593c0.714,-2.557 2.855,-4.604 5.358,-5.247c1.669,-0.428 3.42,0.03 5.106,0.501Zm-111.032,-3.42c0.706,0.505 1.51,0.896 2.118,1.516c1.662,1.697 1.555,2.476 2.119,4.672l0.863,11.217c-0.222,2.256 0.003,3.01 -1.38,4.941c-2.485,3.471 -8.342,4.063 -11.457,0.882c-1.662,-1.698 -1.556,-2.477 -2.119,-4.673l-0.863,-11.216c0.085,-0.865 0.021,-1.757 0.254,-2.593c0.714,-2.557 2.856,-4.605 5.359,-5.247c1.668,-0.428 3.42,0.03 5.106,0.501Zm161.015,-5.834c1.424,1.018 2.88,2.094 3.593,3.662c0.73,1.605 0.872,3.416 0.399,5.115c-0.232,0.836 -0.748,1.566 -1.122,2.35l-6.539,9.154c-1.618,1.588 -1.93,2.31 -4.23,2.903c-4.148,1.07 -9.002,-2.217 -9.351,-6.678c-0.185,-2.369 0.397,-2.898 1.375,-4.943l6.539,-9.155c1.617,-1.588 1.929,-2.31 4.229,-2.903c1.669,-0.43 3.42,0.026 5.107,0.495Zm-205.006,-0.991c0.706,0.504 1.511,0.894 2.119,1.514c1.86,1.895 2.566,4.772 1.873,7.262c-0.232,0.837 -0.748,1.567 -1.123,2.35l-6.539,9.155c-1.617,1.588 -1.929,2.31 -4.229,2.903c-4.187,1.08 -9.005,-2.251 -9.351,-6.679c-0.185,-2.368 0.397,-2.897 1.374,-4.943l6.539,-9.154c1.618,-1.588 1.93,-2.31 4.23,-2.903c1.668,-0.431 3.42,0.026 5.107,0.495Zm229.798,-5.548c0.785,0.369 1.647,0.608 2.357,1.108c1.44,1.017 2.477,2.508 2.928,4.213c0.222,0.839 0.145,1.73 0.218,2.596l-1.018,11.203c-0.595,2.188 -0.499,2.968 -2.184,4.643c-3.029,3.008 -8.902,2.615 -11.444,-1.041c-1.356,-1.95 -1.121,-2.701 -1.311,-4.96l1.019,-11.204c0.227,-0.837 0.313,-1.728 0.682,-2.513c0.751,-1.596 2.04,-2.876 3.64,-3.616c1.564,-0.722 3.369,-0.588 5.113,-0.429Zm-141.036,0.183l2.134,1.494l7.955,7.955c1.3,1.857 1.961,2.283 2.168,4.65c0.372,4.252 -3.69,8.513 -8.125,8.125c-2.367,-0.207 -2.793,-0.868 -4.65,-2.168l-7.955,-7.955c-1.004,-1.434 -2.018,-2.934 -2.168,-4.65c-0.232,-2.645 1.053,-5.315 3.17,-6.797c1.946,-1.363 2.697,-1.131 4.955,-1.328c0.839,0.225 1.677,0.449 2.516,0.674Zm-119.963,-9.199c0.786,0.37 1.647,0.609 2.357,1.109c1.441,1.016 2.478,2.508 2.928,4.213c0.222,0.839 0.146,1.73 0.218,2.595l-1.018,11.204c-0.594,2.188 -0.498,2.968 -2.184,4.642c-3.029,3.008 -8.902,2.616 -11.443,-1.04c-1.356,-1.951 -1.122,-2.701 -1.311,-4.96l1.018,-11.204c0.228,-0.838 0.313,-1.728 0.683,-2.513c0.75,-1.596 2.039,-2.876 3.64,-3.616c1.563,-0.723 3.369,-0.588 5.112,-0.43Zm183.635,-8.842c0.706,0.506 1.511,0.896 2.118,1.517c1.662,1.697 1.556,2.476 2.12,4.672l0.862,11.217c-0.221,2.256 0.004,3.009 -1.379,4.941c-2.485,3.471 -8.342,4.062 -11.457,0.881c-1.662,-1.697 -1.556,-2.476 -2.119,-4.672l-0.863,-11.217c0.171,-1.742 0.377,-3.54 1.38,-4.941c1.026,-1.434 2.525,-2.46 4.233,-2.899c1.668,-0.428 3.419,0.03 5.105,0.501Zm-111.032,-3.42c1.843,1.32 2.608,1.502 3.59,3.666c0.358,0.79 0.431,1.682 0.647,2.522l0.863,11.217c-0.221,2.256 0.003,3.01 -1.38,4.942c-2.485,3.47 -8.341,4.062 -11.456,0.881c-1.663,-1.697 -1.556,-2.477 -2.12,-4.672l-0.863,-11.217c0.085,-0.864 0.021,-1.756 0.255,-2.592c0.714,-2.558 2.855,-4.605 5.358,-5.248c1.669,-0.428 3.42,0.03 5.106,0.501Zm191.451,-12.334c0.786,0.37 1.648,0.609 2.357,1.109c1.441,1.016 2.478,2.508 2.928,4.213c0.222,0.839 0.146,1.73 0.219,2.595l-1.019,11.204c-0.227,0.838 -0.313,1.728 -0.683,2.514c-1.662,3.534 -5.834,5.417 -10.057,3.431l-5.645,7.903c-1.617,1.588 -1.929,2.31 -4.23,2.903c-4.147,1.07 -9.002,-2.217 -9.35,-6.679c-0.185,-2.368 0.397,-2.897 1.374,-4.943l6.539,-9.154c0.62,-0.608 1.143,-1.333 1.859,-1.825c1.959,-1.344 2.708,-1.105 4.968,-1.281l0.792,0.22l0.513,-5.651l0.683,-2.514c1.306,-1.852 1.483,-2.618 3.64,-3.615c1.564,-0.723 3.369,-0.588 5.112,-0.43Zm-213.237,11.696c1.425,1.018 2.881,2.094 3.594,3.662c0.73,1.605 0.871,3.416 0.399,5.115c-0.232,0.836 -0.748,1.566 -1.123,2.35l-6.539,9.154c-1.618,1.588 -1.929,2.31 -4.23,2.903c-4.133,1.066 -9.004,-2.239 -9.35,-6.678c-0.185,-2.369 0.397,-2.898 1.374,-4.943l6.539,-9.155c1.618,-1.588 1.93,-2.31 4.23,-2.903c1.668,-0.43 3.42,0.026 5.106,0.495Zm45.281,-1.766l2.134,1.494l7.955,7.955c1.3,1.857 1.961,2.283 2.168,4.65c0.372,4.252 -3.69,8.513 -8.125,8.125c-2.367,-0.207 -2.793,-0.868 -4.65,-2.168l-7.955,-7.955c-1.526,-2.179 -2.598,-4.792 -1.941,-7.245c0.456,-1.703 1.498,-3.191 2.943,-4.202c1.946,-1.363 2.697,-1.13 4.955,-1.328c0.839,0.225 1.678,0.449 2.516,0.674Zm-93.042,-18.945c0.785,0.37 1.647,0.608 2.356,1.109c1.441,1.016 2.478,2.508 2.929,4.212c0.222,0.84 0.145,1.731 0.218,2.596l-1.018,11.204c-0.595,2.187 -0.499,2.968 -2.184,4.642c-3.029,3.008 -8.902,2.615 -11.444,-1.04c-1.356,-1.951 -1.121,-2.702 -1.311,-4.96l1.019,-11.204c0.227,-0.838 0.313,-1.728 0.682,-2.514c0.751,-1.595 2.04,-2.875 3.64,-3.615c1.564,-0.723 3.369,-0.589 5.113,-0.43Zm243.909,-10.188l2.134,1.494l7.955,7.955c1.3,1.857 1.961,2.283 2.168,4.65c0.299,3.423 -2.149,6.992 -5.53,7.898c-2.295,0.615 -2.922,0.14 -5.111,-0.447l-0.585,-0.41l0.475,1.701l-0.2,2.597c-0.358,0.79 -0.585,1.655 -1.076,2.372c-0.996,1.455 -2.473,2.512 -4.171,2.986c-0.836,0.234 -1.728,0.17 -2.592,0.255l-11.217,-0.863c-2.196,-0.564 -2.975,-0.457 -4.672,-2.119c-3.09,-3.026 -2.73,-8.872 0.881,-11.457c1.932,-1.383 2.685,-1.159 4.941,-1.38l11.217,0.863l1.216,0.312l-4.306,-4.306c-1.004,-1.434 -2.018,-2.934 -2.168,-4.65c-0.231,-2.645 1.053,-5.315 3.17,-6.797c1.946,-1.363 2.697,-1.13 4.955,-1.328c0.839,0.225 1.678,0.45 2.516,0.674Zm-39.034,13.506c2.196,0.564 2.975,0.457 4.673,2.12c3.06,2.996 2.757,8.851 -0.882,11.456c-1.931,1.383 -2.685,1.159 -4.941,1.38l-11.217,-0.863c-2.195,-0.563 -2.975,-0.457 -4.672,-2.119c-3.05,-2.987 -2.739,-8.865 0.881,-11.457c1.932,-1.383 2.686,-1.158 4.942,-1.38c3.739,0.288 7.478,0.576 11.216,0.863Zm-128.47,-16.669c1.443,0.991 2.919,2.039 3.662,3.594c1.145,2.396 0.878,5.347 -0.584,7.477c-0.823,1.199 -2.339,2.227 -2.339,2.227l-0.176,2.285l2.298,2.297c1.3,1.857 1.961,2.283 2.168,4.65c0.441,5.044 -5.629,9.788 -10.641,7.451c-1.676,-0.781 -3.081,-2.441 -4.333,-3.693l-2.468,0.195l-0.283,0.397c-1.618,1.588 -1.929,2.31 -4.23,2.903c-4.133,1.066 -9.004,-2.24 -9.35,-6.679c-0.185,-2.368 0.397,-2.897 1.374,-4.943l6.539,-9.154l1.059,-1.046l0.685,-0.698l9.154,-6.539c2.338,-1.117 2.365,-1.124 4.943,-1.374c0.841,0.217 1.681,0.433 2.522,0.65Zm101.586,4.47c0.706,0.505 1.51,0.896 2.118,1.516c1.662,1.697 1.555,2.476 2.119,4.672l0.863,11.217c-0.085,0.864 -0.021,1.756 -0.254,2.592c-0.955,3.42 -4.527,5.784 -7.956,5.447c-1.403,-0.137 -3.003,-1.054 -3.003,-1.054l-1.804,0.177l-11.216,-0.863c-2.196,-0.564 -2.975,-0.457 -4.673,-2.12c-3.06,-2.996 -2.757,-8.851 0.882,-11.456c3.624,-2.595 8.058,-1.14 12.358,-0.81l-0.153,-1.979c0.171,-1.743 0.377,-3.541 1.38,-4.942c1.026,-1.433 2.525,-2.46 4.233,-2.898c1.669,-0.429 3.42,0.03 5.106,0.501Zm-40.417,7.022c2.196,0.564 2.975,0.457 4.672,2.119c3.05,2.987 2.739,8.865 -0.881,11.457c-1.931,1.383 -2.685,1.159 -4.941,1.38l-11.217,-0.863c-2.196,-0.563 -2.975,-0.457 -4.672,-2.119c-3.05,-2.987 -2.739,-8.865 0.881,-11.457c1.932,-1.383 2.685,-1.158 4.941,-1.38c3.739,0.288 7.478,0.576 11.217,0.863Zm-33.65,-2.588c2.195,0.563 2.974,0.457 4.672,2.119c3.05,2.987 2.739,8.865 -0.881,11.457c-1.932,1.383 -2.686,1.158 -4.942,1.38l-11.217,-0.863c-2.195,-0.564 -2.974,-0.457 -4.672,-2.12c-3.163,-3.097 -2.684,-8.904 0.882,-11.456c1.931,-1.383 2.685,-1.159 4.941,-1.38c3.739,0.288 7.478,0.575 11.217,0.863Zm-58.612,-24.337l2.134,1.494l7.955,7.954c1.3,1.857 1.961,2.283 2.168,4.65c0.372,4.252 -3.689,8.513 -8.125,8.125c-2.367,-0.207 -2.793,-0.868 -4.65,-2.168l-7.954,-7.955c-1.301,-1.857 -1.962,-2.283 -2.169,-4.65c-0.309,-3.536 2.203,-7.006 5.531,-7.898c1.664,-0.445 3.42,-0.006 5.11,0.448Zm-42.257,-4.827c0.786,0.369 1.648,0.608 2.357,1.108c1.441,1.017 2.478,2.508 2.928,4.213c0.222,0.839 0.146,1.73 0.219,2.595l-1.019,11.204c-0.594,2.188 -0.498,2.968 -2.184,4.642c-3.039,3.019 -8.889,2.635 -11.443,-1.04c-1.356,-1.95 -1.121,-2.701 -1.311,-4.96l1.018,-11.204c0.228,-0.838 0.313,-1.728 0.683,-2.513c0.751,-1.596 2.039,-2.876 3.64,-3.616c1.564,-0.722 3.369,-0.588 5.112,-0.429Zm216.989,-0.442l2.134,1.494l7.955,7.955c1.3,1.857 1.961,2.283 2.168,4.65c0.372,4.252 -3.689,8.513 -8.125,8.125c-2.367,-0.207 -2.793,-0.868 -4.65,-2.168l-7.955,-7.955c-1.525,-2.179 -2.598,-4.792 -1.941,-7.244c0.457,-1.704 1.498,-3.192 2.943,-4.203c1.946,-1.363 2.697,-1.13 4.955,-1.328c0.839,0.225 1.678,0.45 2.516,0.674Zm-116.175,1.086c1.443,0.99 2.919,2.039 3.661,3.593c1.145,2.396 0.879,5.347 -0.583,7.477c-0.492,0.716 -1.217,1.24 -1.825,1.859l-9.154,6.539c-2.046,0.977 -2.575,1.559 -4.943,1.374c-4.256,-0.332 -7.791,-5.038 -6.679,-9.35c0.593,-2.3 1.315,-2.612 2.903,-4.23l9.155,-6.539c2.337,-1.117 2.364,-1.124 4.943,-1.374c0.84,0.217 1.681,0.434 2.522,0.651Zm71.533,-9.565c0.706,0.505 1.511,0.896 2.118,1.516c1.662,1.698 1.556,2.477 2.12,4.672l0.862,11.217c-0.221,2.256 0.004,3.01 -1.379,4.942c-2.485,3.47 -8.342,4.062 -11.457,0.881c-1.662,-1.697 -1.556,-2.477 -2.119,-4.672l-0.863,-11.217c0.085,-0.864 0.02,-1.756 0.254,-2.592c0.714,-2.558 2.856,-4.605 5.359,-5.248c1.668,-0.428 3.419,0.03 5.105,0.501Zm-153.954,-10.117l2.133,1.494l7.955,7.955c1.3,1.856 1.961,2.283 2.168,4.649c0.372,4.253 -3.689,8.513 -8.125,8.125c-2.366,-0.207 -2.793,-0.868 -4.649,-2.168l-7.955,-7.955c-0.498,-0.711 -1.127,-1.347 -1.494,-2.133c-1.501,-3.218 -0.327,-7.337 2.495,-9.314c1.946,-1.362 2.697,-1.13 4.956,-1.327c0.838,0.224 1.677,0.449 2.516,0.674Zm109.884,0.065c1.443,0.99 2.919,2.039 3.662,3.593c1.145,2.396 0.878,5.347 -0.584,7.477c-0.491,0.716 -1.216,1.24 -1.824,1.859l-9.155,6.539c-2.045,0.978 -2.574,1.56 -4.943,1.375c-4.255,-0.332 -7.79,-5.039 -6.678,-9.351c0.593,-2.3 1.315,-2.612 2.903,-4.23l9.154,-6.539c2.338,-1.116 2.365,-1.124 4.943,-1.374c0.841,0.217 1.681,0.434 2.522,0.651Zm64.847,-5.333l2.134,1.494l7.955,7.955c1.3,1.856 1.961,2.283 2.168,4.649c0.374,4.267 -3.666,8.515 -8.125,8.125c-2.366,-0.207 -2.793,-0.868 -4.649,-2.168l-7.955,-7.955c-1.004,-1.434 -2.018,-2.933 -2.169,-4.649c-0.231,-2.646 1.053,-5.316 3.17,-6.798c1.946,-1.362 2.697,-1.13 4.956,-1.328c0.838,0.225 1.677,0.45 2.515,0.675Zm-176.411,-10.565c2.058,0.951 2.843,0.987 4.212,2.928c2.469,3.501 1.114,9.204 -2.936,11.109c-2.347,1.105 -9.1,1.282 -9.996,1.363l-0.452,4.98c-0.594,2.187 -0.499,2.968 -2.184,4.642c-3.039,3.018 -8.889,2.635 -11.444,-1.04c-1.356,-1.951 -1.121,-2.701 -1.311,-4.96l1.019,-11.204c0.227,-0.838 0.313,-1.728 0.682,-2.514c1.267,-2.692 3.929,-4.483 7.38,-4.17l1.231,-0.334l11.203,-1.018c0.866,0.072 1.731,0.145 2.596,0.218Zm152.547,-13.3l2.133,1.494l7.955,7.955c1.3,1.857 1.961,2.283 2.168,4.649c0.336,3.834 -2.391,7.624 -6.727,8.003l0.07,0.904c-0.221,2.256 0.003,3.009 -1.38,4.941c-2.954,4.126 -10.629,3.801 -12.928,-1.268c-0.9,-1.983 -0.905,-5.866 -1.035,-7.558l-0.697,1.532l-1.825,1.859l-9.154,6.539c-2.046,0.977 -2.575,1.559 -4.943,1.374c-4.311,-0.337 -7.788,-5.05 -6.679,-9.35c0.593,-2.301 1.315,-2.613 2.903,-4.23c0,0 -2.999,-0.246 -2.999,-0.246c-2.058,-0.951 -2.844,-0.987 -4.213,-2.928c-1.98,-2.808 -1.659,-7.124 0.808,-9.608c1.674,-1.686 2.455,-1.59 4.642,-2.184l11.204,-1.019c1.744,0.147 3.545,0.328 4.96,1.311c2.428,1.688 3.749,4.681 2.903,7.882l1.462,1.003l1.176,1.645l0.229,-2.733c-0.453,-1.691 -0.893,-3.447 -0.447,-5.111c0.687,-2.565 2.807,-4.635 5.303,-5.303c1.664,-0.446 3.42,-0.006 5.111,0.447Zm-118.936,10.244c2.058,0.951 2.844,0.987 4.213,2.929c1.98,2.808 1.659,7.124 -0.808,9.608c-1.674,1.685 -2.455,1.589 -4.642,2.184l-11.204,1.018c-2.259,-0.19 -3.009,0.045 -4.96,-1.311c-3.635,-2.527 -4.13,-8.332 -1.04,-11.443c1.674,-1.686 2.454,-1.59 4.642,-2.184l11.204,-1.019c0.865,0.073 1.73,0.146 2.595,0.218Zm33.612,-3.055c2.057,0.951 2.843,0.987 4.212,2.928c1.981,2.808 1.66,7.124 -0.807,9.608c-1.675,1.686 -2.455,1.59 -4.643,2.184l-11.204,1.019c-2.258,-0.19 -3.009,0.045 -4.96,-1.311c-3.504,-2.437 -4.178,-8.285 -1.04,-11.444c1.674,-1.685 2.455,-1.59 4.642,-2.184l11.204,-1.018c0.865,0.072 1.731,0.145 2.596,0.218Zm33.611,-3.056c2.058,0.951 2.843,0.987 4.213,2.929c1.98,2.808 1.659,7.124 -0.808,9.607c-1.674,1.686 -2.455,1.59 -4.642,2.184l-11.204,1.019c-2.259,-0.19 -3.009,0.045 -4.96,-1.311c-3.505,-2.437 -4.178,-8.284 -1.04,-11.444c1.674,-1.685 2.454,-1.589 4.642,-2.183l11.204,-1.019c0.865,0.073 1.73,0.145 2.595,0.218Z"/>
</svg>