<svg version="1.1" xmlns:serif="http://www.serif.com/"
	 xmlns="http://www.w3.org/2000/svg" xmlns:xlink="http://www.w3.org/1999/xlink" x="0px" y="0px" width="60" height="60"
	 viewBox="0 0 20 20" enable-background="new 0 0 20 20" xml:space="preserve">
<path d="M12.5,12c-0.276,0-0.5-0.224-0.5-0.5V3c-0.001-0.204-0.068-2-2-2C8.107,1,8.005,2.805,8,3.011V11.5
	C8,11.776,7.776,12,7.5,12S7,11.776,7,11.5V3c0.018-1.043,0.668-3,3-3c0.878,0,1.591,0.268,2.118,0.797
	C12.993,1.675,13,2.948,13,3.001V11.5C13,11.776,12.776,12,12.5,12z"/>
<path d="M5.5,20C5.224,20,5,19.776,5,19.5V16c-0.001-0.204-0.068-2-2-2c-1.893,0-1.995,1.805-2,2.011V19.5C1,19.776,0.776,20,0.5,20
	S0,19.776,0,19.5V16c0.018-1.043,0.668-3,3-3c0.878,0,1.591,0.269,2.118,0.797C5.994,14.675,6,15.947,6,16.001V19.5
	C6,19.776,5.776,20,5.5,20z"/>
<path d="M19.5,20c-0.276,0-0.5-0.224-0.5-0.5V16c-0.001-0.204-0.068-2-2-2c-1.893,0-1.995,1.805-2,2.011V19.5
	c0,0.276-0.224,0.5-0.5,0.5S14,19.776,14,19.5V16c0.019-1.043,0.669-3,3-3c0.878,0,1.591,0.269,2.118,0.797
	C19.993,14.675,20,15.947,20,16.001V19.5C20,19.776,19.776,20,19.5,20z"/>
</svg>
