<svg version="1.1" width="72" height="72" viewBox="0 0 512 512">
<path d="M251.278,183.243c-11.666,0-21.157,9.491-21.157,21.157c0,4.356,3.529,7.885,7.885,7.885s7.885-3.529,7.885-7.885     c0-2.971,2.417-5.388,5.388-5.388s5.388,2.417,5.388,5.388c0,4.356,3.529,7.885,7.885,7.885c4.356,0,7.885-3.529,7.885-7.885     C272.436,192.734,262.944,183.243,251.278,183.243z"/>
<path d="M368.861,183.243c-9.244,0-17.103,5.969-19.975,14.249c-8.844-8.486-20.042-14.323-32.361-16.609     c-7.384-1.372-14.945,0.598-20.726,5.405s-9.096,11.874-9.096,19.392v19.565c0,7.28,3.158,14.185,8.665,18.946     c4.583,3.962,10.399,6.1,16.373,6.1c1.205,0,2.417-0.087,3.625-0.264c14.398-2.1,27.615-9.951,36.379-21.558     c3.386-0.527,6.414-2.554,8.152-5.569c2.032-3.526,2.026-7.904-0.016-11.423c-0.067-0.116-0.142-0.225-0.21-0.341     c2.276-1.382,3.802-3.878,3.802-6.737c0-2.971,2.417-5.388,5.388-5.388c2.97,0,5.387,2.417,5.387,5.388     c0,4.355,3.529,7.885,7.885,7.885c4.356,0,7.885-3.529,7.885-7.885C390.017,192.734,380.527,183.243,368.861,183.243z      M313.087,234.424c-2.707,0.396-5.337-0.372-7.406-2.162c-1.174-1.015-2.037-2.261-2.575-3.646h25.556     C323.96,231.596,318.649,233.612,313.087,234.424z M302.473,212.847v-7.168c0-2.817,1.243-5.466,3.408-7.267     c2.165-1.802,4.994-2.537,7.768-2.026c11.078,2.056,20.959,7.92,28.036,16.46H302.473z"/>
<path d="M292.189,60.352l3.283-29.106c0.896-7.94-1.645-15.912-6.97-21.871C283.178,3.418,275.542,0,267.551,0     c-7.991,0-15.627,3.418-20.952,9.375c-3.393,3.797-5.65,8.413-6.613,13.317c-4.644-3.97-10.498-6.367-16.687-6.715     c-7.977-0.452-15.793,2.535-21.444,8.184c-5.65,5.651-8.634,13.467-8.185,21.445c0.408,7.25,3.624,14.043,8.894,18.962     c-62.473,18.64-105.056,69.766-105.056,133.24c0,39.471,16.412,71.871,47.461,93.702c5.426,3.814,11.253,7.274,17.443,10.38     c-6.637,5.266-11.667,12.484-14.192,20.853l-24.11,79.923c-2.672,8.862,2.362,18.247,11.226,20.922     c0.652,0.197,1.306,0.378,1.961,0.549l-19.729,55.178c-2.673,7.478-1.54,15.82,3.035,22.314     c4.574,6.494,12.047,10.37,19.99,10.37h35.833c12.161,0,22.326-8.726,24.168-20.747l0.849-5.54h7.655     c0.071,0.002,0.144,0.003,0.214,0.003c0.066,0,0.139-0.001,0.211-0.003h44.213c0.071,0.002,0.144,0.003,0.214,0.003     c0.067,0,0.139-0.001,0.211-0.003h25.833c10.312,0,18.7-8.389,18.7-18.7s-8.388-18.7-18.7-18.7h-13.283l-2.777-7.101l1.784-6.365     c6.048-3.639,11.143-7.763,15.357-11.856c6.458,2.797,13.353,4.239,20.327,4.239c4.12,0,8.265-0.499,12.359-1.506     c4.354-1.072,8.032-3.775,10.353-7.611c2.321-3.837,3.009-8.349,1.938-12.704l-15.26-62.009     c0.237-10.927-0.374-19.864-1.863-27.371c22.341-4.94,41.979-13.179,58.101-24.514c31.05-21.831,47.461-54.232,47.461-93.702     C414.492,128.651,363.943,74.143,292.189,60.352z M258.357,19.883c2.371-2.652,5.636-4.114,9.193-4.114s6.823,1.461,9.193,4.114     c2.371,2.652,3.457,6.062,3.057,9.596l-3.221,28.557c-5.942-0.627-12.008-0.975-18.178-1.048l-3.103-27.508     C254.901,25.945,255.987,22.536,258.357,19.883z M213.006,35.314c2.516-2.517,5.86-3.787,9.408-3.592     c3.553,0.2,6.73,1.843,8.95,4.625l10.297,12.916l0.921,8.159c-7.05,0.478-13.94,1.334-20.652,2.542l-7.892-6.292     c-2.782-2.217-4.424-5.396-4.624-8.949C209.215,41.17,210.49,37.828,213.006,35.314z M139.208,407.222l24.11-79.922     c2.543-8.433,9.143-15.007,17.486-17.603c8.595,3.043,17.723,5.51,27.321,7.386c8.19,8.977,9.258,22.725,2.266,32.862     l-30.781,44.631c-8.843,12.824-24.805,18.416-39.719,13.918C139.352,408.331,139.046,407.76,139.208,407.222z M185.005,488.865     c-0.655,4.268-4.264,7.366-8.582,7.366H140.59c-2.863,0-5.45-1.341-7.098-3.683c-1.648-2.34-2.041-5.227-1.077-7.921     l21.069-58.922c2.158-0.135,4.297-0.413,6.407-0.815c4.82,6.933,11.881,12.226,21.087,15.823     c-0.22,2.809,0.178,5.661,1.207,8.294l0.437,1.12c-6.302,3.01-10.668,9.448-10.668,16.887c0,8.557,5.785,15.773,13.645,17.986     L185.005,488.865z M235.355,469.943h-44.701c-1.616,0-2.931-1.315-2.931-2.931c0-1.616,1.315-2.931,2.931-2.931h2.81     c2.606,0,5.043-1.288,6.512-3.44c1.469-2.152,1.78-4.891,0.831-7.318l-3.936-10.063c-0.23-0.589-0.263-1.249-0.093-1.858     l4.315-15.394c0.285-1.018,0.99-1.542,1.386-1.765c0.394-0.222,1.212-0.552,2.227-0.267c1.018,0.286,1.542,0.99,1.764,1.386     c0.223,0.395,0.552,1.21,0.268,2.228l-3.337,11.906c-0.461,1.648-0.374,3.404,0.249,4.999l5.699,14.571     c1.182,3.023,4.096,5.014,7.342,5.014h18.664c1.616,0,2.931,1.315,2.931,2.931C238.286,468.628,236.971,469.943,235.355,469.943z      M221.437,446.684c0.053,0,0.103,0.001,0.156,0.001c1.523,0,3.012-0.045,4.483-0.114c0.141,0.589,0.313,1.169,0.511,1.741h-4.512     L221.437,446.684z M279.995,464.08c1.616,0,2.931,1.315,2.931,2.931c0,1.616-1.315,2.931-2.931,2.931h-26.193     c0.151-0.958,0.253-1.931,0.253-2.931c0-7.03-3.903-13.16-9.652-16.354l-2.438-6.236c2.027-0.468,3.995-0.997,5.899-1.585     c0.088,0.564,0.214,1.122,0.425,1.659l5.699,14.572c1.182,3.023,4.096,5.014,7.342,5.014H279.995z M273.766,407.841     c-9.309,10.452-25.807,22.892-51.631,23.065c1.024-4.524,0.369-9.199-1.921-13.27c-2.447-4.355-6.445-7.495-11.254-8.842     c-4.811-1.35-9.856-0.742-14.21,1.705c-4.355,2.448-7.496,6.445-8.842,11.255l-0.992,3.543c-3.78-1.668-6.884-3.725-9.352-6.178     c6.621-3.754,12.482-8.999,17.028-15.59l30.781-44.631c8.018-11.625,9.395-26.227,4.693-38.842     c8.992,0.947,18.317,1.429,27.936,1.429c13.05,0,25.555-0.888,37.421-2.623c1.984,9.849,2.172,23.408,0.619,41.876     C292.604,377.818,285.215,394.987,273.766,407.841z M310.741,409.174c0.135,0.548-0.201,1.102-0.747,1.235     c-6.001,1.48-12.165,1.367-17.992-0.244c5.404-7.642,9.751-16.145,12.819-25.044L310.741,409.174z M357.961,278.612     c-25.219,17.731-60.477,27.103-101.961,27.103s-76.742-9.372-101.961-27.103c-27.049-19.016-40.761-46.201-40.761-80.801     c0-34.989,14.693-66.904,41.371-89.862c26.388-22.71,62.382-35.216,101.352-35.216s74.965,12.506,101.352,35.216     c26.679,22.959,41.371,54.873,41.371,89.862C398.723,232.41,385.01,259.596,357.961,278.612z"/>
</svg>