<?xml version="1.0" encoding="UTF-8" standalone="no"?>
<!DOCTYPE svg PUBLIC "-//W3C//DTD SVG 1.1//EN" "http://www.w3.org/Graphics/SVG/1.1/DTD/svg11.dtd">
<svg width="64" height="64" viewBox="0 0 64 64" version="1.1" xmlns="http://www.w3.org/2000/svg" xmlns:xlink="http://www.w3.org/1999/xlink" xml:space="preserve" xmlns:serif="http://www.serif.com/" style="fill-rule:evenodd;clip-rule:evenodd;stroke-linejoin:round;stroke-miterlimit:1.41421;">
    <path d="M12.542,50.007c0.767,0.029 1.431,0.748 1.46,1.521c0,-0.036 -0.001,9.117 -0.001,9.116c-0.047,0.742 -0.675,1.316 -1.421,1.363c-0.018,0.001 -9.138,0.001 -9.154,0c-0.742,-0.047 -1.374,-0.616 -1.421,-1.363c0.001,0.022 0,-9.145 0,-9.154c0.047,-0.741 0.676,-1.436 1.421,-1.483c0.041,-0.001 9.148,0.001 9.116,0Zm15.997,-0.004c0.768,0.03 1.432,0.749 1.461,1.522c0,-0.037 -0.002,9.117 -0.001,9.115c-0.048,0.742 -0.675,1.316 -1.421,1.363c-0.018,0.001 -9.138,0.001 -9.155,0c-0.741,-0.047 -1.373,-0.616 -1.421,-1.363c0.001,0.022 0,-9.145 0,-9.154c0.047,-0.741 0.677,-1.435 1.421,-1.483c0.042,-0.001 9.149,0.001 9.116,0Zm15.998,-0.003c0.767,0.029 1.431,0.748 1.461,1.521c-0.001,-0.037 -0.002,9.117 -0.002,9.116c-0.047,0.741 -0.674,1.315 -1.421,1.363c-0.018,0 -9.138,0 -9.154,0c-0.741,-0.048 -1.374,-0.617 -1.421,-1.363c0.001,0.021 0,-9.146 0,-9.155c0.047,-0.74 0.676,-1.435 1.421,-1.482c0.041,-0.002 9.148,0 9.116,0Zm-31.976,11.006l0.009,-0.001l0.033,-0.003c0.332,-0.03 0.411,-0.054 0.426,-0.407c-0.004,-0.169 0.013,-8.673 0.019,-8.733c-0.004,-0.07 -0.016,-0.27 -0.021,-0.353c-0.032,-0.367 -0.128,-0.486 -0.496,-0.501c0.005,0 0.002,-0.001 -0.008,-0.001l0.008,0.001c-0.162,0.004 -9.408,-0.001 -9.023,-0.001c-0.393,0.005 -0.465,0.145 -0.48,0.53c0.005,0.123 0.029,9.242 0.008,9.119l-0.001,-0.009c0,0.005 0,0.008 0.001,0.009c0.032,0.357 0.074,0.338 0.437,0.352l9.097,-0.003l-6.153,0.002l-2.944,0.001l0.01,0l2.934,-0.001l6.144,-0.001Zm15.998,-0.004l0.008,0l0.033,-0.003c0.332,-0.031 0.412,-0.055 0.426,-0.407c-0.003,-0.169 0.013,-8.674 0.02,-8.733c-0.004,-0.07 -0.016,-0.271 -0.021,-0.354c-0.033,-0.367 -0.128,-0.485 -0.496,-0.501c0.004,0 0.001,0 -0.009,-0.001l0.009,0.001c-0.162,0.004 -9.409,-0.001 -9.024,-0.001c-0.392,0.005 -0.464,0.145 -0.48,0.53c0.006,0.123 0.03,9.243 0.008,9.119l-0.001,-0.008c0.001,0.004 0.001,0.007 0.001,0.008c0.033,0.358 0.075,0.339 0.438,0.352l9.096,-0.002l-6.153,0.001l-2.943,0.001l0.01,0l2.933,-0.001l6.145,-0.001Zm15.998,-0.003l0.008,-0.001l0.033,-0.003c0.332,-0.03 0.411,-0.054 0.426,-0.407c-0.003,-0.169 0.013,-8.674 0.019,-8.733c-0.004,-0.07 -0.015,-0.271 -0.021,-0.354c-0.032,-0.367 -0.127,-0.485 -0.496,-0.501c0.005,0 0.002,0 -0.008,0l0.008,0c-0.162,0.004 -9.408,-0.001 -9.023,-0.001c-0.393,0.005 -0.464,0.145 -0.48,0.531c0.006,0.122 0.029,9.242 0.008,9.119l-0.001,-0.009c0,0.004 0.001,0.007 0.001,0.009c0.032,0.357 0.074,0.338 0.438,0.351l9.096,-0.002l-6.153,0.002l-2.943,0l0.009,0l2.934,0l6.145,-0.001Zm-31.528,-0.404c0,0.006 0,0.003 0,-0.008l0,0.008Zm15.997,-0.003c0,0.005 0.001,0.002 0.001,-0.009l-0.001,0.009Zm15.998,-0.004c0,0.005 0,0.002 0,-0.009l0,0.009Zm-31.976,-8.726c0.002,0.03 0.002,0.036 0,0.001c0,-0.001 0,-0.001 0,-0.001Zm15.998,-0.003c0.001,0.029 0.002,0.035 0,0c0,-0.001 0,-0.001 0,0Zm15.997,-0.004c0.002,0.029 0.002,0.035 0,0.001c0,-0.002 0,-0.002 0,-0.001Zm-42.015,-0.318c-0.001,-0.003 -0.001,0 -0.001,0.01l0.001,-0.01Zm15.997,-0.004c0,-0.003 0,0 0,0.011l0,-0.011Zm15.998,-0.003c0,-0.004 0,0 -0.001,0.01l0.001,-0.01Zm9.491,-17.53c0.768,0.029 1.432,0.748 1.461,1.521c0,-0.036 -0.001,9.117 -0.001,9.116c-0.047,0.742 -0.675,1.316 -1.421,1.363c-0.018,0.001 -9.138,0.001 -9.154,0c-0.742,-0.047 -1.374,-0.617 -1.421,-1.363c0,0.022 -0.001,-9.146 0,-9.154c0.047,-0.741 0.676,-1.436 1.421,-1.483c0.041,-0.002 9.148,0 9.115,0Zm16.025,0c0.768,0.029 1.432,0.748 1.461,1.521c0,-0.037 -0.002,9.117 -0.001,9.116c-0.048,0.741 -0.675,1.315 -1.421,1.363c-0.018,0 -9.138,0 -9.155,0c-0.741,-0.048 -1.373,-0.617 -1.421,-1.363c0.001,0.021 0,-9.146 0,-9.155c0.047,-0.74 0.677,-1.435 1.421,-1.482c0.042,-0.002 9.149,0 9.116,0Zm-38.032,-20.002c-1.691,0 -3.077,0 -3.084,-0.001c-0.741,-0.047 -1.373,-0.616 -1.421,-1.363c0.001,0.022 0,-9.145 0,-9.154c0.047,-0.741 0.677,-1.435 1.421,-1.483c0.042,-0.001 9.149,0.001 9.116,0c0.768,0.03 1.432,0.749 1.461,1.522c0,-0.014 0,1.304 -0.001,2.943l4.004,0c-0.001,-1.646 -0.001,-2.976 -0.001,-2.98c0.047,-0.74 0.677,-1.435 1.421,-1.482c0.042,-0.002 9.149,0 9.116,0c0.768,0.029 1.432,0.748 1.461,1.521c0,-0.014 0,1.303 -0.001,2.941l4.004,0c-0.001,-1.645 -0.001,-2.974 -0.001,-2.977c0.047,-0.741 0.677,-1.436 1.421,-1.483c0.042,-0.002 9.149,0 9.116,0c0.768,0.029 1.432,0.748 1.461,1.521c0,-0.037 -0.002,9.117 -0.001,9.116c-0.048,0.741 -0.675,1.315 -1.421,1.363c-0.007,0 -1.415,0 -3.124,0l0,3.973c1.013,0.012 2.026,0.029 3.038,0.042c0.768,0.029 1.432,0.688 1.461,1.461c0.019,1.493 0.047,2.987 0.057,4.481c-0.241,-0.007 -0.77,-0.013 -1.01,-0.019c0.018,-1.496 0.095,-2.99 0,-4.482c-0.033,-0.369 -0.151,-0.444 -0.527,-0.458c-1.006,-0.013 -2.013,0 -3.019,0l0,5.826c1.516,0.017 3.032,0.062 4.547,0.133c0.377,0.054 0.572,0.505 0.338,0.817c-1.914,2.103 -4.021,4.024 -6.032,6.035c-0.193,0.176 -0.468,0.185 -0.673,0.031c-2.101,-1.916 -4.023,-4.02 -6.034,-6.031c-0.269,-0.296 -0.098,-0.794 0.306,-0.852c1.515,-0.071 3.031,-0.116 4.548,-0.133l0,-5.826c-0.999,0.004 -1.997,0 -2.996,0c-0.396,0.005 -0.443,0.104 -0.458,0.497c-0.019,1.48 0.019,2.962 0,4.443c-0.25,0.006 -0.88,0.012 -1.131,0.019l0,0.001c0,-0.354 0.001,-0.707 0.005,-1.061c0.01,-1.154 0.038,-2.307 0.082,-3.459c0.047,-0.742 0.674,-1.374 1.42,-1.421c1.026,-0.039 2.051,-0.057 3.078,-0.061l0,-3.956c-1.668,0 -3.024,0 -3.031,0c-0.741,-0.047 -1.373,-0.617 -1.421,-1.363c0.001,0.008 0.001,-1.435 0.001,-3.177l-4.004,0l0,3.175c-0.048,0.741 -0.675,1.315 -1.421,1.363c-0.018,0 -9.138,0 -9.155,0c-0.741,-0.048 -1.373,-0.617 -1.421,-1.363c0.001,0.008 0.001,-1.434 0.001,-3.175l-4.004,0l0,3.172c-0.048,0.742 -0.675,1.316 -1.421,1.363c-0.007,0.001 -1.391,0.001 -3.08,0.001l0,4.002c1.681,0.001 3.051,0.001 3.039,0.001c0.767,0.029 1.431,0.748 1.461,1.521c-0.001,-0.037 -0.002,9.117 -0.002,9.116c-0.047,0.741 -0.674,1.315 -1.421,1.363c-0.007,0 -1.389,0 -3.077,0l0,3.998c1.683,0 3.054,0.001 3.041,0.001c0.768,0.029 1.432,0.748 1.461,1.521c0,-0.037 -0.002,9.117 -0.001,9.116c-0.048,0.741 -0.675,1.315 -1.421,1.363c-0.018,0 -9.138,0 -9.155,0c-0.741,-0.048 -1.373,-0.617 -1.421,-1.363c0.001,0.021 0,-9.146 0,-9.155c0.047,-0.74 0.677,-1.435 1.421,-1.482c0.016,-0.001 1.395,-0.001 3.075,-0.001l0,-3.998c-1.688,0 -3.071,0 -3.077,0c-0.741,-0.047 -1.374,-0.617 -1.421,-1.363c0.001,0.021 0,-9.146 0,-9.155c0.047,-0.74 0.676,-1.435 1.421,-1.482c0.016,-0.001 1.396,-0.001 3.077,-0.001l0,-2.667l0.009,0l0,-1.335Zm22.027,31.001l0.009,-0.001l0.032,-0.003c0.332,-0.03 0.412,-0.054 0.427,-0.407c-0.004,-0.169 0.012,-8.674 0.019,-8.733c-0.004,-0.07 -0.016,-0.27 -0.021,-0.353c-0.033,-0.367 -0.128,-0.486 -0.496,-0.501c0.004,-0.001 0.002,-0.001 -0.009,-0.001l0.009,0.001c-0.162,0.004 -9.409,-0.001 -9.024,-0.001c-0.392,0.005 -0.464,0.145 -0.48,0.53c0.006,0.122 0.03,9.242 0.008,9.119l0,-0.009c0,0.005 0,0.008 0,0.009c0.033,0.357 0.075,0.338 0.438,0.352l9.097,-0.003l-6.154,0.002l-2.943,0.001l0.01,0l2.933,-0.001l6.145,-0.001Zm16.025,0l0.008,-0.001l0.033,-0.003c0.332,-0.03 0.412,-0.054 0.426,-0.407c-0.003,-0.169 0.013,-8.674 0.02,-8.733c-0.004,-0.07 -0.016,-0.271 -0.021,-0.354c-0.033,-0.367 -0.128,-0.485 -0.496,-0.501c0.004,0 0.001,0 -0.009,0l0.009,0c-0.162,0.004 -9.409,-0.001 -9.024,-0.001c-0.392,0.005 -0.464,0.145 -0.48,0.531c0.006,0.122 0.03,9.242 0.008,9.119l-0.001,-0.009c0.001,0.004 0.001,0.007 0.001,0.009c0.033,0.357 0.075,0.338 0.438,0.351l9.096,-0.002l-6.153,0.002l-2.943,0l0.01,0l2.933,0l6.145,-0.001Zm-15.557,-0.411c0,0.006 0,0.003 0,-0.008l0,0.008Zm16.024,0c0,0.005 0.001,0.002 0.001,-0.009l-0.001,0.009Zm-16.005,-8.733c0.001,0.03 0.002,0.036 0,0.001c0,-0.001 0,-0.001 0,-0.001Zm16.025,0c0.001,0.029 0.002,0.035 0,0.001c0,-0.002 0,-0.002 0,-0.001Zm-26.046,-0.325c0,-0.003 0,0 0,0.01l0,-0.01Zm16.025,0c0,-0.004 0,0 0,0.01l0,-0.01Zm10.958,-7.943c-0.008,0.336 -0.019,0.671 -0.031,1.007c-0.047,0.741 -0.677,1.373 -1.421,1.421c-0.339,0.013 -0.677,0.024 -1.016,0.034c0.262,-0.257 0.523,-0.514 0.783,-0.772c0.071,-0.004 0.143,-0.008 0.214,-0.013c0.37,-0.032 0.677,-0.352 0.691,-0.728c0.001,-0.054 0.002,-0.108 0.002,-0.162c0.261,-0.261 0.52,-0.523 0.778,-0.787Zm-12.057,0.139c0.254,0.277 0.514,0.551 0.778,0.821l0.002,0.028c0.032,0.367 0.347,0.672 0.719,0.691c0.268,0.261 0.539,0.521 0.812,0.778c-0.287,-0.008 -0.574,-0.018 -0.861,-0.029c-0.109,-0.007 -0.217,-0.027 -0.32,-0.058c-0.595,-0.178 -1.06,-0.729 -1.1,-1.363c-0.011,-0.289 -0.021,-0.579 -0.03,-0.868Zm-27.428,1.275l-0.086,0l-2.943,0l0.009,0.001l2.934,-0.001l0.086,0l0,0Zm0,-9.999c-1.745,-0.001 -3.15,-0.002 -2.995,-0.002c-0.393,0.005 -0.464,0.145 -0.48,0.531c0.006,0.122 0.029,9.242 0.008,9.119l-0.001,-0.009c0,0.004 0.001,0.007 0.001,0.009c0.032,0.357 0.074,0.338 0.438,0.351l3.029,-0.001l0,-9.998Zm3,9.998l3.059,0l0.008,-0.001l0.033,-0.003c0.332,-0.03 0.411,-0.054 0.426,-0.407c-0.003,-0.169 0.013,-8.674 0.019,-8.733c-0.004,-0.07 -0.015,-0.271 -0.021,-0.354c-0.032,-0.367 -0.127,-0.485 -0.496,-0.501c0.005,0 0.002,0 -0.008,0l0.008,0c-0.061,0.002 -1.399,0.002 -3.028,0.002l0,9.997l3.067,-0.001l-3.067,0.001l0,0Zm3.526,-0.411c0,0.005 0,0.002 0,-0.009l0,0.009Zm0.019,-8.733c0.002,0.029 0.002,0.036 0,0.001c0,-0.002 0,-0.002 0,-0.001Zm-10.02,-0.325c0,-0.004 0,0 -0.001,0.01l0.001,-0.01Zm35.431,-6.529l-0.04,0l-2.943,0l0.01,0.001l2.933,-0.001l0.04,0l0,0Zm0,0l0,-3.54l-3.413,0c0.002,1.771 0.001,3.239 -0.008,3.189l-0.001,-0.009c0.001,0.004 0.001,0.007 0.001,0.009c0.033,0.357 0.075,0.338 0.438,0.351l2.983,0Zm3,-0.001l3.105,0l0.008,-0.001l0.033,-0.003c0.332,-0.03 0.412,-0.054 0.426,-0.407c-0.003,-0.169 0.013,-8.674 0.02,-8.733c-0.004,-0.07 -0.016,-0.27 -0.021,-0.354c-0.033,-0.367 -0.128,-0.485 -0.496,-0.501c0.004,0 0.001,0 -0.009,0l0.009,0c-0.162,0.004 -9.409,0 -9.024,0c-0.392,0.005 -0.464,0.145 -0.48,0.53c0.002,0.045 0.007,1.334 0.011,2.93l4.918,0c0.828,0 1.5,0.672 1.5,1.5c0,0.02 -0.001,0.039 -0.002,0.059l0.002,0l0,4.98l3.113,-0.001l-3.113,0.001l0,0Zm-12.424,-3.539l-9.989,0c0.002,1.77 0.001,3.237 -0.008,3.187l-0.001,-0.009c0.001,0.004 0.001,0.007 0.001,0.009c0.033,0.357 0.075,0.338 0.438,0.351l9.096,-0.002l-6.153,0.002l-2.943,0l0.01,0l2.933,0l6.145,-0.001l0.008,-0.001l0.033,-0.003c0.332,-0.03 0.412,-0.054 0.426,-0.407c-0.001,-0.068 0.001,-1.467 0.004,-3.126Zm-22.523,3.535l-0.093,0l-2.943,0.001l0.01,0l2.933,-0.001l0.093,0l0,0Zm6.529,-6.535c0.004,-1.449 0.007,-2.588 0.01,-2.61c-0.004,-0.069 -0.016,-0.27 -0.021,-0.353c-0.033,-0.367 -0.128,-0.485 -0.496,-0.501c0.004,0 0.001,0 -0.009,-0.001l0.009,0.001c-0.162,0.004 -9.409,-0.001 -9.024,-0.001c-0.392,0.005 -0.464,0.145 -0.48,0.53c0.006,0.123 0.03,9.243 0.008,9.119l-0.001,-0.008c0.001,0.004 0.001,0.007 0.001,0.008c0.033,0.358 0.075,0.338 0.438,0.352l3.036,-0.001l0,-5.201c0.083,-0.75 0.719,-1.334 1.491,-1.334l5.038,0Zm-0.006,3l-3.532,0l0,3.534l3.069,0l-3.069,0l0,0.001l3.061,-0.001l0.008,0l0.033,-0.003c0.332,-0.031 0.412,-0.055 0.426,-0.407c-0.001,-0.068 0.001,-1.466 0.004,-3.124Zm31.996,3.128c0,0.005 0.001,0.003 0.001,-0.009l-0.001,0.009Zm-16,-0.002c0,0.005 0.001,0.002 0.001,-0.009l-0.001,0.009Zm-16,-0.002c0,0.005 0.001,0.002 0.001,-0.009l-0.001,0.009Zm16.01,-6.124c0.004,-1.448 0.007,-2.586 0.01,-2.607c-0.004,-0.07 -0.016,-0.271 -0.021,-0.354c-0.033,-0.367 -0.128,-0.485 -0.496,-0.501c0.004,0 0.001,0 -0.009,0l0.009,0c-0.162,0.004 -9.409,-0.001 -9.024,-0.001c-0.392,0.005 -0.464,0.145 -0.48,0.531c0.002,0.045 0.007,1.335 0.011,2.932l10,0Zm16.01,-2.605c0.001,0.029 0.002,0.036 0,0.001c0,-0.001 0,-0.002 0,-0.001Zm-16,-0.002c0.001,0.029 0.002,0.035 0,0.001c0,-0.002 0,-0.002 0,-0.001Zm-16,-0.003c0.001,0.03 0.002,0.036 0,0.001c0,-0.001 0,-0.001 0,-0.001Zm21.979,-0.32c0,-0.003 0,0 0,0.01l0,-0.01Zm-16,-0.002c0,-0.004 0,0 0,0.01l0,-0.01Zm-16,-0.003c0,-0.003 0,0 0,0.011l0,-0.011Z"/>
</svg>
