<svg version="1.1" width="64" height="64" viewBox="0 0 20 20" style="fill-rule:evenodd;clip-rule:evenodd;stroke-linejoin:round;stroke-miterlimit:1.41421;" aria-hidden="true">
<path d="M6.908,9.702c0.799,-0.214 1.622,0.261 1.837,1.061l1.553,5.796c0.214,0.799 -0.261,1.622 -1.061,1.837l-5.796,1.553c-0.799,0.214 -1.622,-0.261 -1.837,-1.061l-1.553,-5.796c-0.214,-0.799 0.261,-1.622 1.061,-1.837l5.796,-1.553Zm-1.992,4.158c0.533,-0.143 1.082,0.174 1.224,0.707c0.143,0.533 -0.174,1.082 -0.707,1.224c-0.533,0.143 -1.082,-0.174 -1.224,-0.707c-0.143,-0.533 0.174,-1.082 0.707,-1.224Z"/><path d="M14.75,0.201c0.717,-0.414 1.635,-0.168 2.049,0.549l3,5.196c0.414,0.717 0.168,1.635 -0.549,2.049l-5.196,3c-0.717,0.414 -1.635,0.168 -2.049,-0.549l-3,-5.196c-0.414,-0.717 -0.168,-1.635 0.549,-2.049l5.196,-3Zm2.567,5.446c0.478,-0.276 1.09,-0.112 1.366,0.366c0.276,0.478 0.112,1.09 -0.366,1.366c-0.478,0.276 -1.09,0.112 -1.366,-0.366c-0.276,-0.478 -0.112,-1.09 0.366,-1.366Zm-4.33,2.5c0.478,-0.276 1.09,-0.112 1.366,0.366c0.276,0.478 0.112,1.09 -0.366,1.366c-0.478,0.276 -1.09,0.112 -1.366,-0.366c-0.276,-0.478 -0.112,-1.09 0.366,-1.366Zm0.915,-3.415c0.478,-0.276 1.09,-0.112 1.366,0.366c0.276,0.478 0.112,1.09 -0.366,1.366c-0.478,0.276 -1.09,0.112 -1.366,-0.366c-0.276,-0.478 -0.112,-1.09 0.366,-1.366Zm-3.415,-0.915c0.478,-0.276 1.09,-0.112 1.366,0.366c0.276,0.478 0.112,1.09 -0.366,1.366c-0.478,0.276 -1.09,0.112 -1.366,-0.366c-0.276,-0.478 -0.112,-1.09 0.366,-1.366Zm4.33,-2.5c0.478,-0.276 1.09,-0.112 1.366,0.366c0.276,0.478 0.112,1.09 -0.366,1.366c-0.478,0.276 -1.09,0.112 -1.366,-0.366c-0.276,-0.478 -0.112,-1.09 0.366,-1.366Z"/>
</svg>