<?xml version="1.0" encoding="UTF-8" standalone="no"?>
<!DOCTYPE svg PUBLIC "-//W3C//DTD SVG 1.1//EN" "http://www.w3.org/Graphics/SVG/1.1/DTD/svg11.dtd">
<svg width="80" height="32" viewBox="0 0 120 48" version="1.1" xmlns="http://www.w3.org/2000/svg" xmlns:xlink="http://www.w3.org/1999/xlink" xml:space="preserve" xmlns:serif="http://www.serif.com/" style="fill-rule:evenodd;clip-rule:evenodd;stroke-linejoin:round;stroke-miterlimit:1.41421;">
    <path d="M96,48l-92,0c-2.134,-0.112 -3.884,-1.788 -4,-4l0,-40c0.112,-2.134 1.788,-3.884 4,-4l92,0c0.131,0.006 0.261,0.013 0.392,0.019c1.477,0.219 1.754,0.534 2.436,1.153l6.829,6.828l-24.177,0l-7.006,0l-8.048,14.012l-7.98,-14.012l-6.961,0l12.017,19.544l0,12.492l6.006,0l0,-12.492l8.821,-14.4l9.893,0l0,26.892l5.756,0l0,-26.892l16.823,0l8.027,8.028c1.43,1.587 1.483,4.01 0,5.656l-20,20c-1.243,1.128 -1.36,1.1 -2.828,1.172Zm-65.283,-34.72l0,-5.28l-22.717,0l0,32.036l5.756,0l0,-13.378l14.965,0l0,-5.28l-14.965,0l0,-8.098l16.961,0Zm11.042,21.317l0,-26.597l-5.756,0l0,32.036l19.451,0l0,-5.439l-13.695,0Z"/>
</svg>
