<?xml version="1.0" encoding="utf-8"?>
<!-- Generator: Adobe Illustrator 16.0.0, SVG Export Plug-In . SVG Version: 6.00 Build 0)  -->
<!DOCTYPE svg PUBLIC "-//W3C//DTD SVG 1.1//EN" "http://www.w3.org/Graphics/SVG/1.1/DTD/svg11.dtd">
<svg version="1.1" xmlns="http://www.w3.org/2000/svg" xmlns:xlink="http://www.w3.org/1999/xlink"
	 width="60" height="60" viewBox="0 0 300 300" enable-background="new 0 0 300 300" xml:space="preserve">
	<path d="M270,300c-16.568,0-30-13.432-30-30v-90h-30c-16.568,0-30-13.432-30-30s13.432-30,30-30h60
		c16.568,0,30,13.432,30,30v120C300,286.568,286.568,300,270,300z M150,300c-16.568,0-30-13.432-30-30v-30H90
		c-16.568,0-30-13.432-30-30s13.432-30,30-30h60c16.568,0,30,13.432,30,30v60C180,286.568,166.568,300,150,300z M30,120
		c-16.568,0-30-13.432-30-30V30C0,13.432,13.432,0,30,0h120c16.568,0,30,13.432,30,30s-13.432,30-30,30H60v30
		C60,106.568,46.568,120,30,120z"/>
</svg>
