<?xml version="1.0" encoding="UTF-8" standalone="no"?>
<!DOCTYPE svg PUBLIC "-//W3C//DTD SVG 1.1//EN" "http://www.w3.org/Graphics/SVG/1.1/DTD/svg11.dtd">
<svg width="68.1" height="96" viewBox="0 0 377 267" version="1.1" xmlns="http://www.w3.org/2000/svg" xmlns:xlink="http://www.w3.org/1999/xlink" xml:space="preserve" xmlns:serif="http://www.serif.com/" style="fill-rule:evenodd;clip-rule:evenodd;stroke-linejoin:round;stroke-miterlimit:1.41421;">
    <g transform="matrix(1,0,0,1,-13742.7,-7361.46)">
        <g transform="matrix(4.16667,0,0,4.16667,13659.4,7254.98)">
            <g transform="matrix(0.705231,0,0,0.705231,37.9839,52.8824)">
                <path d="M0,41C-11.305,41 -20.5,31.804 -20.5,20.5C-20.5,9.196 -11.305,0 0,0C11.303,0 20.5,9.196 20.5,20.5C20.5,31.804 11.303,41 0,41M0,-5C-14.084,-5 -25.5,6.417 -25.5,20.5C-25.5,34.584 -14.084,46 0,46C14.082,46 25.5,34.584 25.5,20.5C25.5,6.417 14.082,-5 0,-5" style="fill-rule:nonzero;"/>
            </g>
        </g>
        <g transform="matrix(4.16667,0,0,4.16667,13659.4,7254.98)">
            <g transform="matrix(0.705231,0,0,0.705231,92.2867,52.8824)">
                <path d="M0,41C-11.305,41 -20.5,31.804 -20.5,20.5C-20.5,9.196 -11.305,0 0,0C11.303,0 20.5,9.196 20.5,20.5C20.5,31.804 11.303,41 0,41M0,-5C-14.084,-5 -25.5,6.417 -25.5,20.5C-25.5,34.584 -14.084,46 0,46C14.082,46 25.5,34.584 25.5,20.5C25.5,6.417 14.082,-5 0,-5" style="fill-rule:nonzero;"/>
            </g>
        </g>
        <g transform="matrix(4.16667,0,0,4.16667,13659.4,7254.98)">
            <g transform="matrix(0.705231,0,0,0.705231,74.8198,88.8657)">
                <path d="M0,-5.291L-1.268,-4.023L-25.197,-4.023L-26.465,-5.291C-27.441,-6.268 -29.025,-6.268 -30,-5.291C-30.977,-4.314 -30.977,-2.732 -30,-1.756L-28,0.244C-27.531,0.713 -26.896,0.977 -26.232,0.977L-0.232,0.977C0.43,0.977 1.066,0.713 1.535,0.244L3.535,-1.756C4.512,-2.732 4.512,-4.314 3.535,-5.291C2.559,-6.268 0.977,-6.268 0,-5.291" style="fill-rule:nonzero;"/>
            </g>
        </g>
        <g transform="matrix(4.16667,0,0,4.16667,13659.4,7254.98)">
            <g transform="matrix(0.705231,0,0,0.705231,58.4356,33.8285)">
                <path d="M0,4.268L0,9.268C0,10.649 1.119,11.768 2.5,11.768C3.881,11.768 5,10.649 5,9.268L5,4.268C5,-1.598 -0.146,-6.914 -0.732,-7.5L-4.268,-3.964C-3.162,-2.857 0,1.032 0,4.268" style="fill-rule:nonzero;"/>
            </g>
        </g>
        <g transform="matrix(4.16667,0,0,4.16667,13659.4,7254.98)">
            <g transform="matrix(0.705231,0,0,0.705231,49.7841,37.8106)">
                <path d="M0,-4.611C1.105,-3.504 4.268,0.385 4.268,3.621C4.268,5.002 5.387,6.121 6.768,6.121C8.148,6.121 9.268,5.002 9.268,3.621C9.268,-2.245 4.121,-7.56 3.535,-8.146L2.121,-6.732L-1.879,-10.732L-2.586,-10.025L1.414,-6.025L0,-4.611Z" style="fill-rule:nonzero;"/>
            </g>
        </g>
        <g transform="matrix(4.16667,0,0,4.16667,13659.4,7254.98)">
            <g transform="matrix(0.705231,0,0,0.705231,75.3611,36.8384)">
                <path d="M0,5C0,6.381 1.119,7.5 2.5,7.5C3.881,7.5 5,6.381 5,5C5,2.986 6.375,2.528 7.5,2.5L7.5,0.5L13.5,0.5L13.5,-0.5L7.5,-0.5L7.5,-2.5C4.484,-2.5 0,-0.503 0,5" style="fill-rule:nonzero;"/>
            </g>
        </g>
        <g transform="matrix(4.16667,0,0,4.16667,13659.4,7254.98)">
            <g transform="matrix(-0.498674,-0.498674,-0.498674,0.498674,54.9095,26.3802)">
                <rect x="-5.182" y="1.147" width="5.657" height="1" style=""/>
            </g>
        </g>
        <g transform="matrix(4.16667,0,0,4.16667,13659.4,7254.98)">
            <g transform="matrix(0.705231,0,0,0.705231,65.8405,25.5547)">
                <path d="M0,23.5C1.381,23.5 2.5,22.381 2.5,21L2.5,6L0.5,6L0.5,0L-0.5,0L-0.5,6L-2.5,6L-2.5,21C-2.5,22.381 -1.381,23.5 0,23.5" style="fill-rule:nonzero;"/>
            </g>
        </g>
        <g transform="matrix(4.16667,0,0,4.16667,13659.4,7254.98)">
            <g transform="matrix(0.705231,0,0,0.705231,71.4824,26.7155)">
                <path d="M0,21.854C1.381,21.854 2.5,20.735 2.5,19.354L2.5,14.354C2.5,11.128 5.582,7.315 6.768,6.122L5.354,4.708L9.354,0.707L8.646,0L4.646,4L3.232,2.586C2.645,3.172 -2.5,8.488 -2.5,14.354L-2.5,19.354C-2.5,20.735 -1.381,21.854 0,21.854" style="fill-rule:nonzero;"/>
            </g>
        </g>
        <g transform="matrix(4.16667,0,0,4.16667,13659.4,7254.98)">
            <g transform="matrix(0.705231,0,0,0.705231,71.7207,65.0601)">
                <path d="M0,18.536L-6.34,12.197L-6.34,-1.768C-6.34,-3.149 -7.459,-4.268 -8.84,-4.268C-10.221,-4.268 -11.34,-3.149 -11.34,-1.768L-11.34,13.232C-11.34,13.396 -11.322,13.56 -11.291,13.722C-11.275,13.797 -11.248,13.866 -11.227,13.938C-11.201,14.022 -11.182,14.107 -11.148,14.188C-11.113,14.274 -11.064,14.353 -11.02,14.433C-10.984,14.496 -10.959,14.559 -10.92,14.618C-10.826,14.756 -10.723,14.886 -10.604,15.002L-3.535,22.071C-3.047,22.559 -2.408,22.804 -1.768,22.804C-1.129,22.804 -0.488,22.559 0,22.071C0.977,21.096 0.977,19.512 0,18.536" style="fill-rule:nonzero;"/>
            </g>
        </g>
    </g>
</svg>
