<svg width="120" height="36" viewBox="0 0 120 36" version="1.1" style="fill-rule:evenodd;clip-rule:evenodd;stroke-linejoin:round;stroke-miterlimit:1.41421;">
<path d="M12.329,27.025l1.672,0l0,-4.899l4.478,-4.625l6.114,9.524l1.984,0l-7.007,-10.69l6.524,-6.833l-2.109,0l-9.984,10.566l0,-10.566l-1.672,0l0,17.523Z"/>
<path d="M31.921,14.526c1.142,0 2.073,-0.931 2.073,-2.073c0,-1.194 -0.896,-2.09 -2.073,-2.09c-1.194,0 -2.09,0.86 -2.09,2.09c0,1.142 0.931,2.073 2.09,2.073Z"/>
<path d="M43.181,27.376c2.093,0 3.957,-0.668 5.469,-2.863l0.281,2.511l3.531,0l0,-10.65c0,-4.291 -2.811,-7.277 -7.593,-7.277c-3.464,0 -5.695,1.546 -7.382,3.847l3.286,2.375c0.755,-1.284 2.109,-2.48 4.132,-2.48c2.268,0 3.463,1.477 3.463,3.711l-4.571,0c-3.938,0 -6.995,1.265 -6.995,5.078c0,3.675 2.776,5.748 6.379,5.748Zm0.616,-3.619c-1.671,0 -2.603,-0.827 -2.603,-1.987c0,-1.108 0.897,-2.128 2.849,-2.128l4.325,0c-0.07,2.198 -2.127,4.115 -4.571,4.115Z"/>
<path d="M55.234,27.024l4.252,0l0,-9.614c0,-3.059 1.548,-4.36 3.956,-4.36c2.198,0 3.359,1.67 3.359,3.972l0,10.002l4.234,0l0,-10.546c0,-3.674 -1.757,-7.381 -6.362,-7.381c-1.723,0 -3.78,0.685 -5.187,2.407l0,-2.038l-4.252,0l0,17.558Z"/>
<path d="M81.189,27.376c5.433,0 8.999,-4.199 8.999,-9.175c0,-4.958 -3.566,-9.104 -8.999,-9.104c-5.432,0 -8.999,4.146 -8.999,9.104c0,4.976 3.567,9.175 8.999,9.175Zm0,-3.689c-3.235,0 -4.536,-2.602 -4.536,-5.486c0,-2.883 1.301,-5.397 4.536,-5.397c3.253,0 4.536,2.514 4.536,5.397c0,2.884 -1.283,5.486 -4.536,5.486Z"/>
<path d="M91.871,27.024l4.252,0l0,-9.614c0,-3.059 1.547,-4.36 3.956,-4.36c2.198,0 3.358,1.67 3.358,3.972l0,10.002l4.234,0l0,-10.546c0,-3.674 -1.757,-7.381 -6.361,-7.381c-1.724,0 -3.781,0.685 -5.187,2.407l0,-2.038l-4.252,0l0,17.558Z" />
</svg>