<?xml version="1.0" encoding="UTF-8" standalone="no"?><!DOCTYPE svg PUBLIC "-//W3C//DTD SVG 1.1//EN" "http://www.w3.org/Graphics/SVG/1.1/DTD/svg11.dtd"><svg width="72" height="72" viewBox="0 0 1024 1024" version="1.1" xmlns="http://www.w3.org/2000/svg" xmlns:xlink="http://www.w3.org/1999/xlink" xml:space="preserve" xmlns:serif="http://www.serif.com/" style="fill-rule:evenodd;clip-rule:evenodd;stroke-linejoin:round;stroke-miterlimit:1.41421;"><g id="Layer-1" serif:id="Layer 1"><path d="M438.307,381.49c-11.691,-36.238 -2.006,-75.969 25.045,-102.762c-9.639,24.364 -5.932,51.985 9.787,72.946c15.719,20.957 41.195,32.25 67.285,29.816c38.508,-4.156 72.256,-27.613 89.578,-62.254c17.323,-34.644 15.836,-75.719 -3.945,-109.016c-1.73,31.114 -21.996,58.137 -51.383,68.508c24.555,-75.5 -12.605,-157.25 -85.633,-188.394c0,71.531 -97.879,117.027 -102.759,188.394c-2.819,41.203 17.146,80.641 52.025,102.762" style="fill-rule:nonzero;"/><path d="M483.426,614.654c-25.084,0 -45.393,-20.33 -45.393,-45.398c0,-25.073 20.317,-45.389 45.393,-45.389c25.033,0 45.35,20.316 45.35,45.389c0,25.068 -20.317,45.398 -45.35,45.398m53.607,71.357l230.967,-237.806l-0.648,0l-510.93,0l-0.422,0l230.766,237.539l0,214.404l-75.393,0l0,33.518l201.067,0l0,-33.518l-75.407,0l0,-214.137Z" style="fill-rule:nonzero;"/></g></svg>