<svg width="60" height="60" viewBox="0 0 310 310" version="1.1" style="fill-rule:evenodd;clip-rule:evenodd;stroke-linejoin:round;stroke-miterlimit:1.41421;">
<path d="M180.419,15.913c1.889,-9.081 9.943,-15.913 19.581,-15.913c11.038,0 20,8.962 20,20c0,3.707 -1.011,7.18 -2.771,10.158l62.613,62.613c2.978,-1.76 6.451,-2.771 10.158,-2.771c11.038,0 20,8.962 20,20c0,10.171 -7.609,18.579 -17.441,19.837l-15.195,121.564c7.398,2.935 12.636,10.16 12.636,18.599c0,11.038 -8.962,20 -20,20c-8.438,0 -15.662,-5.237 -18.598,-12.635l-121.566,15.208c-1.264,9.825 -9.669,17.427 -19.836,17.427c-11.038,0 -20,-8.962 -20,-20c0,-3.707 1.011,-7.18 2.771,-10.158l-62.613,-62.613c-2.978,1.76 -6.451,2.771 -10.158,2.771c-11.038,0 -20,-8.962 -20,-20c0,-10.171 7.609,-18.579 17.441,-19.837l15.195,-121.564c-7.398,-2.935 -12.636,-10.16 -12.636,-18.599c0,-11.038 8.962,-20 20,-20c8.404,0 15.603,5.194 18.562,12.544c35.446,-4.728 89,-12.313 121.857,-16.631Zm17.585,210.087l-69.757,55.806c0.123,0.273 0.24,0.55 0.352,0.83l121.564,-15.195c0.351,-2.745 1.259,-5.317 2.608,-7.599l-32.613,-32.613c-2.978,1.76 -6.451,2.771 -10.158,2.771c-4.499,0 -8.653,-1.489 -11.996,-4Zm-84.029,44.396c2.963,0.598 5.689,1.852 8.021,3.604l69.757,-55.806c-0.601,-1.335 -1.06,-2.748 -1.357,-4.219l-79.611,-4.19l3.19,60.611Zm-74.896,-64.385c-0.46,1.462 -1.084,2.851 -1.85,4.147l62.613,62.613c1.296,-0.766 2.685,-1.39 4.147,-1.85l-3.246,-61.664l-61.664,-3.246Zm242.727,-77.764l-55.806,69.757c2.511,3.343 4,7.497 4,11.996c0,3.707 -1.011,7.18 -2.771,10.158l32.613,32.613c2.282,-1.348 4.854,-2.257 7.599,-2.608l15.195,-121.564c-0.28,-0.112 -0.557,-0.229 -0.83,-0.352Zm-171.648,-11.018c-1.296,0.766 -2.685,1.39 -4.147,1.85l4.246,80.664l80.664,4.246c0.46,-1.462 1.084,-2.851 1.85,-4.147l-82.613,-82.613Zm-18.352,1.018l-55.806,69.757c1.752,2.332 3.006,5.058 3.604,8.021l60.611,3.19l-4.19,-79.611c-1.471,-0.297 -2.884,-0.756 -4.219,-1.357Zm27.273,-12.236c-0.46,1.462 -1.084,2.851 -1.85,4.147l82.613,82.613c1.296,-0.766 2.685,-1.39 4.147,-1.85l-4.246,-80.664l-80.664,-4.246Zm94.896,84.385c1.471,0.297 2.884,0.756 4.219,1.357l55.806,-69.757c-1.752,-2.332 -3.006,-5.058 -3.604,-8.021l-60.611,-3.19l4.19,79.611Zm-163.817,-133.167c-2.282,1.348 -4.854,2.257 -7.599,2.608l-15.195,121.564c0.28,0.112 0.557,0.229 0.83,0.352l55.806,-69.757c-2.511,-3.343 -4,-7.497 -4,-11.996c0,-3.707 1.011,-7.18 2.771,-10.158l-32.613,-32.613Zm160,-20c-1.296,0.766 -2.685,1.39 -4.147,1.85l3.246,61.664l61.664,3.246c0.46,-1.462 1.084,-2.851 1.85,-4.147l-62.613,-62.613Zm-22.154,-1.229l-69.757,55.806c0.601,1.335 1.06,2.748 1.357,4.219l79.611,4.19l-3.19,-60.611c-2.963,-0.598 -5.689,-1.852 -8.021,-3.604Zm-6.603,-8.636l-121.564,15.195c-0.351,2.745 -1.259,5.317 -2.608,7.599l32.613,32.613c2.978,-1.76 6.451,-2.771 10.158,-2.771c4.499,0 8.653,1.489 11.996,4l69.757,-55.806c-0.123,-0.273 -0.24,-0.55 -0.352,-0.83Z"/>
</svg>