<svg version="1.1" width="80" height="32" viewBox="0 0 60 24" aria-hidden="true">
<path d="M50.535,1.697C49.46,1.409,48.4,1.262,47.386,1.262c-6.152,0-9.175,5.218-9.914,7.977c-0.091,0.339-0.165,0.698-0.224,1.07c-1.714-0.187-3.355,0.894-3.815,2.611c-0.003,0.008-0.313,0.984-1.005,1.765c-0.583,0.658-1.438,1.262-3.35,0.749c-1.847-0.495-2.297-1.379-2.494-2.178c-0.219-0.89-0.091-1.854-0.016-2.19c0.039-0.117,0.351-1.02,1-1.753c0.583-0.658,1.438-1.261,3.35-0.749c1.896,0.509,3.847-0.618,4.354-2.514s-0.617-3.846-2.514-4.354c-4.138-1.109-7.871-0.079-10.511,2.899c-0.422,0.476-0.778,0.961-1.082,1.432c-1.614-2.597-4.459-4.695-8.946-4.695C4.395,1.333,1.554,7.712,1.554,12v7.111c0,1.963,1.592,3.555,3.556,3.555c1.963,0,3.555-1.592,3.555-3.555V12.03c0.011-0.327,0.133-1.312,0.583-2.127c0.397-0.721,1.061-1.458,2.973-1.458c1.912,0,2.576,0.737,2.973,1.458c0.449,0.816,0.572,1.8,0.583,2.127v7.082c0,1.963,1.592,3.555,3.555,3.555c1.647,0,3.029-1.121,3.433-2.642c1.208,1.032,2.711,1.806,4.473,2.278c1.085,0.291,2.143,0.435,3.16,0.435c2.86,0,5.403-1.137,7.351-3.334c0.402-0.453,0.745-0.916,1.039-1.367c1.228,1.875,3.212,3.459,6.227,4.267c1.076,0.289,2.136,0.435,3.149,0.435c0.001,0,0.001,0,0.001,0c6.152,0,9.176-5.218,9.914-7.977C59.188,10.619,58.095,3.722,50.535,1.697z M51.203,12.94c-0.071,0.243-0.849,2.687-3.039,2.687c-0.393,0-0.834-0.065-1.31-0.192c-1.847-0.495-2.297-1.379-2.493-2.178c-0.221-0.896-0.09-1.868-0.016-2.197c0.072-0.244,0.85-2.687,3.04-2.687c0.394,0,0.833,0.064,1.31,0.192c1.847,0.495,2.297,1.378,2.494,2.178C51.41,11.639,51.278,12.611,51.203,12.94z"/>
</svg>