<?xml version="1.0" encoding="UTF-8" standalone="no"?><!DOCTYPE svg PUBLIC "-//W3C//DTD SVG 1.1//EN" "http://www.w3.org/Graphics/SVG/1.1/DTD/svg11.dtd"><svg width="64" height="64" viewBox="0 0 20 20" version="1.1" xmlns="http://www.w3.org/2000/svg" xmlns:xlink="http://www.w3.org/1999/xlink" xml:space="preserve" xmlns:serif="http://www.serif.com/" style="fill-rule:evenodd;clip-rule:evenodd;stroke-linejoin:round;stroke-miterlimit:1.41421;"><path d="M6,16l4,-4l4,4l-4,4l-4,-4Zm1.5,0l2.5,-2.5l2.5,2.5l-2.5,2.5l-2.5,-2.5Zm9.5,0.5l-2.5,0l0,-1l1.5,0l0,-1.5l1,0l0,2.5Zm-11.5,0l-2.5,0l0,-2.5l1,0l0,1.5l1.5,0l0,1Zm-2,-10c1.932,0 3.5,1.568 3.5,3.5c0,1.932 -1.568,3.5 -3.5,3.5c-1.932,0 -3.5,-1.568 -3.5,-3.5c0,-1.932 1.568,-3.5 3.5,-3.5Zm13,0c1.932,0 3.5,1.568 3.5,3.5c0,1.932 -1.568,3.5 -3.5,3.5c-1.932,0 -3.5,-1.568 -3.5,-3.5c0,-1.932 1.568,-3.5 3.5,-3.5Zm0,1c1.38,0 2.5,1.12 2.5,2.5c0,1.38 -1.12,2.5 -2.5,2.5c-1.38,0 -2.5,-1.12 -2.5,-2.5c0,-1.38 1.12,-2.5 2.5,-2.5Zm-10.5,-3.5l4,-4l4,4l-4,4l-4,-4Zm-2,2l-1,0l0,-2.5l2.5,0l0,1l-1.5,0l0,1.5Zm13,0l-1,0l0,-1.5l-1.5,0l0,-1l2.5,0l0,2.5Z"/></svg>