<?xml version="1.0" encoding="UTF-8" standalone="no"?><!DOCTYPE svg PUBLIC "-//W3C//DTD SVG 1.1//EN" "http://www.w3.org/Graphics/SVG/1.1/DTD/svg11.dtd"><svg width="120" height="36" viewBox="0 0 120 36" version="1.1" xmlns="http://www.w3.org/2000/svg" xmlns:xlink="http://www.w3.org/1999/xlink" xml:space="preserve" xmlns:serif="http://www.serif.com/" style="fill-rule:evenodd;clip-rule:evenodd;stroke-linejoin:round;stroke-miterlimit:1.41421;"><g><path d="M43.378,27.376c3.323,0 6.854,-1.792 6.854,-5.851c0,-6.453 -8.929,-4.871 -8.929,-7.525c0,-0.827 0.861,-1.512 2.268,-1.512c1.9,0 2.884,1.142 3.481,2.232l3.321,-1.81c-1.335,-2.372 -3.637,-3.813 -6.661,-3.813c-3.393,0 -6.52,1.757 -6.52,5.465c0,6.207 8.824,4.22 8.824,7.174c0,0.931 -0.862,2.092 -2.849,2.092c-2.339,0 -3.27,-1.618 -3.744,-2.884l-3.409,1.512c0.861,2.707 3.672,4.92 7.364,4.92Z" style="fill-rule:nonzero;"/><path d="M60.955,27.376c3.481,0 6.223,-1.932 7.383,-5.201l-3.902,-1.477c-0.457,1.653 -1.793,2.796 -3.516,2.796c-2.988,0 -4.113,-2.55 -4.113,-5.222c0,-2.62 1.16,-5.292 4.113,-5.292c1.758,0 3.059,1.195 3.516,2.883l4.078,-1.582c-1.336,-3.497 -4.114,-5.184 -7.594,-5.184c-5.73,0 -8.471,4.568 -8.471,9.175c0,4.659 2.776,9.104 8.506,9.104Z" style="fill-rule:nonzero;"/><path d="M78.816,27.376c5.432,0 8.998,-4.199 8.998,-9.174c0,-4.958 -3.566,-9.105 -8.998,-9.105c-5.433,0 -8.999,4.147 -8.999,9.105c0,4.975 3.566,9.174 8.999,9.174Zm0,-3.689c-3.236,0 -4.537,-2.602 -4.537,-5.485c0,-2.884 1.301,-5.398 4.537,-5.398c3.252,0 4.536,2.514 4.536,5.398c0,2.883 -1.284,5.485 -4.536,5.485Z" style="fill-rule:nonzero;"/><path d="M91.297,27.025l4.146,0l0,-7.417c0,-4.465 2.092,-6.328 4.096,-6.328c0.686,0 1.336,0.211 1.916,0.598l1.951,-3.515c-0.843,-0.861 -2.056,-1.266 -3.217,-1.266c-1.968,0 -3.955,1.195 -4.71,3.322l0,-2.953l-4.182,0l0,17.559Z" style="fill-rule:nonzero;"/><path d="M112.144,27.376c2.952,0 5.29,-1.036 7.206,-3.162l-2.953,-2.585c-1.23,1.372 -2.636,1.865 -4.218,1.865c-2.76,0 -4.025,-1.548 -4.394,-3.852l12.057,0c0.088,-0.246 0.158,-0.966 0.158,-1.686c0,-3.921 -1.986,-8.859 -8.138,-8.859c-5.94,0 -8.612,4.639 -8.612,9.21c0,4.729 2.848,9.069 8.894,9.069Zm-4.359,-10.826c0.404,-2.198 1.511,-3.851 4.042,-3.851c2.232,0 3.674,1.336 3.955,3.851l-7.997,0Z" style="fill-rule:nonzero;"/></g><path d="M15.084,0.027c0.644,0.061 0.68,0.093 1.091,0.549l13.5,16.5c0.432,0.581 0.433,1.318 0,1.9l-13.5,16.5c-0.627,0.697 -1.692,0.701 -2.322,0l-13.5,-16.5c-0.433,-0.581 -0.433,-1.318 0,-1.9l13.5,-16.5c0.461,-0.513 0.48,-0.549 1.231,-0.549Zm1.43,16.499l0,-4.5l-3,0l0,4.5l-4.5,0l0,3l4.5,0l0,4.5l3,0l0,-4.5l4.5,0l0,-3l-4.5,0Z"/></svg>