<svg version="1.1" width="144" height="36" viewBox="0 0 144 36" style="fill-rule:nonzero;clip-rule:evenodd;stroke-linejoin:round;stroke-miterlimit:1.41421;" aria-hidden="true">
<path d="M19.186,5.538l0,5.539l9.592,5.539l0,-5.539l-9.592,-5.539Zm-19.186,5.539l0,5.539l4.796,2.768l0,-5.538l-4.796,-2.769Zm14.389,2.769l-4.796,2.77l0,16.615l4.796,2.769l0,-11.077l4.797,2.769l0,-5.538l-4.797,-2.77l0,-5.538Z"/>
<path d="M19.186,5.538l-14.39,8.308l0,5.538l9.593,-5.538l0,5.538l4.797,-2.768l0,-11.078Zm14.389,2.77l-4.797,2.769l0,5.539l4.797,-2.77l0,-5.538Zm-9.593,11.076l-4.796,2.77l0,5.538l4.796,-2.769l0,-5.539Zm-4.796,8.308l-4.797,-2.769l0,11.077l4.797,-2.769l0,-5.539Z" style="fill-opacity:0.701961;"/>
<path d="M19.186,0l-19.186,11.077l4.796,2.769l14.39,-8.308l9.592,5.539l4.797,-2.769l-14.389,-8.308Zm0,16.616l-4.797,2.768l4.797,2.77l4.796,-2.77l-4.796,-2.768Z" style="fill-opacity:0.4;"/>
<path d="M116.433,11.202l0,11.2c0,0.459 0.302,0.654 0.781,0.654c0.137,0 0.4,-0.019 0.654,-0.058l0,2.001c-0.498,0.098 -1.211,0.196 -1.777,0.196c-1.122,0 -2.04,-0.42 -2.04,-2.139l0,-11.854l2.382,0Zm-39.297,13.993c1.847,0 3.808,-0.996 3.808,-3.251c0,-3.585 -4.96,-2.706 -4.96,-4.181c0,-0.459 0.478,-0.84 1.26,-0.84c1.055,0 1.602,0.635 1.934,1.241l1.845,-1.006c-0.742,-1.318 -2.021,-2.118 -3.701,-2.118c-1.885,0 -3.622,0.976 -3.622,3.036c0,3.448 4.902,2.344 4.902,3.985c0,0.518 -0.479,1.162 -1.583,1.162c-1.299,0 -1.816,-0.898 -2.08,-1.602l-1.894,0.84c0.479,1.504 2.041,2.734 4.091,2.734Zm-20.634,0c1.64,0 2.939,-0.576 4.003,-1.757l-1.64,-1.436c-0.684,0.762 -1.465,1.036 -2.344,1.036c-1.533,0 -2.236,-0.86 -2.441,-2.14l6.698,0c0.049,-0.137 0.088,-0.537 0.088,-0.937c0,-2.178 -1.103,-4.921 -4.521,-4.921c-3.3,0 -4.784,2.577 -4.784,5.116c0,2.628 1.582,5.039 4.941,5.039Zm30.615,0c3.018,0 4.999,-2.333 4.999,-5.097c0,-2.755 -1.981,-5.058 -4.999,-5.058c-3.018,0 -4.999,2.303 -4.999,5.058c0,2.764 1.981,5.097 4.999,5.097Zm36.67,0c3.018,0 4.999,-2.333 4.999,-5.097c0,-2.755 -1.981,-5.058 -4.999,-5.058c-3.018,0 -5,2.303 -5,5.058c0,2.764 1.982,5.097 5,5.097Zm9.551,-3.838l1.845,-6.112l2.041,0l1.836,6.093l1.68,-6.093l2.538,0l-3.017,9.754l-2.138,0l-1.924,-6.395l-1.914,6.434l-2.148,0l-2.998,-9.793l2.539,0l1.66,6.112Zm-80.616,-10.155l0,2.215l-4.317,0l0,11.582l-2.479,0l0,-11.582l-4.326,0l0,-2.215l11.122,0Zm43.652,4.043l0,1.64c0.42,-1.181 1.524,-1.845 2.617,-1.845c0.645,0 1.319,0.224 1.787,0.703l-1.084,1.953c-0.322,-0.215 -0.683,-0.332 -1.064,-0.332c-1.113,0 -2.275,1.035 -2.275,3.515l0,4.12l-2.304,0l0,-9.754l2.323,0Zm-31.152,0l0,1.132c0.781,-0.957 1.924,-1.337 2.882,-1.337c2.558,0 3.534,2.059 3.534,4.1l0,5.859l-2.352,0l0,-5.556c0,-1.28 -0.645,-2.207 -1.866,-2.207c-1.339,0 -2.198,0.722 -2.198,2.422l0,5.341l-2.362,0l0,-9.754l2.362,0Zm46.933,-4.043l0,2.274l-7.304,0l0,3.488l6.445,0l0,2.274l-6.445,0l0,5.761l-2.48,0l0,-13.797l9.784,0Zm-25.038,11.943c-1.797,0 -2.52,-1.445 -2.52,-3.047c0,-1.602 0.723,-2.999 2.52,-2.999c1.807,0 2.52,1.397 2.52,2.999c0,1.602 -0.713,3.047 -2.52,3.047Zm36.67,0c-1.797,0 -2.52,-1.445 -2.52,-3.047c0,-1.602 0.723,-2.999 2.52,-2.999c1.807,0 2.52,1.397 2.52,2.999c0,1.602 -0.713,3.047 -2.52,3.047Zm-65.264,-3.965c-0.156,-1.397 -0.957,-2.14 -2.197,-2.14c-1.406,0 -2.021,0.919 -2.246,2.14l4.443,0Z" style="fill-rule:evenodd;/>
</svg>