<svg width="60" height="60" viewBox="0 0 310 310" version="1.1" style="fill-rule:evenodd;clip-rule:evenodd;stroke-linejoin:round;stroke-miterlimit:1.41421;">
<path d="M200.618,12.532l3.259,1.048l1.426,1.117c0,0 90.05,90.05 90.05,90.05l1.474,2.147l0.65,2.522l-0.008,1.263l-15,165l-0.472,1.737l-0.448,1.24l-1.503,1.893l-2.027,1.316l-2.34,0.604l-165,15l-2.362,-0.16l-2.194,-0.889l-1.426,-1.117c0,0 -90.05,-90.05 -90.05,-90.05l-1.474,-2.147l-0.65,-2.522l0.008,-1.263l15,-165l0.472,-1.737l0.448,-1.24l1.503,-1.893l2.027,-1.316l2.34,-0.604l165,-15c0,0 1.128,-0.043 1.297,0.001Zm-63.752,267.495l121.508,-11.046l-44.185,-44.185c-25.774,18.41 -51.549,36.82 -77.323,55.231Zm-20.408,-3.857l77.386,-55.275l-82.124,-6.317c1.58,20.53 3.159,41.061 4.738,61.592Zm-15.491,-5.809l-4.38,-56.948l-56.948,-4.38c20.443,20.442 40.886,40.885 61.328,61.328Zm123.829,-56.172l44.185,44.185l11.046,-121.508c-18.411,25.774 -36.821,51.549 -55.231,77.323Zm-114.24,-14.745l84.805,6.523l-91.328,-91.328c2.174,28.269 4.349,56.537 6.523,84.805Zm-76.726,-5.902l61.592,4.738l-6.317,-82.124c-18.425,25.795 -36.85,51.591 -55.275,77.386Zm172.137,1.819l-6.523,-84.805l-84.805,-6.523c30.443,30.442 60.886,60.885 91.328,91.328Zm14.928,-1.517l55.275,-77.386l-61.592,-4.738c2.105,27.375 4.211,54.749 6.317,82.124Zm-190.922,-20.71l55.231,-77.323l-44.185,-44.185c-3.682,40.503 -7.364,81.005 -11.046,121.508Zm183.44,-76.547l56.948,4.38l-61.328,-61.328c1.46,18.983 2.92,37.965 4.38,56.948Zm-97.257,-7.482l82.124,6.317l-4.738,-61.592c-25.795,18.425 -51.591,36.85 -77.386,55.275Zm-64.53,-48.086l44.185,44.185l77.323,-55.231c-40.503,3.682 -81.005,7.364 -121.508,11.046Z"/>
</svg>