<svg version="1.1" width="96" height="46" viewBox="0 0 248 119" style="fill-rule:evenodd;clip-rule:evenodd;stroke-linejoin:round;stroke-miterlimit:1.41421;" aria-hidden="true">
<path d="M88.953,72.083c-10.19,1.301 -10.189,1.301 -10.217,11.408c-0.01,3.664 -0.049,7.328 -0.039,10.993c0.018,6.243 1.847,7.739 7.905,6.478c1.108,-0.231 2.196,-0.562 3.515,-0.902c0.538,1.88 1.074,3.596 1.513,5.336c0.316,1.256 0.503,2.545 0.805,4.12c-6.918,2.798 -13.735,5.263 -20.745,1.568c-8.047,-4.241 -4.751,-12.528 -6.007,-20.034c-8.22,9.634 -15.957,18.703 -23.695,27.771c-0.392,-0.335 -0.784,-0.67 -1.176,-1.004c14.671,-17.407 29.343,-34.814 44.718,-53.054c-12.374,2.334 -23.042,1.164 -32.678,-6.399c1.542,-2.548 2.983,-4.931 4.329,-7.156c4.282,1.803 8.241,3.995 12.482,5.079c3.074,0.786 6.618,0.545 9.764,-0.124c1.406,-0.298 3.059,-2.673 3.276,-4.285c0.169,-1.249 -1.465,-3.107 -2.757,-4.089c-1.398,-1.062 -3.305,-1.499 -5.035,-2.071c-3.63,-1.199 -7.333,-2.19 -10.928,-3.483c-4.52,-1.626 -8.592,-3.813 -9.117,-9.394c-0.584,-6.202 1.58,-11.137 6.866,-14.498c8.831,-5.614 23.341,-3.884 31.271,3.875c-1.489,2.221 -3.019,4.501 -4.406,6.57c-3.747,-1.574 -6.996,-3.297 -10.456,-4.267c-2.297,-0.644 -5.122,-0.842 -7.289,-0.065c-1.785,0.641 -3.824,2.869 -4.108,4.655c-0.219,1.374 1.786,3.904 3.381,4.606c3.927,1.728 8.18,2.721 12.313,3.971c7.287,2.203 13.288,5.527 12.558,14.752c10.069,-6.517 10.464,-15.931 8.917,-26.295c-1.668,-0.209 -3.425,-0.43 -5.572,-0.7c0,-2.835 0,-5.716 0,-8.872c1.897,-0.267 3.81,-0.537 6.279,-0.884c0,-5.051 0,-9.982 0,-15.116c4.331,0 8.074,0 12.235,0c0,5.161 0,10.094 0,15.17c5.697,1.361 10.195,1.133 13.72,-4.134c2.792,-4.174 6.462,-7.762 9.742,-11.61c0.359,0.267 0.718,0.534 1.077,0.802c-1.121,1.46 -2.186,2.968 -3.371,4.373c-14.715,17.429 -29.262,35.004 -44.299,52.15c-3.972,4.529 -5.227,9.277 -4.771,14.759Z"/>
<path d="M247.659,112.614c-4.396,0 -8.163,0 -12.354,0c0,-6.576 -0.007,-12.859 0.005,-19.143c0.003,-1.832 0.076,-3.662 0.088,-5.494c0.062,-9.766 -2.409,-14.039 -8.18,-14.059c-5.35,-0.016 -13.516,6.418 -12.697,14.604c0.741,7.408 0.024,14.964 -0.083,22.454c-0.007,0.464 -0.304,0.923 -0.535,1.583c-3.749,0 -7.506,0 -11.563,0c0,-22.617 0,-45.015 0,-67.744c4.202,0 8.078,0 12.3,0c0,8.828 0,17.437 0,27.004c1.411,-1.246 2.07,-2.063 2.92,-2.539c3.565,-1.999 6.983,-4.736 10.828,-5.67c10.541,-2.562 18.456,2.957 19.113,13.803c0.701,11.577 0.158,23.231 0.158,35.201Z"/>
<path d="M144.298,91.835c-12.561,0 -24.846,0 -37.35,0c-0.099,5.135 2.373,8.45 6.388,10.619c4.6,2.483 10.03,2.91 13.621,-0.616c4.835,-4.749 9.214,-3.417 14.141,-1.263c-1.225,7.936 -14.61,14.838 -28.313,11.877c-14.036,-3.035 -21.991,-16.418 -18.77,-30.96c2.977,-13.435 16.4,-21.361 31.378,-18.527c12.927,2.446 21.134,14.657 18.905,28.87Zm-37.255,-8.366c8.184,0 16.371,0 24.564,0c-0.165,-7.011 -5.438,-12.223 -12.237,-12.192c-7.097,0.031 -12.298,5.038 -12.327,12.192Z"/>
<path d="M34.522,56.695c-4.719,5.596 -10.668,8.554 -17.813,8.918c-9.151,0.467 -15.702,-4.098 -16.297,-13.131c-0.794,-12.052 -0.197,-24.196 -0.197,-36.538c4.068,0 7.832,0 12.022,0c0,7.786 0.002,15.4 -0.001,23.013c-0.001,1.833 -0.086,3.667 -0.015,5.497c0.279,7.15 3.055,10.53 8.575,10.525c6.411,-0.005 12.339,-5.161 12.437,-11.169c0.147,-9.125 0.038,-18.255 0.038,-27.667c4.49,0 8.233,0 12.525,0c0,9.544 -0.113,18.979 0.058,28.409c0.065,3.597 -0.951,7.206 2.416,10.644c1.569,1.603 0.269,6.016 0.269,9.118c-8.049,2.771 -11.45,0.966 -14.017,-7.619Z"/>
<path d="M195.881,75.259c-3.513,1.081 -6.628,2.15 -9.811,2.951c-0.936,0.234 -2.301,0.035 -3.063,-0.521c-7.108,-5.177 -11.792,-5.718 -16.985,-1.769c-4.974,3.781 -6.821,12.234 -4.08,18.671c3.768,8.846 12.954,10.946 20.447,4.868c1.142,-0.926 3.206,-1.355 4.681,-1.093c2.906,0.517 5.698,1.679 8.561,2.581c-4.256,9.536 -14.886,14.205 -26.947,12.022c-11.772,-2.131 -20.042,-11.247 -20.74,-22.864c-0.746,-12.422 6.095,-22.815 17.225,-26.174c12.476,-3.762 24.18,0.372 30.712,11.328Z"/>
</svg>