<svg version="1.1" width="120" height="48" viewBox="0 0 120 48" aria-hidden="true">
<path d="M6.856,30l0.969-4.706H5.61v-2.318h2.63l0.83-3.875H5.61v-2.318h3.91l1.003-4.706h2.353l-0.969,4.706h3.771l0.934-4.706H19l-0.969,4.706h2.422v2.318h-2.906l-0.727,3.875h3.633v2.318h-4.117L15.368,30H12.98l0.969-4.706h-3.771L9.243,30H6.856z M10.662,22.976h3.737l0.796-3.875h-3.771L10.662,22.976z"/>
<path d="M35.221,12.439h4.57l2.988,11.004l3.322-11.004h3.674l3.305,10.969l3.023-10.969h4.57L55.243,30h-3.85L47.93,18.486L44.485,30h-3.867L35.221,12.439z"/>
<path d="M63.363,12.439h4.184v2.953c0.756-2.127,2.742-3.322,4.711-3.322c1.16,0,2.373,0.404,3.217,1.266l-1.951,3.516c-0.58-0.387-1.23-0.598-1.916-0.598c-2.004,0-4.096,1.863-4.096,6.328V30h-4.148V12.439z"/>
<path d="M77.689,5.162h4.5v3.955h-4.5V5.162z M77.795,12.439h4.289V30h-4.289V12.439z"/>
<path d="M87.92,25.148v-9.124h-2.83v-3.586h2.9V8.08l4.219-3.059v7.418h4.395v3.586h-4.395v8.367c0,1.688,0.826,2.18,1.951,2.18c0.896,0,1.863-0.352,2.443-0.633v3.885c-0.65,0.246-1.916,0.527-3.199,0.527C89.977,30.352,87.92,28.348,87.92,25.148z"/>
<path d="M98.836,21.281c0-4.57,2.672-9.211,8.613-9.211c6.152,0,8.139,4.939,8.139,8.859c0,0.721-0.07,1.441-0.158,1.688h-12.059c0.369,2.303,1.635,3.85,4.395,3.85c1.582,0,2.988-0.492,4.219-1.863l2.953,2.584c-1.916,2.127-4.254,3.164-7.207,3.164C101.684,30.352,98.836,26.01,98.836,21.281z M111.369,19.523c0-0.387-0.035-0.756-0.141-1.107c-0.439-1.811-1.951-2.742-3.814-2.742c-2.531,0-3.639,1.652-4.043,3.85H111.369z"/>
<rect x="36" y="34.5" width="78.75" height="1.5"/>
<rect x="36" y="42" width="70.5" height="1.5"/>
<rect x="36" y="38.25" width="78.75" height="1.5"/>
</svg>