<?xml version="1.0" encoding="UTF-8" standalone="no"?><!DOCTYPE svg PUBLIC "-//W3C//DTD SVG 1.1//EN" "http://www.w3.org/Graphics/SVG/1.1/DTD/svg11.dtd"><svg width="64" height="64" viewBox="0 0 20 20" version="1.1" xmlns="http://www.w3.org/2000/svg" xmlns:xlink="http://www.w3.org/1999/xlink" xml:space="preserve" xmlns:serif="http://www.serif.com/" style="fill-rule:evenodd;clip-rule:evenodd;stroke-linejoin:round;stroke-miterlimit:1.41421;"><path d="M6.908,0.051c0.799,-0.214 1.622,0.261 1.837,1.061l1.553,5.796c0.214,0.799 -0.261,1.622 -1.061,1.837l-5.796,1.553c-0.799,0.214 -1.622,-0.261 -1.837,-1.061l-1.553,-5.796c-0.214,-0.799 0.261,-1.622 1.061,-1.837l5.796,-1.553Zm-3.76,7.219c0.533,-0.142 1.082,0.174 1.225,0.708c0.143,0.533 -0.174,1.081 -0.707,1.224c-0.534,0.143 -1.082,-0.174 -1.225,-0.707c-0.143,-0.533 0.174,-1.082 0.707,-1.225Zm3.535,-6.123c0.534,-0.143 1.082,0.174 1.225,0.707c0.143,0.533 -0.174,1.082 -0.707,1.225c-0.533,0.142 -1.082,-0.174 -1.225,-0.708c-0.142,-0.533 0.174,-1.081 0.707,-1.224Z"/><path d="M19.25,12.005c0.717,0.414 0.963,1.332 0.549,2.049l-3,5.196c-0.414,0.717 -1.332,0.963 -2.049,0.549l-5.196,-3c-0.717,-0.414 -0.963,-1.332 -0.549,-2.049l3,-5.196c0.414,-0.717 1.332,-0.963 2.049,-0.549l5.196,3Zm-3.433,4.946c0.478,0.276 0.642,0.888 0.366,1.366c-0.276,0.478 -0.888,0.642 -1.366,0.366c-0.478,-0.276 -0.642,-0.888 -0.366,-1.366c0.276,-0.478 0.888,-0.642 1.366,-0.366Zm-4.33,-2.5c0.478,0.276 0.642,0.888 0.366,1.366c-0.276,0.478 -0.888,0.642 -1.366,0.366c-0.478,-0.276 -0.642,-0.888 -0.366,-1.366c0.276,-0.478 0.888,-0.642 1.366,-0.366Zm2.5,-4.33c0.478,0.276 0.642,0.888 0.366,1.366c-0.276,0.478 -0.888,0.642 -1.366,0.366c-0.478,-0.276 -0.642,-0.888 -0.366,-1.366c0.276,-0.478 0.888,-0.642 1.366,-0.366Zm4.33,2.5c0.478,0.276 0.642,0.888 0.366,1.366c-0.276,0.478 -0.888,0.642 -1.366,0.366c-0.478,-0.276 -0.642,-0.888 -0.366,-1.366c0.276,-0.478 0.888,-0.642 1.366,-0.366Z"/></svg>