<?xml version="1.0" encoding="UTF-8" standalone="no"?>
<!DOCTYPE svg  PUBLIC '-//W3C//DTD SVG 1.1//EN'  'http://www.w3.org/Graphics/SVG/1.1/DTD/svg11.dtd'>
<svg xmlns="http://www.w3.org/2000/svg">
<defs>
<font id="Geomanist-Regular" horiz-adv-x="791">
<font-face underline-position="-50" font-weight="400" descent="-200" panose-1="2 0 5 3 0 0 0 2 0 4" units-per-em="1000" unicode-range="U+0020-2212" bbox="-42 -225 1079 914" x-height="520" underline-thickness="50" font-family="Geomanist" ascent="800" cap-height="700"/>
<missing-glyph horiz-adv-x="1000"/>
<glyph glyph-name="ellipsis" horiz-adv-x="675" unicode="..." d="M512 43q0 23 17 39.5t40 16.5t39.5 -16.5t16.5 -39.5t-16.5 -39.5t-39.5 -16.5t-40 16.5t-17 39.5zM281 43q0 23 16.5 39.5t39.5 16.5t40 -16.5t17 -39.5t-17 -39.5t-40 -16.5t-39.5 16.5t-16.5 39.5zM49 43q0 23 17 39.5t40 16.5t39.5 -16.5t16.5 -39.5t-16.5 -39.5 t-39.5 -16.5t-40 16.5t-17 39.5z"/>
<glyph glyph-name=".notdef" horiz-adv-x="1000"/>
<glyph glyph-name=".null" horiz-adv-x="0"/>
<glyph glyph-name="nonmarkingreturn" horiz-adv-x="333"/>
<glyph glyph-name="space" horiz-adv-x="254" unicode=" "/>
<glyph glyph-name="exclam" horiz-adv-x="258" unicode="!" d="M73 43q0 23 17 39.5t40 16.5t39.5 -16.5t16.5 -39.5t-16.5 -39.5t-39.5 -16.5t-40 16.5t-17 39.5zM95 176l-7 524h83l-7 -524h-69z"/>
<glyph glyph-name="quotedbl" horiz-adv-x="298" unicode='&quot;' d="M185 502l-5 198h70l-6 -198h-59zM54 502l-6 198h70l-6 -198h-58z"/>
<glyph glyph-name="numbersign" horiz-adv-x="648" unicode="#" d="M231 257h145l39 185h-145zM106 0l40 192h-116l13 65h116l39 185h-115l12 65h117l40 193h71l-39 -193h144l40 193h71l-39 -193h117l-12 -65h-119l-38 -185h118l-13 -65h-119l-40 -192h-71l39 192h-145l-40 -192h-71z"/>
<glyph glyph-name="dollar" horiz-adv-x="506" unicode="$" d="M34 141l69 30q38 -109 153 -109q57 0 92 31t35 85q0 41 -24.5 71.5t-60.5 48t-79 39.5t-79 43.5t-60.5 61t-24.5 92.5q0 70 45.5 119t123.5 57v56h61v-55q69 -9 110.5 -48.5t57.5 -83.5l-68 -28q-40 88 -131 88q-56 0 -87 -30t-31 -75q0 -44 34 -75.5t82 -53.5t96.5 -47 t82.5 -69t34 -106q0 -77 -48.5 -131t-131.5 -63v-75h-61v75q-79 7 -125.5 51t-64.5 101z"/>
<glyph glyph-name="percent" horiz-adv-x="757" unicode="%" d="M472 139q0 -39 24.5 -65t63.5 -26q40 0 64 26t24 65t-24.5 65t-64.5 26q-38 0 -62.5 -26t-24.5 -65zM405 139q0 64 44 109t110 45q67 0 112 -44.5t45 -109.5q0 -64 -45 -108t-111 -44q-67 0 -111 43.5t-44 108.5zM195 469q40 0 64 26t24 64q0 39 -25 65.5t-64 26.5 q-38 0 -62.5 -26.5t-24.5 -65.5q0 -38 25 -64t63 -26zM194 407q-66 0 -110 44t-44 108t44 109t109 45q68 0 113 -44.5t45 -109.5q0 -64 -45 -108t-112 -44zM71 0l533 700h82l-534 -700h-81z"/>
<glyph glyph-name="ampersand" horiz-adv-x="627" unicode="&amp;" d="M159 535q0 -30 16.5 -59t35 -47.5t51.5 -46.5q133 67 133 153q0 49 -33 80t-86 31q-51 0 -84 -31.5t-33 -79.5zM280 59q92 0 151 61l-219 211q-42 -18 -69 -52t-27 -81q0 -64 47.5 -101.5t116.5 -37.5zM552 -7l-68 72q-78 -78 -204 -78q-111 0 -177 59t-66 148 q0 119 123 189q-76 78 -76 155q0 72 51 123.5t140 51.5q90 0 142.5 -48.5t52.5 -127.5q0 -62 -40 -109t-117 -91l166 -160q20 36 26.5 69.5t6.5 87.5h76q0 -131 -52 -213l73 -73z"/>
<glyph glyph-name="quotesingle" horiz-adv-x="167" unicode="&apos;" d="M54 502l-6 198h70l-6 -198h-58z"/>
<glyph glyph-name="parenleft" horiz-adv-x="299" unicode="(" d="M146 606v-592q0 -88 83 -88v-69q-162 0 -162 161v584q0 161 162 161v-69q-83 0 -83 -88z"/>
<glyph glyph-name="parenright" horiz-adv-x="299" unicode=")" d="M153 14v592q0 88 -83 88v69q162 0 162 -161v-584q0 -161 -162 -161v69q83 0 83 88z"/>
<glyph glyph-name="asterisk" horiz-adv-x="428" unicode="*" d="M50 589l31 51l101 -60v120h62v-121l102 61l30 -50l-104 -61l105 -60l-31 -51l-102 60v-119h-62v119l-101 -60l-31 50l104 60z"/>
<glyph glyph-name="plus" horiz-adv-x="550" unicode="+" d="M40 278v67h199v213h72v-213h199v-67h-199v-214h-72v214h-199z"/>
<glyph glyph-name="comma" horiz-adv-x="212" unicode="," d="M49 43q0 23 16 39.5t39 16.5q25 0 42 -16.5t17 -43.5q0 -92 -77 -160l-37 36q42 32 49 73q-22 3 -35.5 19t-13.5 36z"/>
<glyph glyph-name="hyphen" horiz-adv-x="338" unicode="-" d="M41 264v74h255v-74h-255z"/>
<glyph glyph-name="period" horiz-adv-x="213" unicode="." d="M49 43q0 23 17 39.5t40 16.5t39.5 -16.5t16.5 -39.5t-16.5 -39.5t-39.5 -16.5t-40 16.5t-17 39.5z"/>
<glyph glyph-name="slash" horiz-adv-x="426" unicode="/" d="M25 -108l303 858h73l-303 -858h-73z"/>
<glyph glyph-name="zero" horiz-adv-x="554" unicode="0" d="M133 350q0 -57 2 -94t10.5 -77t23.5 -63t42 -38t66 -15t65.5 15t41.5 38t23.5 63t10.5 77t2 94t-2 94t-10.5 77t-23.5 63t-41.5 38t-65.5 15q-32 0 -56.5 -9.5t-40 -29.5t-25 -43t-14.5 -58.5t-6.5 -68t-1.5 -78.5zM503 350q0 -183 -50.5 -273t-175.5 -90t-175.5 90 t-50.5 273t50.5 273t175.5 90t175.5 -90t50.5 -273z"/>
<glyph glyph-name="one" horiz-adv-x="311" unicode="1" d="M65 585l-25 67l121 48h66v-700h-81v618z"/>
<glyph glyph-name="two" horiz-adv-x="510" unicode="2" d="M44 0v30q0 46 24.5 91.5t61.5 81t80 75t80 74t61.5 77t24.5 84.5q0 55 -34 89.5t-93 34.5q-103 0 -131 -108l-71 20q5 25 17.5 50.5t35.5 52.5t62.5 44t88.5 17q97 0 152.5 -55.5t55.5 -142.5q0 -58 -32.5 -113.5t-79 -98.5t-93 -82t-81 -77.5t-36.5 -71.5h332v-72h-425z "/>
<glyph glyph-name="three" horiz-adv-x="525" unicode="3" d="M454 700v-76l-183 -214q36 0 71 -12t66.5 -35.5t51 -64.5t19.5 -94q0 -93 -63.5 -154.5t-158.5 -61.5t-147.5 44.5t-70.5 107.5l69 25q33 -103 148 -103q60 0 100 39.5t40 100.5q0 62 -43 99.5t-121 37.5h-54v65l185 223h-301v73h392z"/>
<glyph glyph-name="four" horiz-adv-x="560" unicode="4" d="M120 249h236v346zM31 177v61l319 462h86v-451h92v-72h-92v-177h-80v177h-325z"/>
<glyph glyph-name="five" horiz-adv-x="523" unicode="5" d="M257 62q64 0 102 44.5t38 111.5t-39.5 111.5t-107.5 44.5q-62 0 -116 -46l-68 12l15 360h357v-74h-284l-10 -216q50 34 117 34q97 0 157.5 -62t60.5 -160q0 -101 -60.5 -168t-158.5 -67q-92 0 -147 45.5t-74 107.5l70 25q31 -103 148 -103z"/>
<glyph glyph-name="six" horiz-adv-x="546" unicode="6" d="M308 713q85 0 158 -50l-37 -62q-51 36 -118 36q-50 0 -86.5 -23.5t-55.5 -63t-27.5 -83t-8.5 -92.5q56 79 156 79q97 0 152.5 -63t55.5 -163q0 -112 -59.5 -176.5t-161.5 -64.5q-227 0 -227 307q0 419 259 419zM279 63q62 0 99.5 42.5t37.5 120.5q0 67 -36 110.5 t-102 43.5q-98 0 -147 -97q0 -49 5.5 -84t20 -68.5t45.5 -50.5t77 -17z"/>
<glyph glyph-name="seven" horiz-adv-x="483" unicode="7" d="M29 700h430v-62l-247 -638h-86l245 626h-342v74z"/>
<glyph glyph-name="eight" horiz-adv-x="549" unicode="8" d="M274 407q54 0 89.5 34t35.5 82q0 49 -33 82t-92 33q-58 0 -91 -33t-33 -82q0 -48 35.5 -82t88.5 -34zM274 333q-63 0 -104.5 -37t-41.5 -100q0 -56 39 -95.5t107 -39.5t107 39.5t39 95.5q0 63 -41 100t-105 37zM274 -13q-102 0 -165.5 58t-63.5 151q0 71 37.5 115.5 t81.5 62.5q-35 17 -65.5 57t-30.5 95q0 83 58.5 135t147.5 52q90 0 148.5 -52t58.5 -135q0 -55 -30.5 -95t-65.5 -57q44 -18 81.5 -62.5t37.5 -115.5q0 -93 -64 -151t-166 -58z"/>
<glyph glyph-name="nine" horiz-adv-x="546" unicode="9" d="M238 -13q-85 0 -158 50l37 62q51 -36 118 -36q50 0 86.5 23.5t55.5 63t27.5 83t8.5 92.5q-56 -79 -156 -79q-97 0 -152.5 63t-55.5 163q0 112 59.5 176.5t161.5 64.5q227 0 227 -307q0 -419 -259 -419zM267 637q-62 0 -99.5 -42.5t-37.5 -120.5q0 -67 36 -110.5 t102 -43.5q98 0 147 97q0 49 -5.5 84t-20 68.5t-45.5 50.5t-77 17z"/>
<glyph glyph-name="colon" horiz-adv-x="212" unicode=":" d="M49 431q0 23 17 39.5t40 16.5t39.5 -16.5t16.5 -39.5t-16.5 -40t-39.5 -17t-40 17t-17 40zM49 43q0 23 17 39.5t40 16.5t39.5 -16.5t16.5 -39.5t-16.5 -39.5t-39.5 -16.5t-40 16.5t-17 39.5z"/>
<glyph glyph-name="semicolon" horiz-adv-x="212" unicode=";" d="M49 43q0 23 16 39.5t39 16.5q25 0 42 -16.5t17 -43.5q0 -92 -77 -160l-37 36q43 33 49 73q-22 3 -35.5 19t-13.5 36zM49 431q0 23 17 39.5t40 16.5t39.5 -16.5t16.5 -39.5t-16.5 -40t-39.5 -17t-40 17t-17 40z"/>
<glyph glyph-name="less" horiz-adv-x="493" unicode="&lt;" d="M43 280v64l406 185v-74l-323 -142l323 -145v-73z"/>
<glyph glyph-name="equal" horiz-adv-x="550" unicode="=" d="M40 191v67h470v-67h-470zM40 357v66h470v-66h-470z"/>
<glyph glyph-name="greater" horiz-adv-x="493" unicode="&gt;" d="M450 344v-64l-407 -185v73l324 145l-324 142v74z"/>
<glyph glyph-name="question" horiz-adv-x="467" unicode="?" d="M154 43q0 23 17 39.5t40 16.5t39.5 -16.5t16.5 -39.5t-16.5 -39.5t-39.5 -16.5t-40 16.5t-17 39.5zM170 176v47q0 37 18 70t43.5 57.5l51 49t43.5 56t18 67.5q0 52 -32 84.5t-88 32.5q-84 0 -122 -84l-63 29q18 50 64.5 89t122.5 39q92 0 146.5 -52.5t54.5 -134.5 q0 -45 -18.5 -83t-44.5 -64t-52.5 -49.5t-45 -51.5t-18.5 -58v-44h-78z"/>
<glyph glyph-name="at" horiz-adv-x="891" unicode="@" d="M321 259q0 -61 35 -98t88 -37q52 0 87.5 36t35.5 101q0 59 -34 95.5t-90 36.5q-52 0 -87 -36.5t-35 -97.5zM249 259q0 87 54 142t134 55q48 0 80 -19t47 -39v52h67v-255q0 -73 61 -73q40 0 64.5 44.5t24.5 133.5q0 140 -90 228t-241 88q-150 0 -245 -102t-95 -250 q0 -151 93.5 -249.5t240.5 -98.5q106 0 187 46l30 -49q-35 -24 -93 -41t-124 -17q-169 0 -286 116t-117 292q0 177 116 295t294 118q91 0 166.5 -30t125.5 -81t77.5 -119t27.5 -145q0 -117 -43 -178t-118 -61q-44 0 -71.5 21t-37.5 55q-8 -14 -22.5 -29.5t-47 -31 t-69.5 -15.5q-81 0 -135.5 54.5t-54.5 142.5z"/>
<glyph glyph-name="A" horiz-adv-x="631" unicode="A" d="M428 297l-113 314l-112 -314h225zM452 227h-274l-84 -227h-82l262 700h82l262 -700h-82z"/>
<glyph glyph-name="B" horiz-adv-x="544" unicode="B" d="M160 71h119q65 0 103 32.5t38 97.5q0 66 -38.5 97t-103.5 31h-118v-258zM160 397h121q52 0 84 32.5t32 85.5t-30.5 83t-85.5 30h-121v-231zM79 0v700h193q99 0 153.5 -47.5t54.5 -131.5q0 -105 -90 -154q52 -19 83 -62.5t31 -105.5q0 -92 -59.5 -145.5t-151.5 -53.5h-214 z"/>
<glyph glyph-name="C" horiz-adv-x="656" unicode="C" d="M595 138l25 -71q-18 -16 -44 -32t-77 -32t-105 -16q-153 0 -254 103.5t-101 259.5q0 154 102 258.5t251 104.5q127 0 217 -73l-26 -72q-85 69 -189 69q-116 0 -193.5 -82.5t-77.5 -204.5q0 -124 76.5 -205.5t196.5 -81.5q109 0 199 75z"/>
<glyph glyph-name="D" horiz-adv-x="637" unicode="D" d="M160 72h79q129 0 202.5 71.5t73.5 206.5q0 130 -74.5 203.5t-201.5 73.5h-79v-555zM79 0v700h144q178 0 276.5 -92.5t98.5 -257.5q0 -172 -98.5 -261t-276.5 -89h-144z"/>
<glyph glyph-name="E" horiz-adv-x="474" unicode="E" d="M79 0v700h332v-74h-251v-233h219v-73h-219v-247h262v-73h-343z"/>
<glyph glyph-name="F" horiz-adv-x="467" unicode="F" d="M79 0v700h332v-74h-251v-240h220v-73h-220v-313h-81z"/>
<glyph glyph-name="G" horiz-adv-x="736" unicode="G" d="M393 713q159 0 258 -102l-52 -54q-83 80 -204 80q-120 0 -195.5 -82t-75.5 -206q0 -126 76 -206.5t194 -80.5q53 0 100 14.5t68.5 29t36.5 29.5v147h-156v71h234v-253q-112 -113 -286 -113q-151 0 -251.5 102t-100.5 260q0 155 100.5 259.5t253.5 104.5z"/>
<glyph glyph-name="H" horiz-adv-x="692" unicode="H" d="M79 0v700h81v-307h372v307h81v-700h-81v319h-372v-319h-81z"/>
<glyph glyph-name="I" horiz-adv-x="239" unicode="I" d="M79 0v700h81v-700h-81z"/>
<glyph glyph-name="J" horiz-adv-x="345" unicode="J" d="M22 4l9 72q33 -9 66 -9q88 0 88 102v531h81v-542q0 -80 -42.5 -122t-117.5 -42q-54 0 -84 10z"/>
<glyph glyph-name="K" horiz-adv-x="565" unicode="K" d="M79 0v700h81v-322l279 322h98l-294 -335l306 -365h-99l-290 352v-352h-81z"/>
<glyph glyph-name="L" horiz-adv-x="449" unicode="L" d="M79 0v700h81v-627h262v-73h-343z"/>
<glyph glyph-name="M" horiz-adv-x="867" unicode="M" d="M182 700l251 -545l252 545h103v-700h-78v583l-237 -519h-80l-237 519v-583h-78v700h104z"/>
<glyph glyph-name="N" horiz-adv-x="704" unicode="N" d="M78 0v700h81l386 -572v572h80v-700h-80l-386 570v-570h-81z"/>
<glyph glyph-name="O" d="M122 350q0 -124 78 -205.5t195 -81.5t195 81.5t78 205.5q0 123 -78.5 205t-194.5 82t-194.5 -82t-78.5 -205zM38 350q0 155 102.5 259t254.5 104t254.5 -104.5t102.5 -258.5q0 -155 -102.5 -259t-255.5 -104q-152 0 -254 103.5t-102 259.5z" unicode="O"/>
<glyph glyph-name="P" horiz-adv-x="508" unicode="P" d="M160 365h104q62 0 97.5 36t35.5 97q0 60 -35 95t-98 35h-104v-263zM79 0v700h192q96 0 152.5 -54t56.5 -148t-58 -149.5t-151 -55.5h-111v-293h-81z"/>
<glyph glyph-name="Q" d="M122 350q0 -124 78 -205.5t195 -81.5q95 0 161 51l-78 75l52 54l78 -75q60 72 60 182q0 123 -78.5 205t-194.5 82t-194.5 -82t-78.5 -205zM38 350q0 155 102.5 259t254.5 104t254.5 -104.5t102.5 -258.5q0 -139 -85 -238l74 -73l-53 -53l-75 73q-92 -72 -219 -72 q-152 0 -254 103.5t-102 259.5z" unicode="Q"/>
<glyph glyph-name="R" horiz-adv-x="547" unicode="R" d="M160 375h97q133 0 133 130q0 123 -138 123h-92v-253zM79 0v700h178q106 0 162 -51t56 -143q0 -65 -31.5 -115.5t-90.5 -69.5l174 -321h-90l-158 304h-119v-304h-81z"/>
<glyph glyph-name="S" horiz-adv-x="506" unicode="S" d="M34 141l69 30q38 -109 153 -109q57 0 92 31t35 85q0 41 -24.5 71.5t-60.5 48t-79 39.5t-79 43.5t-60.5 61t-24.5 92.5q0 77 54.5 128t145.5 51q83 0 131.5 -42.5t66.5 -91.5l-68 -28q-40 88 -131 88q-56 0 -87 -30t-31 -75q0 -44 34 -75.5t82 -53.5t96.5 -47t82.5 -69 t34 -106q0 -85 -58 -140.5t-154 -55.5q-92 0 -145.5 46t-73.5 108z"/>
<glyph glyph-name="T" horiz-adv-x="511" unicode="T" d="M210 0v626h-189v74h458v-74h-188v-626h-81z"/>
<glyph glyph-name="U" horiz-adv-x="672" unicode="U" d="M336 -13q-124 0 -192.5 71.5t-68.5 192.5v449h81v-448q0 -89 46.5 -139.5t133.5 -50.5t134 51t47 140v447h80v-448q0 -120 -69 -192.5t-192 -72.5z"/>
<glyph glyph-name="V" horiz-adv-x="637" unicode="V" d="M362 0h-87l-266 700h89l220 -604l221 604h89z"/>
<glyph glyph-name="W" horiz-adv-x="943" unicode="W" d="M641 0l-170 581l-170 -581h-90l-200 700h87l161 -597l172 597h80l172 -597l162 597h86l-199 -700h-91z"/>
<glyph glyph-name="X" horiz-adv-x="603" unicode="X" d="M13 0l238 362l-221 338h97l174 -276l175 276h95l-221 -338l239 -362h-92l-198 301l-195 -301h-91z"/>
<glyph glyph-name="Y" horiz-adv-x="532" unicode="Y" d="M226 0v328l-217 372h93l164 -295l167 295h90l-217 -372v-328h-80z"/>
<glyph glyph-name="Z" horiz-adv-x="594" unicode="Z" d="M35 0v59l412 568h-399v73h504v-60l-413 -567h415v-73h-519z"/>
<glyph glyph-name="bracketleft" horiz-adv-x="299" unicode="[" d="M67 -143v906h162v-69h-83v-768h83v-69h-162z"/>
<glyph glyph-name="backslash" horiz-adv-x="426" unicode="\" d="M98 750l303 -858h-73l-303 858h73z"/>
<glyph glyph-name="bracketright" horiz-adv-x="305" unicode="]" d="M232 763v-906h-162v69h83v768h-83v69h162z"/>
<glyph glyph-name="asciicircum" horiz-adv-x="523" unicode="^" d="M45 318l182 382h68l183 -382h-79l-138 302l-138 -302h-78z"/>
<glyph glyph-name="underscore" horiz-adv-x="606" unicode="_" d="M33 -29h540v-66h-540v66z"/>
<glyph glyph-name="grave" horiz-adv-x="489" unicode="`" d="M252 725l72 -142h-70l-88 142h86z"/>
<glyph glyph-name="a" horiz-adv-x="510" unicode="a" d="M114 161q0 -46 36 -77t95 -31q57 0 93 30.5t36 77.5q0 49 -35.5 78t-94.5 29q-58 0 -94 -30.5t-36 -76.5zM34 160q0 74 56 122.5t144 48.5q46 0 82.5 -14t54.5 -33v64q0 54 -34 84.5t-92 30.5q-77 0 -153 -45l-32 58q91 57 192 57q102 0 150 -51t48 -139v-343h-68l-9 44 q-50 -57 -141 -57q-86 0 -142 48.5t-56 124.5z"/>
<glyph glyph-name="b" horiz-adv-x="612" unicode="b" d="M144 258q0 -84 48.5 -142t127.5 -58q76 0 127 55.5t51 144.5t-49.5 146t-126.5 57q-76 0 -127 -54.5t-51 -148.5zM68 0v723h79v-287q19 33 66 65t118 32q110 0 179 -77t69 -197q0 -119 -71.5 -195.5t-182.5 -76.5q-116 0 -181 95v-82h-76z"/>
<glyph glyph-name="c" horiz-adv-x="512" unicode="c" d="M482 462l-27 -68q-63 66 -154 66q-81 0 -133.5 -57.5t-52.5 -142.5q0 -84 54 -142.5t134 -58.5q86 0 155 69l24 -67q-14 -15 -34.5 -29.5t-62 -29.5t-85.5 -15q-115 0 -191 78.5t-76 194.5t76.5 194.5t189.5 78.5q109 0 183 -71z"/>
<glyph glyph-name="d" horiz-adv-x="612" unicode="d" d="M467 258q0 94 -50.5 148.5t-126.5 54.5q-77 0 -126.5 -57t-49.5 -146t50.5 -144.5t126.5 -55.5q80 0 128 58t48 142zM544 723v-723h-77v82q-65 -95 -180 -95q-112 0 -183 76.5t-71 195.5q0 121 69 197.5t179 76.5q71 0 118 -32.5t65 -64.5v287h80z"/>
<glyph glyph-name="e" horiz-adv-x="565" unicode="e" d="M119 302h333q-4 78 -51 120.5t-115 42.5q-65 0 -114 -45.5t-53 -117.5zM34 258q0 122 73 198.5t179 76.5q113 0 180 -73.5t67 -192.5q0 -14 -1 -24h-417q1 -86 53 -136t134 -50q104 0 162 81l52 -38q-27 -45 -81 -79t-134 -34q-118 0 -192.5 75.5t-74.5 195.5z"/>
<glyph glyph-name="f" horiz-adv-x="294" unicode="f" d="M84 0v453h-58v67h58v27q0 91 46 132t117 41l33 -2v-69q-13 2 -25 2q-91 0 -91 -104v-27h111v-67h-111v-453h-80z"/>
<glyph glyph-name="g" horiz-adv-x="607" unicode="g" d="M467 259q0 92 -51 147t-127 55t-126 -56.5t-50 -145.5t51 -144.5t127 -55.5q79 0 127.5 57t48.5 143zM96 -140l28 62q72 -43 157 -43q81 0 132 37.5t51 119.5v46q-7 -11 -18 -23.5t-33 -30.5t-55.5 -29.5t-73.5 -11.5q-111 0 -181 76t-70 196t70 197t180 77q70 0 117 -32 t67 -65v84h76v-448q0 -264 -261 -264q-102 0 -186 52z"/>
<glyph glyph-name="h" horiz-adv-x="548" unicode="h" d="M301 533q88 0 136 -58t48 -150v-325h-79v328q0 61 -34.5 97t-88.5 36q-60 0 -98 -40.5t-38 -104.5v-316h-79v723h79v-278q20 37 61.5 62.5t92.5 25.5z"/>
<glyph glyph-name="i" horiz-adv-x="215" unicode="i" d="M53 654q0 22 15.5 38t38.5 16t39 -15.5t16 -38.5t-16 -39t-39 -16t-38.5 16t-15.5 39zM68 0v520h79v-520h-79z"/>
<glyph glyph-name="j" horiz-adv-x="215" unicode="j" d="M53 654q0 22 15.5 38t38.5 16t39 -15.5t16 -38.5t-16 -39t-39 -16t-38.5 16t-15.5 39zM68 -15v535h79v-537q0 -174 -162 -174l-27 2v68q13 -1 22 -1q88 0 88 107z"/>
<glyph glyph-name="k" horiz-adv-x="478" unicode="k" d="M68 0v723h79v-426l212 223h100l-224 -233l237 -287h-102l-223 277v-277h-79z"/>
<glyph glyph-name="l" horiz-adv-x="215" unicode="l" d="M68 0v723h79v-723h-79z"/>
<glyph glyph-name="m" horiz-adv-x="859" unicode="m" d="M795 337v-337h-79v313q0 148 -117 148q-57 0 -92.5 -39t-35.5 -110v-312h-79v328q0 62 -32 97.5t-87 35.5q-53 0 -89.5 -40.5t-36.5 -105.5v-315h-79v520h78v-75q16 36 56 62t91 26q57 0 97.5 -25.5t59.5 -69.5q48 95 167 95q85 0 131.5 -54t46.5 -142z"/>
<glyph glyph-name="n" horiz-adv-x="548" unicode="n" d="M301 533q88 0 135.5 -58t47.5 -150v-325h-79v328q0 61 -34.5 97t-88.5 36q-60 0 -97.5 -40.5t-37.5 -104.5v-316h-79v520h78v-75q20 37 61.5 62.5t93.5 25.5z"/>
<glyph glyph-name="o" horiz-adv-x="609" unicode="o" d="M33 260q0 118 77.5 195.5t194.5 77.5t194 -78t77 -195t-77.5 -195t-194.5 -78t-194 77.5t-77 195.5zM114 260q0 -88 53.5 -144.5t136.5 -56.5q84 0 138 57t54 144t-54 144t-138 57q-83 0 -136.5 -57.5t-53.5 -143.5z"/>
<glyph glyph-name="p" horiz-adv-x="613" unicode="p" d="M144 261q0 -93 51 -147.5t127 -54.5q77 0 126.5 56.5t49.5 145.5q0 90 -50.5 145t-127.5 55q-79 0 -127.5 -58t-48.5 -142zM68 -187v707h76v-82q65 95 181 95q111 0 182.5 -76.5t71.5 -195.5q0 -121 -69 -197.5t-179 -76.5q-71 0 -118 32t-66 65v-271h-79z"/>
<glyph glyph-name="q" horiz-adv-x="613" unicode="q" d="M468 261q0 84 -48 142t-128 58q-77 0 -127.5 -55t-50.5 -145q0 -89 50 -145.5t126 -56.5t127 54.5t51 147.5zM544 520v-707h-79v271q-18 -32 -65 -64.5t-118 -32.5q-111 0 -179.5 76.5t-68.5 197.5q0 119 71 195.5t183 76.5q115 0 180 -95v82h76z"/>
<glyph glyph-name="r" horiz-adv-x="321" unicode="r" d="M301 533v-79q-154 0 -154 -205v-249h-79v520h78v-87q14 42 56.5 71t98.5 29z"/>
<glyph glyph-name="s" horiz-adv-x="417" unicode="s" d="M29 98l55 36q43 -80 130 -80q41 0 68.5 22.5t27.5 60.5q0 33 -27 55t-65 36.5t-76.5 31.5t-65.5 50t-27 82q0 64 47.5 102.5t119.5 38.5q65 0 106.5 -31.5t54.5 -68.5l-58 -33q-33 67 -108 67q-37 0 -61.5 -19.5t-24.5 -52.5q0 -32 27 -53.5t65.5 -35.5t77 -30.5 t65.5 -50.5t27 -84q0 -68 -50 -111t-127 -43q-129 0 -181 111z"/>
<glyph glyph-name="t" horiz-adv-x="295" unicode="t" d="M74 520v109h79v-109h114v-67h-114v-268q0 -70 21.5 -95t74.5 -25l22 1v-70q-21 -3 -48 -3q-149 0 -149 185v275h-61v67h61z"/>
<glyph glyph-name="u" horiz-adv-x="543" unicode="u" d="M247 -13q-88 0 -136 58t-48 150v325h79v-328q0 -61 34.5 -97t88.5 -36q60 0 97.5 40.5t37.5 104.5v316h80v-520h-79v75q-19 -37 -61 -62.5t-93 -25.5z"/>
<glyph glyph-name="v" horiz-adv-x="501" unicode="v" d="M294 0h-87l-201 520h85l160 -431l159 431h84z"/>
<glyph glyph-name="w" horiz-adv-x="816" unicode="w" d="M546 0l-138 413l-139 -413h-87l-175 520h86l136 -428q1 3 140 428h78l139 -428l137 428h86l-176 -520h-87z"/>
<glyph glyph-name="x" horiz-adv-x="504" unicode="x" d="M402 0l-150 210l-151 -210h-90l194 269l-180 251h93l134 -195l134 195h93l-180 -251l194 -269h-91z"/>
<glyph glyph-name="y" horiz-adv-x="508" unicode="y" d="M222 -179h-79l75 184l-212 515h86l165 -418l160 418h84z"/>
<glyph glyph-name="z" horiz-adv-x="462" unicode="z" d="M32 0v56l298 396h-289v68h382v-57l-297 -396h302v-67h-396z"/>
<glyph glyph-name="braceleft" horiz-adv-x="341" unicode="{" d="M109 18v143q0 113 -73 113v72q37 0 55 26.5t18 86.5v143q0 161 162 161v-69q-83 0 -83 -88v-165q0 -43 -14 -74t-27.5 -42t-25.5 -15q12 -4 25.5 -15t27.5 -42t14 -74v-165q0 -88 83 -88v-69q-162 0 -162 161z"/>
<glyph glyph-name="bar" horiz-adv-x="252" unicode="|" d="M88 -206v989h76v-989h-76z"/>
<glyph glyph-name="braceright" horiz-adv-x="341" unicode="}" d="M232 161v-143q0 -161 -162 -161v69q83 0 83 88v165q0 43 14 74t27.5 42t25.5 15q-12 4 -25.5 15t-27.5 42t-14 74v165q0 88 -83 88v69q162 0 162 -161v-143q0 -60 18 -86.5t55 -26.5v-72q-73 0 -73 -113z"/>
<glyph glyph-name="asciitilde" horiz-adv-x="536" unicode="~" d="M362 306q30 0 46 20t17 49h66q0 -58 -33.5 -99t-92.5 -41q-40 0 -98 34.5t-93 34.5q-31 0 -46.5 -19.5t-17.5 -49.5h-65q0 61 34 100.5t93 39.5q42 0 104 -34.5t86 -34.5z"/>
<glyph glyph-name="exclamdown" horiz-adv-x="258" unicode="¡" d="M186 504q0 -23 -17 -39.5t-40 -16.5t-39.5 16.5t-16.5 39.5t16.5 39.5t39.5 16.5t40 -16.5t17 -39.5zM164 371l7 -524h-83l7 524h69z"/>
<glyph glyph-name="cent" horiz-adv-x="518" unicode="¢" d="M272 0v66q-105 10 -171.5 86t-66.5 185q0 108 67.5 185t170.5 87v91h62v-92q51 -5 89.5 -26.5t58.5 -42.5l-26 -68q-64 67 -154 67q-81 0 -133.5 -57.5t-52.5 -142.5t54 -143.5t134 -58.5q88 0 154 69l25 -67q-58 -62 -149 -72v-66h-62z"/>
<glyph glyph-name="sterling" horiz-adv-x="555" unicode="£" d="M48 315v67h58v129q0 90 54.5 146t147.5 56q77 0 124 -40t61 -88l-65 -29q-12 32 -42 56.5t-77 24.5q-60 0 -91 -34.5t-31 -95.5v-125h168v-67h-168v-243h321v-72h-469v72h67v243h-58z"/>
<glyph glyph-name="yen" horiz-adv-x="550" unicode="¥" d="M76 327v60h125l-183 313h93l164 -295l167 295h90l-183 -313h125v-60h-159v-90h159v-59h-159v-178h-80v178h-159v59h159v90h-159z"/>
<glyph glyph-name="section" horiz-adv-x="477" unicode="§" d="M366 229q0 55 -75 98l-94 52q-37 -1 -62 -27t-25 -62q0 -52 45 -78l124 -72q37 1 62 27t25 62zM441 231q0 -48 -25.5 -84.5t-65.5 -52.5q74 -58 74 -141q0 -74 -51.5 -120t-137.5 -46q-82 0 -129 38.5t-64 86.5l65 27q36 -79 128 -79q52 0 80 25t28 69q0 63 -83 112 l-141 86q-84 49 -84 137q0 47 25.5 83.5t65.5 52.5q-74 58 -74 141q0 74 51.5 120.5t137.5 46.5q82 0 129 -39t64 -87l-65 -27q-36 80 -128 80q-52 0 -80 -25.5t-28 -69.5q0 -63 83 -112l111 -65q114 -69 114 -157z"/>
<glyph glyph-name="dieresis" horiz-adv-x="489" unicode="¨" d="M276 653q0 21 14.5 35.5t35.5 14.5t35.5 -15t14.5 -35q0 -21 -14.5 -35.5t-35.5 -14.5q-22 0 -36 14.5t-14 35.5zM112 653q0 20 14.5 35t35.5 15t35.5 -14.5t14.5 -35.5t-14 -35.5t-36 -14.5q-21 0 -35.5 14.5t-14.5 35.5z"/>
<glyph glyph-name="copyright" horiz-adv-x="804" unicode="©" d="M220 347q0 83 50.5 138.5t134.5 55.5q94 0 149 -72l-44 -41q-42 51 -105 51q-56 0 -86.5 -36.5t-30.5 -94.5t30.5 -94.5t86.5 -36.5q63 0 105 51l44 -40q-54 -73 -149 -73q-84 0 -134.5 54.5t-50.5 137.5zM107 348q0 -131 82.5 -218t211.5 -87q130 0 212.5 87t82.5 219 q0 131 -83 218.5t-214 87.5q-127 0 -209.5 -87.5t-82.5 -219.5zM43 348q0 153 102 259t254 106q156 0 258.5 -105.5t102.5 -259.5t-101.5 -258t-257.5 -104q-155 0 -256.5 104t-101.5 258z"/>
<glyph glyph-name="ordfeminine" horiz-adv-x="408" unicode="ª" d="M107 433q0 -34 27 -56.5t70 -22.5q42 0 68.5 22t26.5 57q0 34 -26.5 55.5t-68.5 21.5q-43 0 -70 -22t-27 -55zM44 432q0 57 42.5 93.5t109.5 36.5q62 0 100 -32v41q0 40 -25 62t-67 22q-54 0 -116 -34l-26 48q70 44 148 44q77 0 113 -39t36 -107v-258h-54l-7 30 q-37 -39 -104 -39q-66 0 -108 37t-42 95z"/>
<glyph glyph-name="guillemotleft" horiz-adv-x="428" unicode="«" d="M158 109l-124 183l124 184h77l-124 -184l124 -183h-77zM192 292l125 184h77l-125 -184l125 -183h-77z"/>
<glyph glyph-name="registered" horiz-adv-x="452" unicode="®" d="M65 538q0 -70 43.5 -115.5t116.5 -45.5q74 0 117 45t43 117t-43.5 116t-118.5 44q-72 0 -115 -45t-43 -116zM19 538q0 87 56.5 145.5t147.5 58.5q94 0 151 -58t57 -145q0 -86 -56.5 -145t-149.5 -59q-92 0 -149 58t-57 145zM231 605h-28v-52h28q25 0 25 26t-25 26z M231 512h-28v-82h-47v216h75q35 0 54.5 -17.5t19.5 -48.5q0 -42 -33 -57l41 -93h-49z"/>
<glyph glyph-name="macron" horiz-adv-x="451" unicode="¯" d="M104 629v63h242v-63h-242z"/>
<glyph glyph-name="degree" horiz-adv-x="356" unicode="°" d="M94 568q0 -37 22.5 -61t60.5 -24t60.5 24.5t22.5 61.5t-22.5 61t-60.5 24q-37 0 -60 -24.5t-23 -61.5zM31 568q0 60 41.5 102.5t104.5 42.5q64 0 105.5 -42t41.5 -102q0 -62 -41 -103.5t-106 -41.5t-105.5 41.5t-40.5 102.5z"/>
<glyph glyph-name="twosuperior" horiz-adv-x="342" unicode="²" d="M47 304v40q0 33 19 63t46 52t54 42.5t46 43t19 44.5q0 26 -17.5 43t-46.5 17q-47 0 -69 -52l-52 21q13 37 43 63.5t80 26.5q58 0 92.5 -33t34.5 -85q0 -30 -17.5 -57t-43 -47.5t-51.5 -39t-44.5 -41t-20.5 -45.5h183v-56h-255z"/>
<glyph glyph-name="threesuperior" horiz-adv-x="341" unicode="³" d="M292 700v-48l-104 -113q49 -1 83 -33t34 -85q0 -58 -38.5 -91.5t-96.5 -33.5q-95 0 -131 90l51 22q24 -54 79 -54q31 0 50.5 17.5t19.5 50.5q0 70 -82 70h-37v49l94 102h-157v57h235z"/>
<glyph glyph-name="acute" horiz-adv-x="489" unicode="´" d="M165 583l71 142h87l-89 -142h-69z"/>
<glyph glyph-name="paragraph" horiz-adv-x="505" unicode="¶" d="M363 -45v745h69v-745h-69zM230 -45v374q-79 1 -133.5 55t-54.5 131t54 131t131 54h71v-745h-68z"/>
<glyph glyph-name="periodcentered" horiz-adv-x="226" unicode="·" d="M56 314q0 23 16.5 39.5t39.5 16.5t40 -16.5t17 -39.5t-17 -40t-40 -17t-39.5 17t-16.5 40z"/>
<glyph glyph-name="cedilla" horiz-adv-x="451" unicode="¸" d="M179 10h50l-8 -57q37 -4 58.5 -27t21.5 -58q0 -47 -32 -70t-81 -23q-27 0 -42 5l9 51q16 -3 30 -3q56 0 56 41t-57 41l-19 -2z"/>
<glyph glyph-name="onesuperior" horiz-adv-x="254" unicode="¹" d="M63 616l-17 54l79 30h52v-396h-64v332z"/>
<glyph glyph-name="ordmasculine" horiz-adv-x="468" unicode="º" d="M27 505q0 90 59 149t148 59q88 0 146 -59t58 -148q0 -88 -58.5 -147t-146.5 -59q-89 0 -147.5 58t-58.5 147zM92 505q0 -64 39.5 -106t101.5 -42q61 0 100.5 42.5t39.5 106.5t-39.5 106t-100.5 42q-62 0 -101.5 -42.5t-39.5 -106.5z"/>
<glyph glyph-name="guillemotright" horiz-adv-x="428" unicode="»" d="M394 292l-124 -183h-77l124 183l-124 184h77zM111 476l125 -184l-125 -183h-77l125 183l-125 184h77z"/>
<glyph glyph-name="onequarter" horiz-adv-x="789" unicode="¼" d="M92 616l-17 54l78 30h53v-396h-65v332zM516 136h123v178zM639 0v79h-190v49l189 268h65v-260h51v-57h-51v-79h-64zM237 -41h-73l389 782h73z"/>
<glyph glyph-name="onehalf" horiz-adv-x="799" unicode="½" d="M488 0v40q0 40 29 77t63 60t63 52t29 56q0 26 -17.5 43t-46.5 17q-47 0 -69 -52l-52 21q13 37 43 63.5t80 26.5q58 0 92.5 -33t34.5 -85q0 -30 -17.5 -57t-43 -47.5t-51.5 -39t-44.5 -41t-20.5 -45.5h183v-56h-255zM217 -41h-73l390 782h73zM92 616l-17 54l78 30h53v-396 h-65v332z"/>
<glyph glyph-name="threequarters" horiz-adv-x="844" unicode="¾" d="M307 700v-48l-104 -113q49 -1 83 -33t34 -85q0 -58 -38.5 -91.5t-96.5 -33.5q-95 0 -131 90l51 22q24 -54 79 -54q31 0 50.5 17.5t19.5 50.5q0 70 -82 70h-37v49l94 102h-157v57h235zM555 136h123v178zM678 0v79h-190v49l189 268h65v-260h51v-57h-51v-79h-64zM292 -41 h-73l390 782h73z"/>
<glyph glyph-name="questiondown" horiz-adv-x="467" unicode="¿" d="M312 503q0 -23 -16.5 -39.5t-39.5 -16.5t-39.5 16.5t-16.5 39.5t16.5 40t39.5 17t39.5 -17t16.5 -40zM296 370v-47q0 -37 -18 -70t-43.5 -57.5l-51 -49t-43.5 -56t-18 -67.5q0 -52 32 -84.5t88 -32.5q85 0 123 84l62 -29q-18 -50 -64 -88.5t-123 -38.5q-92 0 -146.5 52 t-54.5 134q0 45 18.5 83t44.5 64t52.5 49.5t45 51.5t18.5 58v44h78z"/>
<glyph glyph-name="Agrave" horiz-adv-x="631" unicode="À" d="M278 886l72 -142h-70l-88 142h86zM428 297l-113 314l-112 -314h225zM452 227h-274l-84 -227h-82l262 700h82l262 -700h-82z"/>
<glyph glyph-name="Aacute" horiz-adv-x="631" unicode="Á" d="M276 744l71 142h87l-89 -142h-69zM428 297l-113 314l-112 -314h225zM452 227h-274l-84 -227h-82l262 700h82l262 -700h-82z"/>
<glyph glyph-name="Acircumflex" horiz-adv-x="631" unicode="Â" d="M377 749l-62 82l-61 -82h-75l94 130h84l94 -130h-74zM428 297l-113 314l-112 -314h225zM452 227h-274l-84 -227h-82l262 700h82l262 -700h-82z"/>
<glyph glyph-name="Atilde" horiz-adv-x="631" unicode="Ã" d="M380 758q-28 0 -68 22.5t-58 22.5q-17 0 -27 -12t-11 -32h-57q0 48 26 76.5t68 28.5q27 0 68 -22t57 -22q17 0 27 12t11 32h56q0 -48 -25.5 -77t-66.5 -29zM428 297l-113 314l-112 -314h225zM452 227h-274l-84 -227h-82l262 700h82l262 -700h-82z"/>
<glyph glyph-name="Adieresis" horiz-adv-x="631" unicode="Ä" d="M349 812q0 21 14.5 35.5t35.5 14.5t35.5 -15t14.5 -35q0 -21 -14.5 -35.5t-35.5 -14.5q-22 0 -36 14.5t-14 35.5zM185 812q0 20 14.5 35t35.5 15t35.5 -14.5t14.5 -35.5t-14 -35.5t-36 -14.5q-21 0 -35.5 14.5t-14.5 35.5zM428 297l-113 314l-112 -314h225zM452 227h-274 l-84 -227h-82l262 700h82l262 -700h-82z"/>
<glyph glyph-name="Aring" horiz-adv-x="631" unicode="Å" d="M274 827q0 -19 11 -30.5t30 -11.5t30 11.5t11 31.5q0 18 -11 29.5t-31 11.5q-18 0 -29 -11.5t-11 -30.5zM225 827q0 38 25.5 62.5t63.5 24.5q40 0 65.5 -24t25.5 -62t-25.5 -63t-64.5 -25t-64.5 24.5t-25.5 62.5zM428 297l-113 314l-112 -314h225zM452 227h-274l-84 -227 h-82l262 700h82l262 -700h-82z"/>
<glyph glyph-name="AE" horiz-adv-x="811" unicode="Æ" d="M401 626l-160 -329h175v329h-15zM8 0l357 700h383v-74h-251v-233h219v-73h-219v-247h261v-73h-342v227h-209l-111 -227h-88z"/>
<glyph glyph-name="Ccedilla" horiz-adv-x="656" unicode="Ç" d="M595 138l25 -71q-18 -16 -44 -32t-77 -32t-105 -16l-16 1l-4 -35q37 -4 58.5 -27t21.5 -58q0 -47 -32 -70t-81 -23q-27 0 -42 5l9 51q16 -3 30 -3q56 0 56 41t-57 41l-19 -2l11 85q-129 21 -209.5 120t-80.5 237q0 154 102 258.5t251 104.5q127 0 217 -73l-26 -72 q-85 69 -189 69q-116 0 -193.5 -82.5t-77.5 -204.5q0 -124 76.5 -205.5t196.5 -81.5q109 0 199 75z"/>
<glyph glyph-name="Egrave" horiz-adv-x="474" unicode="È" d="M231 886l72 -142h-70l-88 142h86zM79 0v700h332v-74h-251v-233h219v-73h-219v-247h262v-73h-343z"/>
<glyph glyph-name="Eacute" horiz-adv-x="474" unicode="É" d="M204 744l71 142h87l-89 -142h-69zM79 0v700h332v-74h-251v-233h219v-73h-219v-247h262v-73h-343z"/>
<glyph glyph-name="Ecircumflex" horiz-adv-x="474" unicode="Ê" d="M313 749l-62 82l-61 -82h-75l94 130h84l94 -130h-74zM79 0v700h332v-74h-251v-233h219v-73h-219v-247h262v-73h-343z"/>
<glyph glyph-name="Edieresis" horiz-adv-x="474" unicode="Ë" d="M289 812q0 21 14.5 35.5t35.5 14.5t35.5 -15t14.5 -35q0 -21 -14.5 -35.5t-35.5 -14.5q-22 0 -36 14.5t-14 35.5zM125 812q0 20 14.5 35t35.5 15t35.5 -14.5t14.5 -35.5t-14 -35.5t-36 -14.5q-21 0 -35.5 14.5t-14.5 35.5zM79 0v700h332v-74h-251v-233h219v-73h-219v-247 h262v-73h-343z"/>
<glyph glyph-name="Igrave" horiz-adv-x="239" unicode="Ì" d="M92 886l72 -142h-70l-88 142h86zM79 0v700h81v-700h-81z"/>
<glyph glyph-name="Iacute" horiz-adv-x="239" unicode="Í" d="M76 744l71 142h87l-89 -142h-69zM79 0v700h81v-700h-81z"/>
<glyph glyph-name="Icircumflex" horiz-adv-x="239" unicode="Î" d="M185 749l-62 82l-61 -82h-75l94 130h84l94 -130h-74zM79 0v700h81v-700h-81z"/>
<glyph glyph-name="Idieresis" horiz-adv-x="239" unicode="Ï" d="M156 812q0 21 14.5 35.5t35.5 14.5t35.5 -15t14.5 -35q0 -21 -14.5 -35.5t-35.5 -14.5q-22 0 -36 14.5t-14 35.5zM-8 812q0 20 14.5 35t35.5 15t35.5 -14.5t14.5 -35.5t-14 -35.5t-36 -14.5q-21 0 -35.5 14.5t-14.5 35.5zM79 0v700h81v-700h-81z"/>
<glyph glyph-name="Eth" horiz-adv-x="640" unicode="Ð" d="M163 72h80q128 0 201.5 71.5t73.5 206.5q0 130 -74 203.5t-201 73.5h-80v-237h145v-72h-145v-246zM24 318v72h58v310h145q178 0 276.5 -92.5t98.5 -257.5q0 -171 -98.5 -260.5t-276.5 -89.5h-145v318h-58z"/>
<glyph glyph-name="Ntilde" horiz-adv-x="704" unicode="Ñ" d="M419 758q-28 0 -68 22.5t-58 22.5q-17 0 -27 -12t-11 -32h-57q0 48 26 76.5t68 28.5q27 0 68 -22t57 -22q17 0 27 12t11 32h56q0 -48 -25.5 -77t-66.5 -29zM78 0v700h81l386 -572v572h80v-700h-80l-386 570v-570h-81z"/>
<glyph glyph-name="Ograve" d="M364 886l72 -142h-70l-88 142h86zM122 350q0 -124 78 -205.5t195 -81.5t195 81.5t78 205.5q0 123 -78.5 205t-194.5 82t-194.5 -82t-78.5 -205zM38 350q0 155 102.5 259t254.5 104t254.5 -104.5t102.5 -258.5q0 -155 -102.5 -259t-255.5 -104q-152 0 -254 103.5 t-102 259.5z" unicode="Ò"/>
<glyph glyph-name="Oacute" d="M345 744l71 142h87l-89 -142h-69zM122 350q0 -124 78 -205.5t195 -81.5t195 81.5t78 205.5q0 123 -78.5 205t-194.5 82t-194.5 -82t-78.5 -205zM38 350q0 155 102.5 259t254.5 104t254.5 -104.5t102.5 -258.5q0 -155 -102.5 -259t-255.5 -104q-152 0 -254 103.5 t-102 259.5z" unicode="Ó"/>
<glyph glyph-name="Ocircumflex" d="M456 749l-62 82l-61 -82h-75l94 130h84l94 -130h-74zM122 350q0 -124 78 -205.5t195 -81.5t195 81.5t78 205.5q0 123 -78.5 205t-194.5 82t-194.5 -82t-78.5 -205zM38 350q0 155 102.5 259t254.5 104t254.5 -104.5t102.5 -258.5q0 -155 -102.5 -259t-255.5 -104 q-152 0 -254 103.5t-102 259.5z" unicode="Ô"/>
<glyph glyph-name="Otilde" d="M462 758q-28 0 -68 22.5t-58 22.5q-17 0 -27 -12t-11 -32h-57q0 48 26 76.5t68 28.5q27 0 68 -22t57 -22q17 0 27 12t11 32h56q0 -48 -25.5 -77t-66.5 -29zM122 350q0 -124 78 -205.5t195 -81.5t195 81.5t78 205.5q0 123 -78.5 205t-194.5 82t-194.5 -82t-78.5 -205z M38 350q0 155 102.5 259t254.5 104t254.5 -104.5t102.5 -258.5q0 -155 -102.5 -259t-255.5 -104q-152 0 -254 103.5t-102 259.5z" unicode="Õ"/>
<glyph glyph-name="Odieresis" d="M429 812q0 21 14.5 35.5t35.5 14.5t35.5 -15t14.5 -35q0 -21 -14.5 -35.5t-35.5 -14.5q-22 0 -36 14.5t-14 35.5zM265 812q0 20 14.5 35t35.5 15t35.5 -14.5t14.5 -35.5t-14 -35.5t-36 -14.5q-21 0 -35.5 14.5t-14.5 35.5zM122 350q0 -124 78 -205.5t195 -81.5t195 81.5 t78 205.5q0 123 -78.5 205t-194.5 82t-194.5 -82t-78.5 -205zM38 350q0 155 102.5 259t254.5 104t254.5 -104.5t102.5 -258.5q0 -155 -102.5 -259t-255.5 -104q-152 0 -254 103.5t-102 259.5z" unicode="Ö"/>
<glyph glyph-name="multiply" horiz-adv-x="531" unicode="×" d="M47 124l171 184l-171 185l47 48l171 -184l171 184l46 -47l-172 -185l173 -186l-47 -47l-172 185l-170 -184z"/>
<glyph glyph-name="Oslash" d="M669 350q0 118 -76 200l-348 -443q65 -44 151 -44q116 0 194.5 81.5t78.5 205.5zM123 350q0 -120 75 -200l346 442q-66 45 -148 45q-117 0 -195 -82t-78 -205zM39 350q0 155 102.5 259t254.5 104q109 0 197 -59l52 65l50 -40l-51 -65q109 -104 109 -264 q0 -155 -102.5 -259t-255.5 -104q-111 0 -199 58l-51 -65l-50 40l51 65q-107 104 -107 265z" unicode="Ø"/>
<glyph glyph-name="Ugrave" horiz-adv-x="672" unicode="Ù" d="M315 886l72 -142h-70l-88 142h86zM336 -13q-124 0 -192.5 71.5t-68.5 192.5v449h81v-448q0 -89 46.5 -139.5t133.5 -50.5t134 51t47 140v447h80v-448q0 -120 -69 -192.5t-192 -72.5z"/>
<glyph glyph-name="Uacute" horiz-adv-x="672" unicode="Ú" d="M289 744l71 142h87l-89 -142h-69zM336 -13q-124 0 -192.5 71.5t-68.5 192.5v449h81v-448q0 -89 46.5 -139.5t133.5 -50.5t134 51t47 140v447h80v-448q0 -120 -69 -192.5t-192 -72.5z"/>
<glyph glyph-name="Ucircumflex" horiz-adv-x="672" unicode="Û" d="M398 749l-62 82l-61 -82h-75l94 130h84l94 -130h-74zM336 -13q-124 0 -192.5 71.5t-68.5 192.5v449h81v-448q0 -89 46.5 -139.5t133.5 -50.5t134 51t47 140v447h80v-448q0 -120 -69 -192.5t-192 -72.5z"/>
<glyph glyph-name="Udieresis" horiz-adv-x="672" unicode="Ü" d="M370 812q0 21 14.5 35.5t35.5 14.5t35.5 -15t14.5 -35q0 -21 -14.5 -35.5t-35.5 -14.5q-22 0 -36 14.5t-14 35.5zM206 812q0 20 14.5 35t35.5 15t35.5 -14.5t14.5 -35.5t-14 -35.5t-36 -14.5q-21 0 -35.5 14.5t-14.5 35.5zM336 -13q-124 0 -192.5 71.5t-68.5 192.5v449 h81v-448q0 -89 46.5 -139.5t133.5 -50.5t134 51t47 140v447h80v-448q0 -120 -69 -192.5t-192 -72.5z"/>
<glyph glyph-name="Yacute" horiz-adv-x="532" unicode="Ý" d="M224 744l71 142h87l-89 -142h-69zM226 0v328l-217 372h93l164 -295l167 295h90l-217 -372v-328h-80z"/>
<glyph glyph-name="Thorn" horiz-adv-x="513" unicode="Þ" d="M160 228h108q62 0 97.5 36t35.5 97t-35 95.5t-98 34.5h-108v-263zM79 0v700h81v-137h115q96 0 152.5 -53.5t56.5 -147.5t-58 -149.5t-151 -55.5h-115v-157h-81z"/>
<glyph glyph-name="germandbls" horiz-adv-x="538" unicode="ß" d="M252 649q-106 0 -106 -116v-533h-80v547q0 88 50 130.5t136 42.5q81 0 130 -43t49 -104q0 -94 -79 -130q68 -20 112 -74t44 -131q0 -118 -75 -178t-196 -60v70q75 0 132.5 40.5t57.5 126.5q0 78 -56.5 121t-133.5 43v69q45 0 79.5 23.5t34.5 68.5q0 40 -27 63.5t-72 23.5 z"/>
<glyph glyph-name="agrave" horiz-adv-x="510" unicode="à" d="M232 725l72 -142h-70l-88 142h86zM114 161q0 -46 36 -77t95 -31q57 0 93 30.5t36 77.5q0 49 -35.5 78t-94.5 29q-58 0 -94 -30.5t-36 -76.5zM34 160q0 74 56 122.5t144 48.5q46 0 82.5 -14t54.5 -33v64q0 54 -34 84.5t-92 30.5q-77 0 -153 -45l-32 58q91 57 192 57 q102 0 150 -51t48 -139v-343h-68l-9 44q-50 -57 -141 -57q-86 0 -142 48.5t-56 124.5z"/>
<glyph glyph-name="aacute" horiz-adv-x="510" unicode="á" d="M207 583l71 142h87l-89 -142h-69zM114 161q0 -46 36 -77t95 -31q57 0 93 30.5t36 77.5q0 49 -35.5 78t-94.5 29q-58 0 -94 -30.5t-36 -76.5zM34 160q0 74 56 122.5t144 48.5q46 0 82.5 -14t54.5 -33v64q0 54 -34 84.5t-92 30.5q-77 0 -153 -45l-32 58q91 57 192 57 q102 0 150 -51t48 -139v-343h-68l-9 44q-50 -57 -141 -57q-86 0 -142 48.5t-56 124.5z"/>
<glyph glyph-name="acircumflex" horiz-adv-x="510" unicode="â" d="M316 594l-62 82l-61 -82h-75l94 130h84l94 -130h-74zM114 161q0 -46 36 -77t95 -31q57 0 93 30.5t36 77.5q0 49 -35.5 78t-94.5 29q-58 0 -94 -30.5t-36 -76.5zM34 160q0 74 56 122.5t144 48.5q46 0 82.5 -14t54.5 -33v64q0 54 -34 84.5t-92 30.5q-77 0 -153 -45l-32 58 q91 57 192 57q102 0 150 -51t48 -139v-343h-68l-9 44q-50 -57 -141 -57q-86 0 -142 48.5t-56 124.5z"/>
<glyph glyph-name="atilde" horiz-adv-x="510" unicode="ã" d="M317 601q-28 0 -68 22.5t-58 22.5q-17 0 -27 -12t-11 -32h-57q0 48 26 76.5t68 28.5q27 0 68 -22t57 -22q17 0 27 12t11 32h56q0 -48 -25.5 -77t-66.5 -29zM114 161q0 -46 36 -77t95 -31q57 0 93 30.5t36 77.5q0 49 -35.5 78t-94.5 29q-58 0 -94 -30.5t-36 -76.5zM34 160 q0 74 56 122.5t144 48.5q46 0 82.5 -14t54.5 -33v64q0 54 -34 84.5t-92 30.5q-77 0 -153 -45l-32 58q91 57 192 57q102 0 150 -51t48 -139v-343h-68l-9 44q-50 -57 -141 -57q-86 0 -142 48.5t-56 124.5z"/>
<glyph glyph-name="adieresis" horiz-adv-x="510" unicode="ä" d="M292 653q0 21 14.5 35.5t35.5 14.5t35.5 -15t14.5 -35q0 -21 -14.5 -35.5t-35.5 -14.5q-22 0 -36 14.5t-14 35.5zM128 653q0 20 14.5 35t35.5 15t35.5 -14.5t14.5 -35.5t-14 -35.5t-36 -14.5q-21 0 -35.5 14.5t-14.5 35.5zM114 161q0 -46 36 -77t95 -31q57 0 93 30.5 t36 77.5q0 49 -35.5 78t-94.5 29q-58 0 -94 -30.5t-36 -76.5zM34 160q0 74 56 122.5t144 48.5q46 0 82.5 -14t54.5 -33v64q0 54 -34 84.5t-92 30.5q-77 0 -153 -45l-32 58q91 57 192 57q102 0 150 -51t48 -139v-343h-68l-9 44q-50 -57 -141 -57q-86 0 -142 48.5t-56 124.5z "/>
<glyph glyph-name="aring" horiz-adv-x="510" unicode="å" d="M215 664q0 -19 11 -30.5t30 -11.5t30 11.5t11 31.5q0 18 -11 29.5t-31 11.5q-18 0 -29 -11.5t-11 -30.5zM166 664q0 38 25.5 62.5t63.5 24.5q40 0 65.5 -24t25.5 -62t-25.5 -63t-64.5 -25t-64.5 24.5t-25.5 62.5zM114 161q0 -46 36 -77t95 -31q57 0 93 30.5t36 77.5 q0 49 -35.5 78t-94.5 29q-58 0 -94 -30.5t-36 -76.5zM34 160q0 74 56 122.5t144 48.5q46 0 82.5 -14t54.5 -33v64q0 54 -34 84.5t-92 30.5q-77 0 -153 -45l-32 58q91 57 192 57q102 0 150 -51t48 -139v-343h-68l-9 44q-50 -57 -141 -57q-86 0 -142 48.5t-56 124.5z"/>
<glyph glyph-name="ae" horiz-adv-x="899" unicode="æ" d="M453 302h333q-4 78 -51 120.5t-115 42.5q-66 0 -113 -43.5t-54 -119.5zM114 161q0 -46 36 -77t95 -31q57 0 92 30t35 78q0 49 -35 78t-93 29t-94 -30.5t-36 -76.5zM34 160q0 74 56 122.5t144 48.5q46 0 82.5 -14t54.5 -33v64q0 54 -34 84.5t-92 30.5q-77 0 -153 -45 l-32 58q91 57 192 57q137 0 175 -101q33 48 83.5 74.5t109.5 26.5q113 0 180 -73.5t67 -192.5v-24h-417q1 -86 52.5 -136t133.5 -50q104 0 162 81l52 -38q-27 -45 -80.5 -79t-133.5 -34q-73 0 -130.5 28.5t-88.5 82.5q-19 -46 -66 -78.5t-119 -32.5q-86 0 -142 48.5 t-56 124.5z"/>
<glyph glyph-name="ccedilla" horiz-adv-x="512" unicode="ç" d="M482 462l-27 -68q-63 66 -154 66q-81 0 -133.5 -57.5t-52.5 -142.5q0 -84 54 -142.5t134 -58.5q86 0 155 69l24 -67q-14 -15 -34.5 -29.5t-62 -29.5t-86.5 -15l-5 -34q37 -4 58.5 -27t21.5 -58q0 -47 -32 -70t-81 -23q-27 0 -42 5l9 51q16 -3 30 -3q56 0 56 41t-57 41 l-19 -2l11 84q-96 17 -156 91t-60 177q0 116 76.5 194.5t189.5 78.5q109 0 183 -71z"/>
<glyph glyph-name="egrave" horiz-adv-x="565" unicode="è" d="M264 725l72 -142h-70l-88 142h86zM119 302h333q-4 78 -51 120.5t-115 42.5q-65 0 -114 -45.5t-53 -117.5zM34 258q0 122 73 198.5t179 76.5q113 0 180 -73.5t67 -192.5q0 -14 -1 -24h-417q1 -86 53 -136t134 -50q104 0 162 81l52 -38q-27 -45 -81 -79t-134 -34 q-118 0 -192.5 75.5t-74.5 195.5z"/>
<glyph glyph-name="eacute" horiz-adv-x="565" unicode="é" d="M236 583l71 142h87l-89 -142h-69zM119 302h333q-4 78 -51 120.5t-115 42.5q-65 0 -114 -45.5t-53 -117.5zM34 258q0 122 73 198.5t179 76.5q113 0 180 -73.5t67 -192.5q0 -14 -1 -24h-417q1 -86 53 -136t134 -50q104 0 162 81l52 -38q-27 -45 -81 -79t-134 -34 q-118 0 -192.5 75.5t-74.5 195.5z"/>
<glyph glyph-name="ecircumflex" horiz-adv-x="565" unicode="ê" d="M349 594l-62 82l-61 -82h-75l94 130h84l94 -130h-74zM119 302h333q-4 78 -51 120.5t-115 42.5q-65 0 -114 -45.5t-53 -117.5zM34 258q0 122 73 198.5t179 76.5q113 0 180 -73.5t67 -192.5q0 -14 -1 -24h-417q1 -86 53 -136t134 -50q104 0 162 81l52 -38q-27 -45 -81 -79 t-134 -34q-118 0 -192.5 75.5t-74.5 195.5z"/>
<glyph glyph-name="edieresis" horiz-adv-x="565" unicode="ë" d="M321 653q0 21 14.5 35.5t35.5 14.5t35.5 -15t14.5 -35q0 -21 -14.5 -35.5t-35.5 -14.5q-22 0 -36 14.5t-14 35.5zM157 653q0 20 14.5 35t35.5 15t35.5 -14.5t14.5 -35.5t-14 -35.5t-36 -14.5q-21 0 -35.5 14.5t-14.5 35.5zM119 302h333q-4 78 -51 120.5t-115 42.5 q-65 0 -114 -45.5t-53 -117.5zM34 258q0 122 73 198.5t179 76.5q113 0 180 -73.5t67 -192.5q0 -14 -1 -24h-417q1 -86 53 -136t134 -50q104 0 162 81l52 -38q-27 -45 -81 -79t-134 -34q-118 0 -192.5 75.5t-74.5 195.5z"/>
<glyph glyph-name="igrave" horiz-adv-x="215" unicode="ì" d="M68 0v520h79v-520h-79zM80 725l72 -142h-70l-88 142h86z"/>
<glyph glyph-name="iacute" horiz-adv-x="215" unicode="í" d="M68 0v520h79v-520h-79zM62 583l71 142h87l-89 -142h-69z"/>
<glyph glyph-name="icircumflex" horiz-adv-x="215" unicode="î" d="M172 594l-62 82l-61 -82h-75l94 130h84l94 -130h-74zM68 0v520h79v-520h-79z"/>
<glyph glyph-name="idieresis" horiz-adv-x="215" unicode="ï" d="M68 0v520h79v-520h-79zM141 653q0 21 14.5 35.5t35.5 14.5t35.5 -15t14.5 -35q0 -21 -14.5 -35.5t-35.5 -14.5q-22 0 -36 14.5t-14 35.5zM-23 653q0 20 14.5 35t35.5 15t35.5 -14.5t14.5 -35.5t-14 -35.5t-36 -14.5q-21 0 -35.5 14.5t-14.5 35.5z"/>
<glyph glyph-name="eth" horiz-adv-x="591" unicode="ð" d="M116 248q0 -80 48.5 -135t126.5 -55q87 0 133.5 57.5t46.5 144.5q0 73 -49 124t-125 51q-83 0 -132 -53.5t-49 -133.5zM35 248q0 110 72 182t186 72q63 0 108 -31q-21 32 -53.5 64t-57.5 48l-161 -63l-9 58l117 47q-48 34 -109 66l51 39q68 -30 136 -77l123 48l10 -58 l-82 -33q186 -149 186 -342q0 -122 -68.5 -201.5t-193.5 -79.5q-113 0 -184 75t-71 186z"/>
<glyph glyph-name="ntilde" horiz-adv-x="548" unicode="ñ" d="M340 601q-28 0 -68 22.5t-58 22.5q-17 0 -27 -12t-11 -32h-57q0 48 26 76.5t68 28.5q27 0 68 -22t57 -22q17 0 27 12t11 32h56q0 -48 -25.5 -77t-66.5 -29zM301 533q88 0 135.5 -58t47.5 -150v-325h-79v328q0 61 -34.5 97t-88.5 36q-60 0 -97.5 -40.5t-37.5 -104.5v-316 h-79v520h78v-75q20 37 61.5 62.5t93.5 25.5z"/>
<glyph glyph-name="ograve" horiz-adv-x="609" unicode="ò" d="M270 725l72 -142h-70l-88 142h86zM33 260q0 118 77.5 195.5t194.5 77.5t194 -78t77 -195t-77.5 -195t-194.5 -78t-194 77.5t-77 195.5zM114 260q0 -88 53.5 -144.5t136.5 -56.5q84 0 138 57t54 144t-54 144t-138 57q-83 0 -136.5 -57.5t-53.5 -143.5z"/>
<glyph glyph-name="oacute" horiz-adv-x="609" unicode="ó" d="M255 583l71 142h87l-89 -142h-69zM33 260q0 118 77.5 195.5t194.5 77.5t194 -78t77 -195t-77.5 -195t-194.5 -78t-194 77.5t-77 195.5zM114 260q0 -88 53.5 -144.5t136.5 -56.5q84 0 138 57t54 144t-54 144t-138 57q-83 0 -136.5 -57.5t-53.5 -143.5z"/>
<glyph glyph-name="ocircumflex" horiz-adv-x="609" unicode="ô" d="M369 594l-62 82l-61 -82h-75l94 130h84l94 -130h-74zM33 260q0 118 77.5 195.5t194.5 77.5t194 -78t77 -195t-77.5 -195t-194.5 -78t-194 77.5t-77 195.5zM114 260q0 -88 53.5 -144.5t136.5 -56.5q84 0 138 57t54 144t-54 144t-138 57q-83 0 -136.5 -57.5t-53.5 -143.5z "/>
<glyph glyph-name="otilde" horiz-adv-x="609" unicode="õ" d="M372 601q-28 0 -68 22.5t-58 22.5q-17 0 -27 -12t-11 -32h-57q0 48 26 76.5t68 28.5q27 0 68 -22t57 -22q17 0 27 12t11 32h56q0 -48 -25.5 -77t-66.5 -29zM33 260q0 118 77.5 195.5t194.5 77.5t194 -78t77 -195t-77.5 -195t-194.5 -78t-194 77.5t-77 195.5zM114 260 q0 -88 53.5 -144.5t136.5 -56.5q84 0 138 57t54 144t-54 144t-138 57q-83 0 -136.5 -57.5t-53.5 -143.5z"/>
<glyph glyph-name="odieresis" horiz-adv-x="609" unicode="ö" d="M340 653q0 21 14.5 35.5t35.5 14.5t35.5 -15t14.5 -35q0 -21 -14.5 -35.5t-35.5 -14.5q-22 0 -36 14.5t-14 35.5zM176 653q0 20 14.5 35t35.5 15t35.5 -14.5t14.5 -35.5t-14 -35.5t-36 -14.5q-21 0 -35.5 14.5t-14.5 35.5zM33 260q0 118 77.5 195.5t194.5 77.5t194 -78 t77 -195t-77.5 -195t-194.5 -78t-194 77.5t-77 195.5zM114 260q0 -88 53.5 -144.5t136.5 -56.5q84 0 138 57t54 144t-54 144t-138 57q-83 0 -136.5 -57.5t-53.5 -143.5z"/>
<glyph glyph-name="divide" horiz-adv-x="550" unicode="÷" d="M40 278v67h470v-67h-470zM224 137q0 21 15 36t36 15t35.5 -15t14.5 -36q0 -20 -14.5 -35t-35.5 -15t-36 15t-15 35zM224 485q0 21 15 36t36 15t35.5 -15t14.5 -36t-14.5 -35.5t-35.5 -14.5t-36 14.5t-15 35.5z"/>
<glyph glyph-name="oslash" horiz-adv-x="610" unicode="ø" d="M496 260q0 76 -46 132l-241 -308q40 -25 95 -25q84 0 138 57t54 144zM114 260q0 -84 50 -139l242 311q-47 29 -102 29q-83 0 -136.5 -57.5t-53.5 -143.5zM33 260q0 118 77.5 195.5t194.5 77.5q83 0 148 -42l38 49l46 -37l-38 -48q77 -77 77 -195q0 -117 -77.5 -195 t-194.5 -78q-80 0 -142 37l-38 -48l-46 36l37 47q-82 79 -82 201z"/>
<glyph glyph-name="ugrave" horiz-adv-x="543" unicode="ù" d="M256 725l72 -142h-70l-88 142h86zM247 -13q-88 0 -136 58t-48 150v325h79v-328q0 -61 34.5 -97t88.5 -36q60 0 97.5 40.5t37.5 104.5v316h80v-520h-79v75q-19 -37 -61 -62.5t-93 -25.5z"/>
<glyph glyph-name="uacute" horiz-adv-x="543" unicode="ú" d="M225 583l71 142h87l-89 -142h-69zM247 -13q-88 0 -136 58t-48 150v325h79v-328q0 -61 34.5 -97t88.5 -36q60 0 97.5 40.5t37.5 104.5v316h80v-520h-79v75q-19 -37 -61 -62.5t-93 -25.5z"/>
<glyph glyph-name="ucircumflex" horiz-adv-x="543" unicode="û" d="M335 594l-62 82l-61 -82h-75l94 130h84l94 -130h-74zM247 -13q-88 0 -136 58t-48 150v325h79v-328q0 -61 34.5 -97t88.5 -36q60 0 97.5 40.5t37.5 104.5v316h80v-520h-79v75q-19 -37 -61 -62.5t-93 -25.5z"/>
<glyph glyph-name="udieresis" horiz-adv-x="543" unicode="ü" d="M309 653q0 21 14.5 35.5t35.5 14.5t35.5 -15t14.5 -35q0 -21 -14.5 -35.5t-35.5 -14.5q-22 0 -36 14.5t-14 35.5zM145 653q0 20 14.5 35t35.5 15t35.5 -14.5t14.5 -35.5t-14 -35.5t-36 -14.5q-21 0 -35.5 14.5t-14.5 35.5zM247 -13q-88 0 -136 58t-48 150v325h79v-328 q0 -61 34.5 -97t88.5 -36q60 0 97.5 40.5t37.5 104.5v316h80v-520h-79v75q-19 -37 -61 -62.5t-93 -25.5z"/>
<glyph glyph-name="yacute" horiz-adv-x="508" unicode="ý" d="M210 583l71 142h87l-89 -142h-69zM222 -179h-79l75 184l-212 515h86l165 -418l160 418h84z"/>
<glyph glyph-name="thorn" horiz-adv-x="613" unicode="þ" d="M144 261q0 -93 51 -147.5t127 -54.5q77 0 126.5 56.5t49.5 145.5q0 90 -50.5 145t-127.5 55q-79 0 -127.5 -58t-48.5 -142zM68 -187v910h79v-283q70 93 178 93q111 0 182.5 -76.5t71.5 -195.5q0 -121 -69 -197.5t-179 -76.5q-71 0 -118 32t-66 65v-271h-79z"/>
<glyph glyph-name="OE" horiz-adv-x="1080" unicode="Œ" d="M122 350q0 -124 78 -205.5t195 -81.5t195 81.5t78 205.5q0 123 -78.5 205t-194.5 82t-194.5 -82t-78.5 -205zM38 350q0 155 102.5 259t254.5 104q48 0 98 -13h524v-74h-386q103 -92 118 -233h236v-73h-234q-12 -152 -121 -247h398v-73h-536q-50 -13 -98 -13 q-152 0 -254 103.5t-102 259.5z"/>
<glyph glyph-name="oe" horiz-adv-x="1025" unicode="œ" d="M579 302h333q-4 78 -50.5 120.5t-115.5 42.5q-66 0 -113 -43.5t-54 -119.5zM114 260q0 -88 53.5 -144.5t136.5 -56.5q84 0 138 57t54 144t-54 144t-138 57q-83 0 -136.5 -57.5t-53.5 -143.5zM33 260q0 118 77.5 195.5t194.5 77.5q75 0 135 -35t94 -95q31 61 87.5 95.5 t124.5 34.5q114 0 181 -73.5t67 -192.5q0 -20 -1 -24h-417q1 -87 52.5 -136.5t134.5 -49.5q103 0 161 81l53 -38q-28 -46 -81.5 -79.5t-133.5 -33.5q-77 0 -137 34.5t-91 95.5q-33 -60 -94 -95t-136 -35q-117 0 -194 77.5t-77 195.5z"/>
<glyph glyph-name="Scaron" horiz-adv-x="506" unicode="Š" d="M251 797l62 82h74l-94 -130h-84l-94 130h75zM34 141l69 30q38 -109 153 -109q57 0 92 31t35 85q0 41 -24.5 71.5t-60.5 48t-79 39.5t-79 43.5t-60.5 61t-24.5 92.5q0 77 54.5 128t145.5 51q83 0 131.5 -42.5t66.5 -91.5l-68 -28q-40 88 -131 88q-56 0 -87 -30t-31 -75 q0 -44 34 -75.5t82 -53.5t96.5 -47t82.5 -69t34 -106q0 -85 -58 -140.5t-154 -55.5q-92 0 -145.5 46t-73.5 108z"/>
<glyph glyph-name="scaron" horiz-adv-x="417" unicode="š" d="M216 642l62 82h74l-94 -130h-84l-94 130h75zM29 98l55 36q43 -80 130 -80q41 0 68.5 22.5t27.5 60.5q0 33 -27 55t-65 36.5t-76.5 31.5t-65.5 50t-27 82q0 64 47.5 102.5t119.5 38.5q65 0 106.5 -31.5t54.5 -68.5l-58 -33q-33 67 -108 67q-37 0 -61.5 -19.5t-24.5 -52.5 q0 -32 27 -53.5t65.5 -35.5t77 -30.5t65.5 -50.5t27 -84q0 -68 -50 -111t-127 -43q-129 0 -181 111z"/>
<glyph glyph-name="Ydieresis" horiz-adv-x="532" unicode="Ÿ" d="M301 828q0 21 14.5 35.5t35.5 14.5t35.5 -15t14.5 -35q0 -21 -14.5 -35.5t-35.5 -14.5q-22 0 -36 14.5t-14 35.5zM137 828q0 20 14.5 35t35.5 15t35.5 -14.5t14.5 -35.5t-14 -35.5t-36 -14.5q-21 0 -35.5 14.5t-14.5 35.5zM226 0v328l-217 372h93l164 -295l167 295h90 l-217 -372v-328h-80z"/>
<glyph glyph-name="circumflex" horiz-adv-x="451" unicode="ˆ" d="M287 594l-62 82l-61 -82h-75l94 130h84l94 -130h-74z"/>
<glyph glyph-name="tilde" horiz-adv-x="451" unicode="˜" d="M289 601q-28 0 -68 22.5t-58 22.5q-17 0 -27 -12t-11 -32h-57q0 48 26 76.5t68 28.5q27 0 68 -22t57 -22q17 0 27 12t11 32h56q0 -48 -25.5 -77t-66.5 -29z"/>
<glyph glyph-name="endash" horiz-adv-x="600" unicode="–" d="M41 267v68h518v-68h-518z"/>
<glyph glyph-name="emdash" horiz-adv-x="866" unicode="—" d="M41 267v68h783v-68h-783z"/>
<glyph glyph-name="quoteleft" horiz-adv-x="185" unicode="‘" d="M148 553q0 -23 -16 -40t-39 -17q-25 0 -42 17t-17 44q0 93 77 159l37 -36q-15 -11 -30.5 -31.5t-18.5 -40.5q22 -4 35.5 -19.5t13.5 -35.5z"/>
<glyph glyph-name="quotesinglbase" horiz-adv-x="212" unicode="‚" d="M49 43q0 23 16 39.5t39 16.5q25 0 42 -16.5t17 -43.5q0 -92 -77 -160l-37 36q42 32 49 73q-22 3 -35.5 19t-13.5 36z"/>
<glyph glyph-name="quotedblleft" horiz-adv-x="333" unicode="“" d="M296 553q0 -23 -16 -40t-39 -17q-25 0 -42 17t-17 44q0 93 77 159l37 -36q-15 -11 -30.5 -31.5t-18.5 -40.5q22 -4 35.5 -19.5t13.5 -35.5zM148 553q0 -23 -16 -40t-39 -17q-25 0 -42 17t-17 44q0 93 77 159l37 -36q-15 -11 -30.5 -31.5t-18.5 -40.5q22 -4 35.5 -19.5 t13.5 -35.5z"/>
<glyph glyph-name="quotedblright" horiz-adv-x="333" unicode="”" d="M37 660q0 23 15.5 39.5t38.5 16.5q26 0 42.5 -16.5t16.5 -43.5q0 -92 -77 -160l-37 36q42 32 49 73q-22 3 -35 19t-13 36zM185 660q0 23 15.5 39.5t38.5 16.5q26 0 42.5 -16.5t16.5 -43.5q0 -92 -77 -160l-37 36q42 32 49 73q-22 3 -35 19t-13 36z"/>
<glyph glyph-name="dagger" horiz-adv-x="378" unicode="†" d="M148 0v456h-115v70h115v174h79v-174h117v-70h-117v-456h-79z"/>
<glyph glyph-name="daggerdbl" horiz-adv-x="393" unicode="‡" d="M41 189v70h115v181h-115v70h115v190h78v-190h118v-70h-118v-181h118v-70h-118v-189h-78v189h-115z"/>
<glyph glyph-name="perthousand" horiz-adv-x="1119" unicode="‰" d="M834 139q0 -39 25 -65t64 -26t63.5 26t24.5 65t-25 65t-65 26q-38 0 -62.5 -26t-24.5 -65zM767 139q0 64 44.5 109t109.5 45q68 0 113 -44.5t45 -109.5q0 -64 -45 -108t-112 -44t-111 43.5t-44 108.5zM472 139q0 -39 24.5 -65t63.5 -26q40 0 64 26t24 65t-24.5 65 t-64.5 26q-38 0 -62.5 -26t-24.5 -65zM405 139q0 64 44 109t110 45q67 0 112 -44.5t45 -109.5q0 -64 -45 -108t-111 -44q-67 0 -111 43.5t-44 108.5zM195 469q40 0 64 26t24 64q0 39 -25 65.5t-64 26.5q-38 0 -62.5 -26.5t-24.5 -65.5q0 -38 25 -64t63 -26zM194 407 q-66 0 -110 44t-44 108t44 109t109 45q68 0 113 -44.5t45 -109.5q0 -64 -45 -108t-112 -44zM71 0l533 700h82l-534 -700h-81z"/>
<glyph glyph-name="guilsinglleft" horiz-adv-x="270" unicode="‹" d="M158 109l-124 183l124 184h77l-124 -184l124 -183h-77z"/>
<glyph glyph-name="guilsinglright" horiz-adv-x="270" unicode="›" d="M235 292l-124 -183h-77l124 183l-124 184h77z"/>
<glyph glyph-name="fraction" horiz-adv-x="420" unicode="⁄" d="M52 -41h-73l389 782h73z"/>
<glyph glyph-name="Euro" horiz-adv-x="627" unicode="€" d="M28 249v61h52q-2 22 -2 40q0 20 2 48h-52v61h64q31 112 118 183t202 71q106 0 171 -43l-34 -66q-58 34 -130 34q-86 0 -150 -49t-89 -130h277l-5 -61h-286q-3 -23 -3 -47q0 -21 3 -41h279l-5 -61h-259q24 -81 87 -133t150 -52q84 0 142 39l33 -65q-22 -18 -69.5 -34.5 t-103.5 -16.5q-125 0 -212.5 74.5t-116.5 187.5h-63z"/>
<glyph glyph-name="trademark" horiz-adv-x="729" unicode="™" d="M535 381h-58l-106 218v-259h-58v360h73l120 -250l121 250h72v-360h-57v259zM122 340v304h-93v56h246v-56h-93v-304h-60z"/>
<glyph glyph-name="minus" horiz-adv-x="550" unicode="−" d="M40 278v67h470v-67h-470z"/>
</font>
</defs>
</svg>
